<?xml version="1.0" encoding="utf-8"?>
<!-- Generator: Adobe Illustrator 19.2.1, SVG Export Plug-In . SVG Version: 6.00 Build 0)  -->
<svg version="1.1" id="Layer_1" xmlns="http://www.w3.org/2000/svg" xmlns:xlink="http://www.w3.org/1999/xlink" x="0px" y="0px"
	 viewBox="0 0 32 32" style="enable-background:new 0 0 32 32;" xml:space="preserve">
<style type="text/css">
	.st0{fill:#888888;}
	.st1{fill:#F2F2F2;}
	.st2{fill:#F1F1F1;}
	.st3{fill:#F0F0F0;}
	.st4{fill:#EFEFEF;}
	.st5{fill:#EEEEEE;}
	.st6{fill:#EDEDED;}
	.st7{fill:#ECECEC;}
	.st8{fill:#EBEBEB;}
	.st9{fill:#EAEAEA;}
	.st10{fill:#E9E9E9;}
	.st11{fill:#E8E8E8;}
	.st12{fill:#E7E7E7;}
	.st13{fill:#E6E6E6;}
	.st14{fill:#E5E5E5;}
	.st15{fill:#E4E4E4;}
	.st16{fill:#E3E3E3;}
	.st17{fill:#E2E2E2;}
	.st18{fill:#E1E1E1;}
	.st19{fill:#E0E0E0;}
	.st20{fill:#DEDEDE;}
	.st21{fill:#DDDDDD;}
	.st22{fill:#DCDCDC;}
	.st23{fill:#DBDBDB;}
	.st24{fill:#DADADA;}
	.st25{fill:#D9D9D9;}
	.st26{fill:#D8D8D8;}
	.st27{fill:#D7D7D7;}
	.st28{fill:#D6D6D6;}
	.st29{fill:#D5D5D5;}
	.st30{fill:#D4D4D4;}
	.st31{fill:#D3D3D3;}
	.st32{fill:#D2D2D2;}
	.st33{fill:#D1D1D1;}
	.st34{fill:#D0D0D0;}
	.st35{fill:#CFCFCF;}
	.st36{fill:#CECECE;}
	.st37{fill:#CDCDCD;}
	.st38{fill:#CCCCCC;}
	.st39{fill:#CBCBCB;}
	.st40{fill:#CACACA;}
	.st41{fill:#C9C9C9;}
	.st42{fill:#C8C8C8;}
	.st43{fill:#C7C7C7;}
	.st44{fill:#C6C6C6;}
	.st45{fill:#C5C5C5;}
	.st46{fill:#C4C4C4;}
	.st47{fill:#C3C3C3;}
	.st48{fill:#C2C2C2;}
	.st49{fill:#C1C1C1;}
	.st50{fill:#C0C0C0;}
	.st51{fill:#BFBFBF;}
	.st52{fill:#BEBEBE;}
	.st53{fill:#BDBDBD;}
	.st54{fill:#BCBCBC;}
	.st55{fill:#BBBBBB;}
	.st56{fill:#BABABA;}
	.st57{fill:#B9B9B9;}
	.st58{fill:#B7B7B7;}
	.st59{fill:#B6B6B6;}
	.st60{fill:#B5B5B5;}
	.st61{fill:#B4B4B4;}
	.st62{fill:#B2B2B2;}
	.st63{fill:#B1B1B1;}
	.st64{fill:#B0B0B0;}
	.st65{fill:#AEAEAE;}
	.st66{fill:#ADADAD;}
	.st67{fill:#ABABAB;}
	.st68{fill:#AAAAAA;}
	.st69{fill:#A8A8A8;}
	.st70{fill:#A7A7A7;}
	.st71{fill:#A5A5A5;}
	.st72{fill:#A3A3A3;}
	.st73{fill:#A2A2A2;}
	.st74{fill:#A0A0A0;}
	.st75{fill:#9E9E9E;}
	.st76{fill:#9D9D9D;}
	.st77{fill:#9B9B9B;}
	.st78{fill:#999999;}
	.st79{fill:#FFFFFF;}
	.st80{fill:#FEFEFE;}
	.st81{fill:#FDFDFD;}
	.st82{fill:#FCFCFC;}
	.st83{fill:#FBFBFB;}
	.st84{fill:#FAFAFA;}
	.st85{fill:#F9F9F9;}
	.st86{fill:#F8F8F8;}
	.st87{fill:#F7F7F7;}
	.st88{fill:#F6F6F6;}
	.st89{fill:#F5F5F5;}
	.st90{fill:#F4F4F4;}
	.st91{fill:#F3F3F3;}
	.st92{fill:#DFDFDF;}
	.st93{fill:#6E6E6E;}
	.st94{fill:#464646;}
	.st95{fill:none;}
</style>
<metadata><?xpacket begin="﻿" id="W5M0MpCehiHzreSzNTczkc9d"?>
<x:xmpmeta xmlns:x="adobe:ns:meta/" x:xmptk="Adobe XMP Core 5.6-c111 79.158366, 2015/09/25-01:12:00        ">
   <rdf:RDF xmlns:rdf="http://www.w3.org/1999/02/22-rdf-syntax-ns#">
      <rdf:Description rdf:about=""
            xmlns:dc="http://purl.org/dc/elements/1.1/"
            xmlns:xmp="http://ns.adobe.com/xap/1.0/"
            xmlns:xmpGImg="http://ns.adobe.com/xap/1.0/g/img/"
            xmlns:xmpMM="http://ns.adobe.com/xap/1.0/mm/"
            xmlns:stRef="http://ns.adobe.com/xap/1.0/sType/ResourceRef#"
            xmlns:stEvt="http://ns.adobe.com/xap/1.0/sType/ResourceEvent#"
            xmlns:illustrator="http://ns.adobe.com/illustrator/1.0/"
            xmlns:xmpTPg="http://ns.adobe.com/xap/1.0/t/pg/"
            xmlns:stDim="http://ns.adobe.com/xap/1.0/sType/Dimensions#"
            xmlns:xmpG="http://ns.adobe.com/xap/1.0/g/"
            xmlns:pdf="http://ns.adobe.com/pdf/1.3/">
         <dc:format>image/svg+xml</dc:format>
         <dc:title>
            <rdf:Alt>
               <rdf:li xml:lang="x-default">typeItemRevision32</rdf:li>
            </rdf:Alt>
         </dc:title>
         <xmp:CreatorTool>Adobe Illustrator CC 2015 (Windows)</xmp:CreatorTool>
         <xmp:CreateDate>2016-03-16T16:55:35-07:00</xmp:CreateDate>
         <xmp:ModifyDate>2016-03-16T16:55:35-07:00</xmp:ModifyDate>
         <xmp:MetadataDate>2016-03-16T16:55:35-07:00</xmp:MetadataDate>
         <xmp:Thumbnails>
            <rdf:Alt>
               <rdf:li rdf:parseType="Resource">
                  <xmpGImg:width>256</xmpGImg:width>
                  <xmpGImg:height>256</xmpGImg:height>
                  <xmpGImg:format>JPEG</xmpGImg:format>
                  <xmpGImg:image>/9j/4AAQSkZJRgABAgEASABIAAD/7QAsUGhvdG9zaG9wIDMuMAA4QklNA+0AAAAAABAASAAAAAEA&#xA;AQBIAAAAAQAB/+4ADkFkb2JlAGTAAAAAAf/bAIQABgQEBAUEBgUFBgkGBQYJCwgGBggLDAoKCwoK&#xA;DBAMDAwMDAwQDA4PEA8ODBMTFBQTExwbGxscHx8fHx8fHx8fHwEHBwcNDA0YEBAYGhURFRofHx8f&#xA;Hx8fHx8fHx8fHx8fHx8fHx8fHx8fHx8fHx8fHx8fHx8fHx8fHx8fHx8fHx8f/8AAEQgBAAEAAwER&#xA;AAIRAQMRAf/EAaIAAAAHAQEBAQEAAAAAAAAAAAQFAwIGAQAHCAkKCwEAAgIDAQEBAQEAAAAAAAAA&#xA;AQACAwQFBgcICQoLEAACAQMDAgQCBgcDBAIGAnMBAgMRBAAFIRIxQVEGE2EicYEUMpGhBxWxQiPB&#xA;UtHhMxZi8CRygvElQzRTkqKyY3PCNUQnk6OzNhdUZHTD0uIIJoMJChgZhJRFRqS0VtNVKBry4/PE&#xA;1OT0ZXWFlaW1xdXl9WZ2hpamtsbW5vY3R1dnd4eXp7fH1+f3OEhYaHiImKi4yNjo+Ck5SVlpeYmZ&#xA;qbnJ2en5KjpKWmp6ipqqusra6voRAAICAQIDBQUEBQYECAMDbQEAAhEDBCESMUEFURNhIgZxgZEy&#xA;obHwFMHR4SNCFVJicvEzJDRDghaSUyWiY7LCB3PSNeJEgxdUkwgJChgZJjZFGidkdFU38qOzwygp&#xA;0+PzhJSktMTU5PRldYWVpbXF1eX1RlZmdoaWprbG1ub2R1dnd4eXp7fH1+f3OEhYaHiImKi4yNjo&#xA;+DlJWWl5iZmpucnZ6fkqOkpaanqKmqq6ytrq+v/aAAwDAQACEQMRAD8A9U4q7FXYq7FXYq7FXYq7&#xA;FXYq7FWMedPzI8qeULctqt0DdsvKHT4aPcP4fBX4Qf5mIGKvnXz7+d/mvzR6lpbN+idIbb6pAx9S&#xA;Rf8Ai2XZm/1RRfY4qxnyl578z+VLv6xo140SMay2r/HBJ/rxnb6Rv74q+hvIX59+WfMHp2erldG1&#xA;VqKBK3+jSN/kSmnEn+V/oJxV6iDXcdMVdirsVdirsVdirsVdirsVdirsVdirsVdirsVdirsVdirs&#xA;VdirsVdirsVdirsVdiqX655g0XQrB7/V7yOytE6ySmlT/KqirM3soJxV4J59/wCcjdRvfUsfKcZs&#xA;bY/C2pSgGdh/xWhqsYPian5Yq8jtbPW9f1T0reOfUtTumLNTlLK7HqzE1PzJxV7V5G/5x2jT073z&#xA;fLzbZl0q3b4R7TSr1+Sf8FirJvOn5GeUtch9TS410XUEULG9uoEDcRsJIhQf7JaHxrirwHzd5C8z&#xA;eVLn0tWtSIGNIbyKrwSf6r02P+S1D7YqnvkP85/NnlMx2xk/SWjrt9QuGPwD/imTdo/luvtir6L8&#xA;kfmh5T83wgadc+jfgVk064ok6068RWjr7qT70xVluKuxV2KuxV2KuxV2KuxV2KuxV2KuxV2KuxV2&#xA;KuxV2KuxV2KuxV2KuxVZNNDBE80zrFFGC0kjkKqqOpJOwGKvHvPv/ORWj6b6lj5WRdTvR8JvnqLV&#xA;D340o0p+VF9zirwHX/MnmDzJqP13V7yW+u3+FOXRQT9mNFoqj2UYq9C8i/kD5h1r07zXy+j6aaER&#xA;MP8AS5B7If7v5vv/AJOKvffLXlDy55YsvqmjWaWyn+9l+1LIR3eQ/E36vDFU1ZsVU2bFUJe29rd2&#xA;8ltdQpcW8o4ywyqHRh4MrVBxV4553/IOzn9S98rSC2l3ZtOmYmJj/wAVyGpT5NUe4xV4xf6drWg6&#xA;l6F5DNp9/AQ61qjgg7OjD8GU4q9V8hf85Faxpvp2PmlG1OyHwi+SgukHblWiyj50b3OKvf8Ay95m&#xA;0HzFYC/0a9jvLY7MUPxITvxdDRkb2YYqmeKuxV2KuxV2KuxV2KuxV2KuxV2KuxV2KuxV2KuxV2Ku&#xA;xV2KsB8+fnP5T8piS2En6T1hdvqFuw+A/wDF0m6x/LdvbFXzp53/ADP82eb5iNRufRsAax6db1SB&#xA;adCwrV292J9qYqq+R/yo82ebnWW1g+qaZX49RuAVjp39MdZD/q7eJGKvojyP+UnlPyiqTwQ/XdVH&#xA;2tRuAC4P/FS/ZjHy38ScVZkzYqps2KqbNiqk74qos2KqLviqTeYfL2ia9Zm01a0S6i/YLCjoT3Rx&#xA;RlPyOKvEfOX5KarpnqXehO2o2QqTbmn1lB7AbSfRQ+2KsE0bXNd8vakLzS7qWwvojxYoSp2O6Op2&#xA;YeKsKYq968hf85G6deenY+bYxY3J+FdShBNux/4sQVaM+4qPlir2e2uba6gjuLaVJ7eVQ8U0bB0Z&#xA;T0KstQRiqpirsVdirsVdirsVdirsVdirsVdirsVdirsVdirUjrGjO5oiAsx8ANzir5c/MD8+vMmv&#xA;vNY6MzaTpBLKDESLiZOlXk2KAj9lfkScVYJ5a8p+YfM2ofUtGs3u5tjIw2SNT+1I7UVR8zir6A8i&#xA;f84+aBo/p3vmNl1fURuLah+qRn/VNDL/ALLb/J74q9YAREVEUKigBVAoABsAAMVWM2KqbNiqmzYq&#xA;pO+KqLNiqi74qoO+KqDviqg74qxPzb5C8u+Y1L3UPo31KJew0WTbpy7OPn9FMVeK+a/y717y6Wmk&#xA;QXeng7XkINAK7eovVP1e+KteS/zI81+ULgNpV0TaM3KbT5qvbv4/BX4Sf5lIOKvqr8vPOtv5y8sw&#xA;6zFAbaQu0Nzbk8gkqUqFag5AhgQaYqyXFXYq7FXYq7FXYq7FXYq7FXYq7FXYq7FXYqoah/vBc/8A&#xA;GJ/+InFXwhirPrNtQ0K9BtTLp17bNT4eUUiHuD0Pzrir1byj+d1eFp5ljodgNRhX8ZYx+tPuxV6l&#xA;aX9nfWyXVnMlxbyCqSxsGU/SMVXM2KqbNiqk74qos2KqLviqg74qoO+KqDviqg74qxPzB580vTuU&#xA;NsReXY2Kof3an/Kf+AxV51rGvanq8vO8lLIDVIV2jX5L/E4qwjW4UhviqJwBUNQCg374q+k/+cbf&#xA;/JeSf8x8/wDxCPFXqmKuxV2KuxV2KuxV2KuxV2KuxV2KuxV2KuxVQ1D/AHguf+MT/wDETir4QxV9&#xA;i+ZPKGheYIeN/APWApHdR/DKvybuPY1GKvIPNX5Za5onO4twb/T1qfWiHxov/Fke5+kVHyxVJPL/&#xA;AJp1zQLj1tMuWiBNZIT8UT0/nQ7H59cVeveVfzb0bVgltqVNNvjQVY/uHP8Akufs/JvvOKs1ZwRU&#xA;GoPfFVJmxVRd8VUHfFVB3xVQd8VSPXvNOk6Oh+tS8p6VS2SjSH6O3zOKvNPMHnfVtW5RI31WzO3o&#xA;xk1Yf5bdT8umKpFBbTTNRFqO7HoMVTO206GKjP8AG/v0H0Yqw3zj/wAdpv8AjGn6sVfQ/wDzjb/5&#xA;LyT/AJj5/wDiEeKvVMVdirsVdirsVdirsVdirsVdirsVdirsVdiqhqH+8Fz/AMYn/wCInFXwhir7&#xA;dJxVaTirDfNP5a6HrRe4twLC/apM0Sjg5/y49gfmKH54q8k8w+Utb0GbjfQfuSaR3UdWib5N2Psa&#xA;HFUf5X/MPXtB4Qh/renigNpKT8I/4rbcp+r2xV6x5e876Hr6BbWX0rulXtJaLIPHj2YfLFU3d8VU&#xA;HfFUv1PVbDTrdri9nWCIftMdyfBR1J9hirzjzF+Zd3c8oNIU20PQ3L09Rh/kjov6/lirCiZ7iYsx&#xA;aWVzVmJLMSe5JxVHW2lgUac1P8g/icVTBVVVCqAAOgGKt4qwLzj/AMdpv+MafqxV9D/842/+S8k/&#xA;5j5/+IR4q9UxV2KuxV2KuxV2KuxV2KuxV2KuxV2KuxV2KqGof7wXP/GJ/wDiJxV8IYq+2ycVWk4q&#xA;sJxVRuIYJ4XhnjWWGQcXjcBlIPYg7HFXnfmf8prWfnc6E4t5TUmzkJ9M/wCo25X5Hb5Yq8zvbDUt&#xA;KvPRu4ZLW6jNQGqp26MpHX5jFWX+XPzR1G04W+rg3luKAXA/vlHv2f6d/fFU11/80rKKP0tHT6xK&#xA;w3nkBVFqOymjMR9GKvOtR1PUNSuTcXszTzHoWOwHgoGwHsMVX22mSSUaX4F8P2jiqZRQRRLxjWg7&#xA;nucVVMVdirsVYF5x/wCO03/GNP1Yq+h/+cbf/JeSf8x8/wDxCPFXqmKuxV2KuxV2KuxV2KuxV2Ku&#xA;xV2KuxV2KuxVQ1D/AHguf+MT/wDETir4QxV9sk4qsJxVaTiqwnFVpOKpfq+kaZq1sba/t1ni/Z5D&#xA;4lJ7ow3U/LFXkvnbyF+gYhfWs/q2LyCMRv8A3iMwJAqNmG3XbFWJ28DTyiNSBXepxVN7eyhg3A5P&#xA;/Mev0YqiMVdirsVdirsVYF5x/wCO03/GNP1Yq+h/+cbf/JeSf8x8/wDxCPFXqmKuxV2KuxV2KuxV&#xA;2KuxV2KuxV2KuxV2KuxVQ1D/AHguf+MT/wDETir4QxV9rE4qtJxVYTiq0nFVjNiqwnFWF/mv/wAo&#xA;wn/MTH/xF8VeVaZ/vUPkcVTjFXYq7FXYq7FXYqwLzj/x2m/4xp+rFX0P/wA42/8AkvJP+Y+f/iEe&#xA;KvVMVdirsVdirsVdirsVdirsVdirsVdirsVdiqhqH+8Fz/xif/iJxV8IYq+1CcVWE4qtJxVYzYqs&#xA;JxVYTirDPzVP/Osp/wAxMf8AxF8VeWaZ/vUPkcVTjFXYq7FXYq7FXYqwLzj/AMdpv+MafqxV9D/8&#xA;42/+S8k/5j5/+IR4q9UxV2KuxV2KuxV2KuxV2KuxV2KuxV2KuxV2KqGof7wXP/GJ/wDiJxV8IYq+&#xA;0ScVWk4qsZsVWE4qsJxVaTirDfzUP/Osr/zEx/8AEWxV5bpn+9Q+RxVOMVdirsVdirsVdirAvOP/&#xA;AB2m/wCMafqxV9D/APONv/kvJP8AmPn/AOIR4q9UxV2KuxV2KuxV2KuxV2KuxV2KuxV2KuxV2KqG&#xA;of7wXP8Axif/AIicVfCGKvqvy35+0TXQsSv9Vvj1tZSKk/8AFbdH/X7YqyFmxVYTiqwnFVpOKrSc&#xA;VYb+aR/51pP+YmP/AIi2KvL9M/3qHyOKpxirsVdirsVdiqnNPFCvKRqeA7nFWBeaZhNqzSAEKUUC&#xA;vgMVeqfkb+bPlzy7pbeXdaD2iS3Dzxah9qIGRVXhIAOS/Z+1uPGmKvoe2ura6t47i1lSe3lAaKaJ&#xA;g6Mp6FWWoIxVUxV2KuxV2KuxV2KuxV2KuxV2KuxV2KuxVQ1D/eC5/wCMT/8AETir4QxV6Fqujapp&#xA;Fz9Xv4GglG6k/ZYDurDZh8sVZN5b/MzVtN4W+oVv7MbBmP75B7OftfJvvxV6do/mHSdZt/WsJ1kp&#xA;9uI7SJ/rKdxiqOJxVaTiqwnFWHfmj/yja/8AMTH/AMRbFXmOmf71D5HFU4xV2KuxVpmVVLMQAOpO&#xA;Kpfc6oBVYBU/zn+AxVAqtxczKiK000hoqKCzEnsAMVZhpv5Lz6rAJ9blNjVf3UcdGm36c6/CB7bn&#xA;5YqwTzh+WPmTy0zzPH9d00bi+gBIA/4sTcp+r3xVQ8mfmP5r8oXHLSbqtqx5TWE1Xt3+aVHE/wCU&#xA;pBxV9FeQ/wA8PKnmj07S5caTq7bfVbhh6cjf8VS7K1f5TRvY4q9FxV2KuxV2KuxV2KuxV2KuxV2K&#xA;uxV2KqGof7wXP/GJ/wDiJxV8IYq+wNQ0+x1C2a2vYEnhbqjitD4juD7jFXmvmT8rJ4edzojmaPqb&#xA;OQ/vB/qN0b5Hf54qweOTUNNvOSNJaXkJoeqOp8D0OKs+8u/mn9m31xPYXsQ/4mg/Wv3Yqz62vLa6&#xA;gWe2lWaF/syIQwP0jFV5OKsP/M8/862v/MRH/wARbFXmWmf71D5HFU4xV2KoS51GKKqp8b+3QfTi&#xA;qWT3M0zVdqjso6DFWS+WPy71vWuE8i/UtPbf6xKDyYf8VpsW+ew98Veq6B5T0PQIqWUNbgij3Unx&#xA;St479h7DFUzd8VUJCGBB3B2IOKvOfOH5QaHq3O60rjpl+dyqj/R3P+Ug+yfdfuOKvGtf8sa3oFz6&#xA;Gp2zRVJ9OYfFE9P5HGx+XXFWaeQvzz81eWfTtL5jq+krRRBOx9aNf+KpTU/7Fqjwpir6J8m/mH5V&#xA;83W3q6Rdg3Cis1jLRLiP/WSpqN/tLUe+KskxV2KuxV2KuxV2KuxV2KuxV2KqGof7wXP/ABif/iJx&#xA;V8IYq+xicVWk4qlGu+WtH1uLjew1lApHcJ8Mq/JvD2O2KvMPMX5f6vpXKaAfXbIb+rGPjUf5afxG&#xA;2KpNo+varpE/q2M5jqavGd0b/WU7Yq9I8v8A5i6ZqHGC/pY3Z2BY/uWPsx+z8m+/FVv5nEHy2lOn&#xA;1iP/AIi2KvNNM/3qHyOKplcXcMA+M1bso64qldzfzTVA+BP5R/E4qjvL/lXW9en9PT7ctGDSS4f4&#xA;Yk/1m/gN8Ver+Wfyz0TR+NxeAahfDfnIP3SH/IQ1+9vwxVlbviqg74qou+KqLviqkTX5Yqhr6zs7&#xA;62e2vYEntnFGhkUMp+g4q8p82/k0BzuvLsnudPmb/k3If1P9+KvNCuraNqIP77T9RtmqrAtFKjDo&#xA;QRQj5jFXsfkP/nI69tvTsfN0Ru4BRV1OBQJl/wCMsYor/NaH2OKvedG1zSNbsEv9Ju4720k2WWJq&#xA;gHurDqrDuDviqOxV2KuxV2KuxV2KuxV2KqGof7wXP/GJ/wDiJxV8IYq+xCcVWk4qsJxVaTirF/MX&#xA;kPSNW5TRD6nenf1Yx8LH/LTYH5jfFXmmt+WtX0aTjeQ/uiaJcJ8Ubf7Lt8jviqGbV9RbTv0c87PZ&#xA;hg6RNvxKggcSdwN+mKoWOV425IaNSlfniqvY6ff6ldLbWUD3Nw/REBY/M+A9zir0/wAr/lBDFwuv&#xA;MEglfqLGIngP+Mkg3PyX7zir0SGG2tYEgtokhgjFEijUKoHsBtiqx3xVQd8VUXfFVF3xVSJr8sVW&#xA;E9z07DFVNm7nr2GKqLv9+KpH5g8v6Nrdv6GoW6y8a8JhtIn+q43H6sVeS+Zvyz1XTOdxp5N/ZDeg&#xA;H75R7oPtfNfuxVIvLnmnzB5avxe6NeyWc42cKao4H7MiGquPYjFX0D+X/wDzkJo+svDp3mOMaZqU&#xA;hCJdJU2srnYVrVoiT41X/KxV6/irsVdirsVdirsVdiqhqH+8Fz/xif8A4icVfCGKvsInFVhOKrSc&#xA;VWE4qtJxVSmjiljaKVBJG4oyMKhh7g4q8489eUdN021Go2NYleQRvb9UqwJqpO46dMVYRirNfIv5&#xA;hr5eQ2dzZRyWcjVe4hVVuB/rH/dgHYH78Veu6Xr2lavbC5065WeL9oLsynwZTup+eKq7viqg74qo&#xA;u+KqLviqkTX5YqsJ7np2GKqbN3PXsMVUXf78VQ0knUA/M4qhZZRTwUfjiqRav5jsbGqu3qTD7MCb&#xA;n/ZHtirznX4odYuXuZIkt5m/aiUCv+t/Mfc4qwzFX3fYEmxtyTUmJKn/AGIxVXxV2KuxV2KuxV2K&#xA;qGof7wXP/GJ/+InFXwhir6/JxVaTiqwnFVpOKrScVW9cVYn+Zf8Ayjq/8xCf8RbFWF+SdPs9Q1sW&#xA;t5GJYHikqpqNwNiCOhxVM9f/AC6vLblPpbG6gG5hP96o9uzfrxVi9lf6lpd361pNJa3MZIJWqkU6&#xA;qwP6jir0fy5+a0E/G31tBDL0F3GD6Z/113K/MbfLFWcR3MM8SzQyLLE4qkiEMpHiCMVWO+KqRNfl&#xA;iqwnuenYYqps3c9ewxVRd/vxVDSSdQD8ziqWalq1lYxepcyiNf2V6s3+qOpxVhGsecLy7JjtK28H&#xA;TkP7wj59voxVIY45ZnogLMev9pxVMbbTEWjTfG38o6f24q82xV936f8A7wW3/GJP+IjFVfFXYq7F&#xA;XYq7FXYqoah/vBc/8Yn/AOInFXwhir69JxVYTiq0nFVpOKreuKtYqxT8y/8AlHV/5iE/4i2KsT/L&#xA;r/lJU/4xSfqxV6qTTFUm1zyxpOsITcR8LilFuY9nHz/mHzxV51rvk7VdJLScfrNoP+PiMdB/lruV&#xA;/V74qhdE8y6vo0nKymIiJq9u/wAUbfNex9xvir0fQPPmlarxhnP1O7O3pufgY/5D7fccVZGT3PTs&#xA;MVU2buevYYqou/34qg7q6hgiaSWRY413eRjQD6TirC9b89L8UOmLXsbhxt/sVP8AH7sVYhPcXN1M&#xA;ZJnaaVv2mJJ+WKoq20t2o0x4j+UdcVTGOKONeKKFHtiq/FXk+Kvu/T/94Lb/AIxJ/wARGKq+KuxV&#xA;2KuxV2KuxVQ1D/eC5/4xP/xE4q+EMVfXROKrScVWk4qt64q1irsVYn+ZX/KPL/zEJ/xFsVYp+Xf/&#xA;ACkqf8YpP1Yq9TJxVaTiqw79emKsX17yNpt/ymtKWd0d/hH7tj7qOn0YqwDVNF1HS5fTvIigP2JB&#xA;ujf6rYqmug+eNW0vjDKfrdouwikPxKP8h9yPkdsVZ9pXmTS9Vj5Wsv72lXhf4XX6O/zGKpRrvnfT&#xA;7HlDakXVyNjxPwKfdu/yGKsD1PWdR1KXndSlgPsxjZF+S4qp21hNNRj8CfzH+AxVM4LWGAfAPi7s&#xA;euKq2KuxV2KvJ8Vfd+n/AO8Ft/xiT/iIxVXxV2KuxV2KuxV2KqN4jSWc6IKu8bqo8SVIGKvhGWKW&#xA;GV4ZUMcsbFJI2FGVlNCCD0IOKvbfKX5zaZqHC111V0+7NALkV+rufetTH9O3vir0VJY5EWSNg6OA&#xA;yspqGB6EEdsVd1xVrFXYq0TirE/zK/5R5f8AmIT/AIi2KsU/Lz/lJE/4xSfqxV6kTiq0nFVjNiqw&#xA;nFVC5hhuImhmjWWJ9mRgCD9BxVhmt+Ql+KbSmp3Ns52/2DH+P34qw6eC5tZmimRoZl2ZWqDv/XFX&#xA;QW00xoi7d2PQYqmdtp8MVGb438T0HyGKovFXYq7FXYq7FXk+Kvu/T/8AeC2/4xJ/xEYqr4q7FXYq&#xA;7FXYq7FXYqwbz5+T/lPzcHuJYvqGrsNtRtwAzGlB6qbLIPn8X+UMVfOfnn8qfNvlCRpL23+s6ZWk&#xA;epW4LQ79Of7UZ/1voJxVAeVvPvmHy44W0m9WyrV7KarRmvXj3Q+6/TXFXs3lT8yPL/mEJCr/AFPU&#xA;TQGzmIHI/wDFbdH+XX2xVleKtE4q0TTFWJ/mQf8AnXl/5iE/4i2KsU/L008xp/xik/Vir1EnFVjN&#xA;iqwnFVjNiqwmmKqbNirzjzv/AMd1/wDjGn6sVQ+lf7zH/WP6hiqMxV2KuxV2KuxV2KvJ8Vfd+n/7&#xA;wW3/ABiT/iIxVXxV2KuxV2KuxV2KuxV2KrZIo5Y2jlQSRuCrowBUg7EEHriryLz7/wA48aHq3qX3&#xA;lp10nUGqxtSCbSQ+wFWi/wBjUf5OKvn7zH5V8w+Wr/6lrNlJZz9Y2YVRwP2o5Fqrj5HFWTeU/wA2&#xA;9b0nhbanXUrBdgWP79B/kuftfJvvGKvYNA806Hr1t6+mXKykCskJ+GVP9dDuPn08MVTMnFWKfmR/&#xA;yj6/8xCf8RbFWK/l9/ykaf8AGKT9WKvTmbFVhOKrGbFVhNMVU2bFVMnFXnfnU11x/wDjGn6sVUNK&#xA;/wB5j/rH9QxVGYq7FXYq7FXYq7FXk+Kvu/T/APeC2/4xJ/xEYqr4q7FXYq7FXYq7FXYq7FXYq7FU&#xA;FrOiaRrVg9hqtpHeWcn2opVqK9iD1Vh2I3xV4N59/wCccby29S+8oSm5g3ZtLnYCVR1pFIaB/YNQ&#xA;+5xV42Dq2i6kR++0/UbZqMpDRSo3gQaEfI4q9K8qfnMRwtfMUdew1CJfxkjH61+7FWS+eb6zvvK8&#xA;V1ZzJcW8k6FJY2DKfhbuMVY75ANPMSf8YpP1Yq9MJxVYzYqsJpiqmzYqpk4qps1cVefec/8Ajtt/&#xA;xjT9WKqOlf7zH/WP6hiqMxV2KuxV2KuxV2KvJ8Vfd+n/AO8Ft/xiT/iIxVXxV2KuxV2KuxV2KuxV&#xA;2KuxV2KuxV2Ksb85fl75W83W3pavaBp1FIb6KiXEf+q9Nx/ktVfbFXzv59/IvzT5a9S8sFOsaQtW&#xA;9eFT60a9f3sQqaD+Zajxpirz611G9tVZIJmWJyGeKp4MR0JXpX3xVm/5e+ZtPTXojfSLalkdA7mk&#xA;ZYjb4j0+nFXsJcEAg1B6EYqtJpiqmzYqpk4qps1cVU2amKsA84GutMf8hP1Yqp6V/vMf9Y/qGKoz&#xA;FXYq7FXYq7FVK4ube2iMs8ixxjqzGmKvLMVfd+n/AO8Ft/xiT/iIxVXxV2KuxV2KuxV2KuxV2Kux&#xA;V2KuxV2KuxV2KvOvPv5IeVPNHqXdso0nV23+twKPTkb/AIti2DfMUPucVfOvnT8t/NflC4K6rak2&#xA;jNxh1CGr27+Hx0+En+VgDiq3yz5/13QSsSP9asB1tJSSAP8Aituqfq9sVer+XfO+h68oW3l9K7pV&#xA;rSWgk/2PZh8sVTsnFVNmriqmzUxVSZq4qwTzaa6w3+on6sVWaV/vMf8AWP6hiqMxV2KuxVokAEk0&#xA;A3JOKsf1bzhaW1YrMC4mG3P/AHWPp/a+j78VYhe6he30vqXMhkb9kdh7KBsMVelfl/8AkL5k194b&#xA;7WVbSdIJViJQRcTJ1okexQEftN8wDir6jjRY0VEFEQBVHgBsMVbxV2KuxV2KuxV2KuxV2KuxV2Ku&#xA;xV2KuxV2KuxVTubW2ureS3uoknt5QVlhlUOjKeoZWqCMVeMeff8AnHLTrz1L7ylILG5PxNpsxJt2&#xA;P/FbmrRn2NR8sVeC6zoWueX9RNnqlrLYXsRqFcFSaHZkYbMPBlNMVZR5b/NHUbLhb6sDe2woBMP7&#xA;9R8zs/07++KvSdM1vTNVtvrFhcLPH+0AaMpPZlPxL9OKohmriqk74qwfzUa6u3+ov6sVa0r/AHmP&#xA;+sf1DFUZirsVSvVfMOn6cCrt6twOkKbn/ZHouKsN1XzBqGokrI3pwdoU2X6fHFU78kflf5s84Sht&#xA;OtvRsAaS6jcVSBfHiaVc+yg+9MVfRfkP8mPKflMR3Jj/AEnrC7/X7hR8B/4pj3WP57t74qz7FXYq&#xA;7FXYq7FXYq7FXYq7FXYq7FXYq7FXYq7FXYq7FXYq7FUs8w+WdB8xWBsNZso7y2O6hx8SE7ckcUZG&#xA;91OKvAPPv/OOusab6l95WdtTsh8RsXoLpB340oso+VG9jirya3udT0m+LRPLZ3kJKuN0dSDurKfx&#xA;BxVn2gfmdFKFt9ZT0pOgu4x8B/11G6/MfhirNI7iGeJZYXWWJxVHQhlI9iMVYb5oNdVb/UXFW9K/&#xA;3mP+sf1DFV19qVlYxepcyhB+yvVj8h1xViGrebry6rHaVtoTtyB/eEfMfZ+jFUH5f8ta95j1AWOj&#xA;Wcl7ctuwQfCoP7UjmioPdjir3/yF/wA466Ppvp33ml11O9HxCxSotUPblWjSn50X2OKvYYYYYIkh&#xA;hRYoowFjjQBVVR0AA2AxVfirsVdirsVdirsVdirsVdirsVdirsVdirsVdirsVdirsVdirsVdirsV&#xA;Yl53/K/yn5vhJ1G29G/ApHqNvRJ1p05GlHX2YH2pir508+fkx5s8pmS5Ef6S0dd/r9up+Af8XR7t&#xA;H89198VYno3mHVdIk5WcxEZNXgb4o2+a/wARviqezeaLXU5/WlH1aXiAysarUeDYqhZ/NrQQGCxX&#xA;4ySTO42H+qv9cVSJV1DUrxURZbu8nYLHGgaSR2PRVUVJ+QxV7H5C/wCcctRvfTvvNkhsbY/EumxE&#xA;Gdh/xY4qsYPgKn5Yq970Py/ouhWCWGkWcdlaJ0jiFKn+ZmNWZvdiTiqYYq7FXYq7FXYq7FXYq7FX&#xA;Yq7FXYq7FXYq7FXYq7FXYq7FXYq7FXYq7FXYq7FXYq4iux6Yq8v8+fkJ5Y8wepeaQF0bVWqxMS/6&#xA;NIf8uIfZJ/mT6QcVfPPmzyH5p8q3Zt9YsnjQn91dJV4JP9SQCn0Hf2xVkvkP8kPNfmj07u5Q6TpD&#xA;b/WrhT6jj/iqLZm/1movucVfRXkv8t/KnlC3C6Vag3bLxm1Caj3D+Px0+EH+VQBirJ8VdirsVdir&#xA;sVdirsVdirsVdir/AP/Z</xmpGImg:image>
               </rdf:li>
            </rdf:Alt>
         </xmp:Thumbnails>
         <xmpMM:RenditionClass>proof:pdf</xmpMM:RenditionClass>
         <xmpMM:OriginalDocumentID>uuid:65E6390686CF11DBA6E2D887CEACB407</xmpMM:OriginalDocumentID>
         <xmpMM:DocumentID>xmp.did:7425313d-d74c-7341-a30d-008f058e5aea</xmpMM:DocumentID>
         <xmpMM:InstanceID>xmp.iid:7425313d-d74c-7341-a30d-008f058e5aea</xmpMM:InstanceID>
         <xmpMM:DerivedFrom rdf:parseType="Resource">
            <stRef:instanceID>uuid:83425400-75de-4d38-a801-af0493f09322</stRef:instanceID>
            <stRef:documentID>xmp.did:26466043-04c2-d545-9165-999234d414ec</stRef:documentID>
            <stRef:originalDocumentID>uuid:65E6390686CF11DBA6E2D887CEACB407</stRef:originalDocumentID>
            <stRef:renditionClass>proof:pdf</stRef:renditionClass>
         </xmpMM:DerivedFrom>
         <xmpMM:History>
            <rdf:Seq>
               <rdf:li rdf:parseType="Resource">
                  <stEvt:action>saved</stEvt:action>
                  <stEvt:instanceID>xmp.iid:7b142d01-f123-4ea9-aa31-d451c2b0aba7</stEvt:instanceID>
                  <stEvt:when>2015-09-01T11:22:34+01:00</stEvt:when>
                  <stEvt:softwareAgent>Adobe Illustrator CC 2015 (Macintosh)</stEvt:softwareAgent>
                  <stEvt:changed>/</stEvt:changed>
               </rdf:li>
               <rdf:li rdf:parseType="Resource">
                  <stEvt:action>saved</stEvt:action>
                  <stEvt:instanceID>xmp.iid:6171975b-c527-4541-bf53-15cb2cd2c85f</stEvt:instanceID>
                  <stEvt:when>2016-01-15T15:42:24Z</stEvt:when>
                  <stEvt:softwareAgent>Adobe Illustrator CC 2015 (Macintosh)</stEvt:softwareAgent>
                  <stEvt:changed>/</stEvt:changed>
               </rdf:li>
               <rdf:li rdf:parseType="Resource">
                  <stEvt:action>converted</stEvt:action>
                  <stEvt:parameters>from application/postscript to application/vnd.adobe.illustrator</stEvt:parameters>
               </rdf:li>
               <rdf:li rdf:parseType="Resource">
                  <stEvt:action>saved</stEvt:action>
                  <stEvt:instanceID>xmp.iid:8ff8899e-05b1-4c4f-8411-8e323267ad92</stEvt:instanceID>
                  <stEvt:when>2016-02-12T11:43:56Z</stEvt:when>
                  <stEvt:softwareAgent>Adobe Illustrator CC 2015 (Macintosh)</stEvt:softwareAgent>
                  <stEvt:changed>/</stEvt:changed>
               </rdf:li>
               <rdf:li rdf:parseType="Resource">
                  <stEvt:action>saved</stEvt:action>
                  <stEvt:instanceID>xmp.iid:7425313d-d74c-7341-a30d-008f058e5aea</stEvt:instanceID>
                  <stEvt:when>2016-03-16T16:55:35-07:00</stEvt:when>
                  <stEvt:softwareAgent>Adobe Illustrator CC 2015 (Windows)</stEvt:softwareAgent>
                  <stEvt:changed>/</stEvt:changed>
               </rdf:li>
            </rdf:Seq>
         </xmpMM:History>
         <illustrator:StartupProfile>Web</illustrator:StartupProfile>
         <xmpTPg:NPages>1</xmpTPg:NPages>
         <xmpTPg:HasVisibleTransparency>False</xmpTPg:HasVisibleTransparency>
         <xmpTPg:HasVisibleOverprint>False</xmpTPg:HasVisibleOverprint>
         <xmpTPg:MaxPageSize rdf:parseType="Resource">
            <stDim:w>32.000000</stDim:w>
            <stDim:h>32.000000</stDim:h>
            <stDim:unit>Pixels</stDim:unit>
         </xmpTPg:MaxPageSize>
         <xmpTPg:PlateNames>
            <rdf:Seq>
               <rdf:li>Cyan</rdf:li>
               <rdf:li>Magenta</rdf:li>
               <rdf:li>Yellow</rdf:li>
               <rdf:li>Black</rdf:li>
            </rdf:Seq>
         </xmpTPg:PlateNames>
         <xmpTPg:SwatchGroups>
            <rdf:Seq>
               <rdf:li rdf:parseType="Resource">
                  <xmpG:groupName>Default Swatch Group</xmpG:groupName>
                  <xmpG:groupType>0</xmpG:groupType>
                  <xmpG:Colorants>
                     <rdf:Seq>
                        <rdf:li rdf:parseType="Resource">
                           <xmpG:swatchName>Natural Blue 4</xmpG:swatchName>
                           <xmpG:mode>RGB</xmpG:mode>
                           <xmpG:type>PROCESS</xmpG:type>
                           <xmpG:red>20</xmpG:red>
                           <xmpG:green>115</xmpG:green>
                           <xmpG:blue>145</xmpG:blue>
                        </rdf:li>
                        <rdf:li rdf:parseType="Resource">
                           <xmpG:swatchName>White</xmpG:swatchName>
                           <xmpG:mode>RGB</xmpG:mode>
                           <xmpG:type>PROCESS</xmpG:type>
                           <xmpG:red>255</xmpG:red>
                           <xmpG:green>255</xmpG:green>
                           <xmpG:blue>255</xmpG:blue>
                        </rdf:li>
                        <rdf:li rdf:parseType="Resource">
                           <xmpG:swatchName>Pure Black 6</xmpG:swatchName>
                           <xmpG:mode>RGB</xmpG:mode>
                           <xmpG:type>PROCESS</xmpG:type>
                           <xmpG:red>70</xmpG:red>
                           <xmpG:green>70</xmpG:green>
                           <xmpG:blue>70</xmpG:blue>
                        </rdf:li>
                     </rdf:Seq>
                  </xmpG:Colorants>
               </rdf:li>
            </rdf:Seq>
         </xmpTPg:SwatchGroups>
         <pdf:Producer>Adobe PDF library 15.00</pdf:Producer>
      </rdf:Description>
   </rdf:RDF>
</x:xmpmeta>
                                                                                                    
                                                                                                    
                                                                                                    
                                                                                                    
                                                                                                    
                                                                                                    
                                                                                                    
                                                                                                    
                                                                                                    
                                                                                                    
                                                                                                    
                                                                                                    
                                                                                                    
                                                                                                    
                                                                                                    
                                                                                                    
                                                                                                    
                                                                                                    
                                                                                                    
                                                                                                    
                           
<?xpacket end="w"?>
	</metadata>
<g>
	<polygon class="st0" points="19.8,22.7 19.8,31.5 27.5,27.1 27.5,18.2 	"/>
	<g>
		<polygon class="st0" points="12.2,9.4 12.2,18.2 19.8,13.8 19.8,4.9 		"/>
	</g>
	<g>
		<polygon class="st1" points="12.2,18.2 12.3,18.3 12.6,17.9 		"/>
		<polygon class="st2" points="12.6,17.9 12.3,18.3 12.4,18.4 13.1,17.7 		"/>
		<polygon class="st3" points="13.1,17.7 12.4,18.4 12.5,18.4 13.6,17.4 		"/>
		<polygon class="st4" points="13.6,17.4 12.5,18.4 12.7,18.5 14.1,17.1 		"/>
		<polygon class="st5" points="14.1,17.1 12.7,18.5 12.8,18.6 14.6,16.8 		"/>
		<polygon class="st6" points="14.6,16.8 12.8,18.6 12.9,18.7 15,16.6 		"/>
		<polygon class="st7" points="15,16.6 12.9,18.7 13.1,18.7 15.5,16.3 		"/>
		<polygon class="st8" points="15.5,16.3 13.1,18.7 13.2,18.8 16,16 		"/>
		<polygon class="st9" points="16,16 13.2,18.8 13.3,18.9 16.5,15.7 		"/>
		<polygon class="st10" points="16.5,15.7 13.3,18.9 13.4,19 17,15.4 		"/>
		<polygon class="st11" points="17,15.4 13.4,19 13.6,19 17.4,15.2 		"/>
		<polygon class="st12" points="17.4,15.2 13.6,19 13.7,19.1 17.9,14.9 		"/>
		<polygon class="st13" points="17.9,14.9 13.7,19.1 13.8,19.2 18.4,14.6 		"/>
		<polygon class="st14" points="18.4,14.6 13.8,19.2 14,19.3 18.9,14.3 		"/>
		<polygon class="st15" points="18.9,14.3 14,19.3 14.1,19.3 19.4,14 		"/>
		<polygon class="st16" points="19.8,13.8 19.4,14 14.1,19.3 14.2,19.4 19.8,13.8 		"/>
		<polygon class="st17" points="19.8,13.8 14.2,19.4 14.3,19.5 20,13.9 		"/>
		<polygon class="st18" points="20,13.9 14.3,19.5 14.5,19.6 20.1,13.9 		"/>
		<polygon class="st19" points="20.1,13.9 14.5,19.6 14.6,19.6 20.2,14 		"/>
		<polygon class="st20" points="20.2,14 14.6,19.6 14.7,19.7 20.3,14.1 		"/>
		<polygon class="st21" points="20.3,14.1 14.7,19.7 14.8,19.8 20.5,14.2 		"/>
		<polygon class="st22" points="20.5,14.2 14.8,19.8 15,19.8 20.6,14.2 		"/>
		<polygon class="st23" points="20.6,14.2 15,19.8 15.1,19.9 20.7,14.3 		"/>
		<polygon class="st24" points="20.7,14.3 15.1,19.9 15.2,20 20.9,14.4 		"/>
		<polygon class="st25" points="20.9,14.4 15.2,20 15.4,20.1 21,14.4 		"/>
		<polygon class="st26" points="21,14.4 15.4,20.1 15.5,20.1 21.1,14.5 		"/>
		<polygon class="st27" points="21.1,14.5 15.5,20.1 15.6,20.2 21.2,14.6 		"/>
		<polygon class="st28" points="21.2,14.6 15.6,20.2 15.7,20.3 21.4,14.7 		"/>
		<polygon class="st29" points="21.4,14.7 15.7,20.3 15.9,20.4 21.5,14.7 		"/>
		<polygon class="st30" points="21.5,14.7 15.9,20.4 16,20.4 21.6,14.8 		"/>
		<polygon class="st31" points="21.6,14.8 16,20.4 16.1,20.5 21.8,14.9 		"/>
		<polygon class="st32" points="21.8,14.9 16.1,20.5 16.3,20.6 21.9,15 		"/>
		<polygon class="st33" points="21.9,15 16.3,20.6 16.4,20.7 22,15 		"/>
		<polygon class="st34" points="22,15 16.4,20.7 16.5,20.7 22.1,15.1 		"/>
		<polygon class="st35" points="22.1,15.1 16.5,20.7 16.6,20.8 22.3,15.2 		"/>
		<polygon class="st36" points="22.3,15.2 16.6,20.8 16.8,20.9 22.4,15.3 		"/>
		<polygon class="st37" points="22.4,15.3 16.8,20.9 16.9,21 22.5,15.3 		"/>
		<polygon class="st38" points="22.5,15.3 16.9,21 17,21 22.7,15.4 		"/>
		<polygon class="st38" points="22.7,15.4 17,21 17.1,21.1 22.7,15.5 		"/>
		<polygon class="st38" points="22.7,15.5 17.1,21.1 17.2,21.1 22.8,15.5 		"/>
		<polygon class="st38" points="22.8,15.5 17.2,21.1 17.3,21.2 22.9,15.6 		"/>
		<polygon class="st38" points="22.9,15.6 17.3,21.2 17.4,21.3 23,15.6 		"/>
		<polygon class="st39" points="23,15.6 17.4,21.3 17.5,21.3 23.1,15.7 		"/>
		<polygon class="st39" points="23.1,15.7 17.5,21.3 17.6,21.4 23.2,15.7 		"/>
		<polygon class="st39" points="23.2,15.7 17.6,21.4 17.7,21.4 23.3,15.8 		"/>
		<polygon class="st40" points="23.3,15.8 17.7,21.4 17.8,21.5 23.4,15.8 		"/>
		<polygon class="st40" points="23.4,15.8 17.8,21.5 17.9,21.5 23.5,15.9 		"/>
		<polygon class="st40" points="23.5,15.9 17.9,21.5 18,21.6 23.6,16 		"/>
		<polygon class="st41" points="23.6,16 18,21.6 18.1,21.6 23.7,16 		"/>
		<polygon class="st41" points="23.7,16 18.1,21.6 18.1,21.7 23.8,16.1 		"/>
		<polygon class="st42" points="23.8,16.1 18.1,21.7 18.2,21.7 23.9,16.1 		"/>
		<polygon class="st43" points="23.9,16.1 18.2,21.7 18.3,21.8 24,16.2 		"/>
		<polygon class="st43" points="24,16.2 18.3,21.8 18.4,21.8 24.1,16.2 		"/>
		<polygon class="st44" points="24.1,16.2 18.4,21.8 18.5,21.9 24.1,16.3 		"/>
		<polygon class="st45" points="24.1,16.3 18.5,21.9 18.6,22 24.2,16.3 		"/>
		<polygon class="st45" points="24.2,16.3 18.6,22 18.7,22 24.3,16.4 		"/>
		<polygon class="st46" points="24.3,16.4 18.7,22 18.8,22.1 24.4,16.4 		"/>
		<polygon class="st47" points="24.4,16.4 18.8,22.1 18.9,22.1 24.5,16.5 		"/>
		<polygon class="st48" points="24.5,16.5 18.9,22.1 19,22.2 24.6,16.5 		"/>
		<polygon class="st49" points="24.6,16.5 19,22.2 19.1,22.2 24.7,16.6 		"/>
		<polygon class="st50" points="24.7,16.6 19.1,22.2 19.2,22.3 24.8,16.7 		"/>
		<polygon class="st51" points="24.8,16.7 19.2,22.3 19.3,22.3 24.9,16.7 		"/>
		<polygon class="st52" points="24.9,16.7 19.3,22.3 19.4,22.4 25,16.8 		"/>
		<polygon class="st53" points="25,16.8 19.4,22.4 19.5,22.4 25.1,16.8 		"/>
		<polygon class="st54" points="25.1,16.8 19.5,22.4 19.6,22.5 25.2,16.9 		"/>
		<polygon class="st55" points="25.2,16.9 19.6,22.5 19.6,22.5 25.3,16.9 		"/>
		<polygon class="st56" points="25.3,16.9 19.6,22.5 19.7,22.6 25.4,17 		"/>
		<polygon class="st57" points="25.4,17 19.7,22.6 19.8,22.7 25.5,17 		"/>
		<polygon class="st58" points="25.5,17 19.8,22.7 19.8,22.7 20.2,22.5 25.5,17.1 		"/>
		<polygon class="st59" points="25.5,17.1 20.2,22.5 20.5,22.3 25.6,17.1 		"/>
		<polygon class="st60" points="25.6,17.1 20.5,22.3 20.9,22.1 25.7,17.2 		"/>
		<polygon class="st61" points="25.7,17.2 20.9,22.1 21.2,21.9 25.8,17.2 		"/>
		<polygon class="st62" points="25.8,17.2 21.2,21.9 21.6,21.7 25.9,17.3 		"/>
		<polygon class="st63" points="25.9,17.3 21.6,21.7 21.9,21.5 26,17.4 		"/>
		<polygon class="st64" points="26,17.4 21.9,21.5 22.3,21.3 26.1,17.4 		"/>
		<polygon class="st65" points="26.1,17.4 22.3,21.3 22.6,21.1 26.2,17.5 		"/>
		<polygon class="st66" points="26.2,17.5 22.6,21.1 23,20.9 26.3,17.5 		"/>
		<polygon class="st67" points="26.3,17.5 23,20.9 23.3,20.7 26.4,17.6 		"/>
		<polygon class="st68" points="26.4,17.6 23.3,20.7 23.7,20.5 26.5,17.6 		"/>
		<polygon class="st69" points="26.5,17.6 23.7,20.5 24,20.3 26.6,17.7 		"/>
		<polygon class="st70" points="26.6,17.7 24,20.3 24.4,20.1 26.7,17.7 		"/>
		<polygon class="st71" points="26.7,17.7 24.4,20.1 24.7,19.8 26.8,17.8 		"/>
		<polygon class="st72" points="26.8,17.8 24.7,19.8 25.1,19.6 26.9,17.8 		"/>
		<polygon class="st73" points="26.9,17.8 25.1,19.6 25.4,19.4 27,17.9 		"/>
		<polygon class="st74" points="27,17.9 25.4,19.4 25.8,19.2 27,17.9 		"/>
		<polygon class="st75" points="27,17.9 25.8,19.2 26.1,19 27.1,18 		"/>
		<polygon class="st76" points="27.1,18 26.1,19 26.5,18.8 27.2,18.1 		"/>
		<polygon class="st77" points="27.2,18.1 26.5,18.8 26.8,18.6 27.3,18.1 		"/>
		<polygon class="st78" points="27.3,18.1 26.8,18.6 27.2,18.4 27.4,18.2 		"/>
		<polygon class="st78" points="27.2,18.4 27.5,18.2 27.4,18.2 		"/>
	</g>
	<g>
		<polygon class="st1" points="4.5,4.9 4.5,5.5 4.8,5.1 		"/>
		<polygon class="st2" points="4.8,5.1 4.5,5.5 4.5,6 5.2,5.3 		"/>
		<polygon class="st3" points="5.2,5.3 4.5,6 4.5,6.6 5.5,5.5 		"/>
		<polygon class="st4" points="5.5,5.5 4.5,6.6 4.5,7.1 5.9,5.7 		"/>
		<polygon class="st5" points="5.9,5.7 4.5,7.1 4.5,7.7 6.2,6 		"/>
		<polygon class="st6" points="6.2,6 4.5,7.7 4.5,8.2 6.6,6.2 		"/>
		<polygon class="st7" points="6.6,6.2 4.5,8.2 4.5,8.8 6.9,6.4 		"/>
		<polygon class="st8" points="6.9,6.4 4.5,8.8 4.5,9.4 7.3,6.6 		"/>
		<polygon class="st9" points="7.3,6.6 4.5,9.4 4.5,9.9 7.6,6.8 		"/>
		<polygon class="st10" points="7.6,6.8 4.5,9.9 4.5,10.5 8,7 		"/>
		<polygon class="st11" points="8,7 4.5,10.5 4.5,11 8.3,7.2 		"/>
		<polygon class="st12" points="8.3,7.2 4.5,11 4.5,11.6 8.7,7.4 		"/>
		<polygon class="st13" points="8.7,7.4 4.5,11.6 4.5,12.1 9,7.6 		"/>
		<polygon class="st14" points="9,7.6 4.5,12.1 4.5,12.7 9.4,7.8 		"/>
		<polygon class="st15" points="9.4,7.8 4.5,12.7 4.5,13.2 9.7,8 		"/>
		<polygon class="st16" points="9.7,8 4.5,13.2 4.5,13.8 10.1,8.2 		"/>
		<polygon class="st17" points="10.1,8.2 4.5,13.8 4.5,14.3 10.4,8.4 		"/>
		<polygon class="st18" points="10.4,8.4 4.5,14.3 4.5,14.9 10.8,8.6 		"/>
		<polygon class="st19" points="10.8,8.6 4.5,14.9 4.5,15.4 11.1,8.8 		"/>
		<polygon class="st20" points="11.1,8.8 4.5,15.4 4.5,16 11.5,9 		"/>
		<polygon class="st21" points="11.5,9 4.5,16 4.5,16.5 11.8,9.2 		"/>
		<polygon class="st22" points="12.2,9.4 11.8,9.2 4.5,16.5 4.5,17.1 12.2,9.4 		"/>
		<polygon class="st23" points="12.2,9.4 4.5,17.1 4.5,17.6 12.2,9.9 		"/>
		<polygon class="st24" points="12.2,9.9 4.5,17.6 4.5,18.2 12.2,10.5 		"/>
		<polygon class="st25" points="12.2,10.5 4.5,18.2 4.5,18.7 12.2,11.1 		"/>
		<polygon class="st26" points="12.2,11.1 4.5,18.7 4.5,19.3 12.2,11.6 		"/>
		<polygon class="st27" points="12.2,11.6 4.5,19.3 4.5,19.8 12.2,12.2 		"/>
		<polygon class="st28" points="12.2,12.2 4.5,19.8 4.5,20.4 12.2,12.7 		"/>
		<polygon class="st29" points="12.2,12.7 4.5,20.4 4.5,20.9 12.2,13.3 		"/>
		<polygon class="st30" points="12.2,13.3 4.5,20.9 4.5,21.5 12.2,13.8 		"/>
		<polygon class="st31" points="12.2,13.8 4.5,21.5 4.5,22 12.2,14.4 		"/>
		<polygon class="st32" points="12.2,14.4 4.5,22 4.5,22.6 12.2,14.9 		"/>
		<polygon class="st33" points="12.2,14.9 4.5,22.6 4.5,22.6 4.8,22.8 12.2,15.5 		"/>
		<polygon class="st34" points="12.2,15.5 4.8,22.8 5.2,23 12.2,16 		"/>
		<polygon class="st35" points="12.2,16 5.2,23 5.5,23.2 12.2,16.6 		"/>
		<polygon class="st36" points="12.2,16.6 5.5,23.2 5.9,23.4 12.2,17.1 		"/>
		<polygon class="st37" points="12.2,17.1 5.9,23.4 6.2,23.6 12.2,17.7 		"/>
		<polygon class="st38" points="12.2,18.2 12.2,18.2 12.2,17.7 6.2,23.6 6.6,23.8 12.2,18.2 		"/>
		<polygon class="st38" points="12.2,18.2 12.2,18.2 6.6,23.8 6.8,24 12.4,18.4 		"/>
		<polygon class="st38" points="12.4,18.4 6.8,24 7.1,24.1 12.7,18.5 		"/>
		<polygon class="st38" points="12.7,18.5 7.1,24.1 7.3,24.3 12.9,18.7 		"/>
		<polygon class="st38" points="12.9,18.7 7.3,24.3 7.6,24.4 13.2,18.8 		"/>
		<polygon class="st39" points="13.2,18.8 7.6,24.4 7.8,24.6 13.4,19 		"/>
		<polygon class="st39" points="13.4,19 7.8,24.6 8.1,24.7 13.7,19.1 		"/>
		<polygon class="st39" points="13.7,19.1 8.1,24.7 8.3,24.9 13.9,19.3 		"/>
		<polygon class="st40" points="13.9,19.3 8.3,24.9 8.6,25 14.2,19.4 		"/>
		<polygon class="st40" points="14.2,19.4 8.6,25 8.9,25.1 14.5,19.5 		"/>
		<polygon class="st40" points="14.5,19.5 8.9,25.1 9.1,25.3 14.7,19.7 		"/>
		<polygon class="st41" points="14.7,19.7 9.1,25.3 9.4,25.4 15,19.8 		"/>
		<polygon class="st41" points="15,19.8 9.4,25.4 9.6,25.6 15.2,20 		"/>
		<polygon class="st42" points="15.2,20 9.6,25.6 9.9,25.7 15.5,20.1 		"/>
		<polygon class="st43" points="15.5,20.1 9.9,25.7 10.1,25.9 15.7,20.3 		"/>
		<polygon class="st43" points="15.7,20.3 10.1,25.9 10.4,26 16,20.4 		"/>
		<polygon class="st44" points="16,20.4 10.4,26 10.6,26.2 16.2,20.6 		"/>
		<polygon class="st45" points="16.2,20.6 10.6,26.2 10.9,26.3 16.5,20.7 		"/>
		<polygon class="st45" points="16.5,20.7 10.9,26.3 11.2,26.5 16.8,20.9 		"/>
		<polygon class="st46" points="16.8,20.9 11.2,26.5 11.4,26.6 17,21 		"/>
		<polygon class="st47" points="17,21 11.4,26.6 11.7,26.8 17.3,21.2 		"/>
		<polygon class="st48" points="17.3,21.2 11.7,26.8 11.9,26.9 17.5,21.3 		"/>
		<polygon class="st49" points="17.5,21.3 11.9,26.9 12.2,27.1 17.8,21.5 		"/>
		<polygon class="st50" points="17.8,21.5 12.2,27.1 12.4,27.2 18,21.6 		"/>
		<polygon class="st51" points="18,21.6 12.4,27.2 12.7,27.4 18.3,21.8 		"/>
		<polygon class="st52" points="18.3,21.8 12.7,27.4 12.9,27.5 18.5,21.9 		"/>
		<polygon class="st53" points="18.5,21.9 12.9,27.5 13.2,27.7 18.8,22.1 		"/>
		<polygon class="st54" points="18.8,22.1 13.2,27.7 13.4,27.8 19,22.2 		"/>
		<polygon class="st55" points="19,22.2 13.4,27.8 13.7,28 19.3,22.4 		"/>
		<polygon class="st56" points="19.3,22.4 13.7,28 14,28.1 19.6,22.5 		"/>
		<polygon class="st57" points="19.6,22.5 14,28.1 14.2,28.2 19.8,22.6 		"/>
		<polygon class="st58" points="14.2,28.2 14.5,28.4 19.8,23 19.8,22.7 19.8,22.6 		"/>
		<polygon class="st59" points="14.7,28.5 19.8,23.4 19.8,23 14.5,28.4 		"/>
		<polygon class="st60" points="15,28.7 19.8,23.8 19.8,23.4 14.7,28.5 		"/>
		<polygon class="st61" points="15.2,28.8 19.8,24.2 19.8,23.8 15,28.7 		"/>
		<polygon class="st62" points="15.5,29 19.8,24.6 19.8,24.2 15.2,28.8 		"/>
		<polygon class="st63" points="15.7,29.1 19.8,25 19.8,24.6 15.5,29 		"/>
		<polygon class="st64" points="16,29.3 19.8,25.4 19.8,25 15.7,29.1 		"/>
		<polygon class="st65" points="16.3,29.4 19.8,25.8 19.8,25.4 16,29.3 		"/>
		<polygon class="st66" points="16.5,29.6 19.8,26.2 19.8,25.8 16.3,29.4 		"/>
		<polygon class="st67" points="16.8,29.7 19.8,26.6 19.8,26.2 16.5,29.6 		"/>
		<polygon class="st68" points="17,29.9 19.8,27.1 19.8,26.6 16.8,29.7 		"/>
		<polygon class="st69" points="17.3,30 19.8,27.5 19.8,27.1 17,29.9 		"/>
		<polygon class="st70" points="17.5,30.2 19.8,27.9 19.8,27.5 17.3,30 		"/>
		<polygon class="st71" points="17.8,30.3 19.8,28.3 19.8,27.9 17.5,30.2 		"/>
		<polygon class="st72" points="18,30.5 19.8,28.7 19.8,28.3 17.8,30.3 		"/>
		<polygon class="st73" points="18.3,30.6 19.8,29.1 19.8,28.7 18,30.5 		"/>
		<polygon class="st74" points="18.6,30.8 19.8,29.5 19.8,29.1 18.3,30.6 		"/>
		<polygon class="st75" points="18.8,30.9 19.8,29.9 19.8,29.5 18.6,30.8 		"/>
		<polygon class="st76" points="19.1,31.1 19.8,30.3 19.8,29.9 18.8,30.9 		"/>
		<polygon class="st77" points="19.3,31.2 19.8,30.7 19.8,30.3 19.1,31.1 		"/>
		<polygon class="st78" points="19.6,31.3 19.8,31.1 19.8,30.7 19.3,31.2 		"/>
		<polygon class="st78" points="19.8,31.5 19.8,31.1 19.6,31.3 		"/>
	</g>
	<g>
		<polygon class="st79" points="4.5,4.9 4.6,5 5,4.6 		"/>
		<polygon class="st79" points="5,4.6 4.6,5 4.8,5.1 5.6,4.3 		"/>
		<polygon class="st79" points="5.6,4.3 4.8,5.1 4.9,5.2 6.2,4 		"/>
		<polygon class="st80" points="6.2,4 4.9,5.2 5.1,5.3 6.7,3.6 		"/>
		<polygon class="st80" points="6.7,3.6 5.1,5.3 5.2,5.4 7.3,3.3 		"/>
		<polygon class="st80" points="7.3,3.3 5.2,5.4 5.4,5.5 7.9,3 		"/>
		<polygon class="st81" points="7.9,3 5.4,5.5 5.5,5.5 8.4,2.7 		"/>
		<polygon class="st81" points="8.4,2.7 5.5,5.5 5.7,5.6 9,2.3 		"/>
		<polygon class="st82" points="9,2.3 5.7,5.6 5.8,5.7 9.5,2 		"/>
		<polygon class="st83" points="9.5,2 5.8,5.7 6,5.8 10.1,1.7 		"/>
		<polygon class="st83" points="10.1,1.7 6,5.8 6.1,5.9 10.7,1.4 		"/>
		<polygon class="st84" points="10.7,1.4 6.1,5.9 6.3,6 11.2,1 		"/>
		<polygon class="st84" points="11.2,1 6.3,6 6.4,6.1 11.8,0.7 		"/>
		<polygon class="st85" points="12.1,0.5 11.8,0.7 6.4,6.1 6.6,6.2 12.2,0.5 		"/>
		<polygon class="st86" points="12.2,0.5 6.6,6.2 6.7,6.2 12.3,0.6 		"/>
		<polygon class="st87" points="12.3,0.6 6.7,6.2 6.9,6.3 12.5,0.7 		"/>
		<polygon class="st87" points="12.5,0.7 6.9,6.3 7,6.4 12.6,0.8 		"/>
		<polygon class="st88" points="12.6,0.8 7,6.4 7.2,6.5 12.8,0.9 		"/>
		<polygon class="st89" points="12.8,0.9 7.2,6.5 7.3,6.6 12.9,1 		"/>
		<polygon class="st90" points="12.9,1 7.3,6.6 7.5,6.7 13.1,1 		"/>
		<polygon class="st91" points="13.1,1 7.5,6.7 7.6,6.8 13.2,1.1 		"/>
		<polygon class="st91" points="13.2,1.1 7.6,6.8 7.8,6.8 13.4,1.2 		"/>
		<polygon class="st1" points="13.4,1.2 7.8,6.8 7.9,6.9 13.5,1.3 		"/>
		<polygon class="st2" points="13.5,1.3 7.9,6.9 8.1,7 13.7,1.4 		"/>
		<polygon class="st3" points="13.7,1.4 8.1,7 8.2,7.1 13.8,1.5 		"/>
		<polygon class="st4" points="13.8,1.5 8.2,7.1 8.4,7.2 14,1.6 		"/>
		<polygon class="st5" points="14,1.6 8.4,7.2 8.5,7.3 14.1,1.7 		"/>
		<polygon class="st6" points="14.1,1.7 8.5,7.3 8.7,7.4 14.3,1.7 		"/>
		<polygon class="st7" points="14.3,1.7 8.7,7.4 8.8,7.5 14.4,1.8 		"/>
		<polygon class="st8" points="14.4,1.8 8.8,7.5 9,7.5 14.6,1.9 		"/>
		<polygon class="st9" points="14.6,1.9 9,7.5 9.1,7.6 14.7,2 		"/>
		<polygon class="st10" points="14.7,2 9.1,7.6 9.3,7.7 14.9,2.1 		"/>
		<polygon class="st11" points="14.9,2.1 9.3,7.7 9.4,7.8 15,2.2 		"/>
		<polygon class="st12" points="15,2.2 9.4,7.8 9.6,7.9 15.2,2.3 		"/>
		<polygon class="st13" points="15.2,2.3 9.6,7.9 9.7,8 15.3,2.3 		"/>
		<polygon class="st14" points="15.3,2.3 9.7,8 9.9,8.1 15.5,2.4 		"/>
		<polygon class="st16" points="15.5,2.4 9.9,8.1 10,8.1 15.6,2.5 		"/>
		<polygon class="st17" points="15.6,2.5 10,8.1 10.2,8.2 15.8,2.6 		"/>
		<polygon class="st18" points="15.8,2.6 10.2,8.2 10.3,8.3 15.9,2.7 		"/>
		<polygon class="st19" points="15.9,2.7 10.3,8.3 10.5,8.4 16.1,2.8 		"/>
		<polygon class="st92" points="16.1,2.8 10.5,8.4 10.6,8.5 16.2,2.9 		"/>
		<polygon class="st21" points="16.2,2.9 10.6,8.5 10.8,8.6 16.4,3 		"/>
		<polygon class="st22" points="16.4,3 10.8,8.6 10.9,8.7 16.5,3 		"/>
		<polygon class="st23" points="16.5,3 10.9,8.7 11.1,8.7 16.7,3.1 		"/>
		<polygon class="st24" points="16.7,3.1 11.1,8.7 11.2,8.8 16.8,3.2 		"/>
		<polygon class="st25" points="16.8,3.2 11.2,8.8 11.4,8.9 17,3.3 		"/>
		<polygon class="st27" points="17,3.3 11.4,8.9 11.5,9 17.1,3.4 		"/>
		<polygon class="st28" points="17.1,3.4 11.5,9 11.7,9.1 17.3,3.5 		"/>
		<polygon class="st29" points="17.3,3.5 11.7,9.1 11.8,9.2 17.4,3.6 		"/>
		<polygon class="st31" points="17.4,3.6 11.8,9.2 12,9.3 17.6,3.6 		"/>
		<polygon class="st32" points="17.6,3.6 12,9.3 12.1,9.4 17.7,3.7 		"/>
		<polygon class="st33" points="17.7,3.7 12.1,9.4 12.2,9.4 12.6,9.2 17.9,3.8 		"/>
		<polygon class="st35" points="17.9,3.8 12.6,9.2 13.1,8.8 18,3.9 		"/>
		<polygon class="st36" points="18,3.9 13.1,8.8 13.7,8.5 18.2,4 		"/>
		<polygon class="st37" points="18.2,4 13.7,8.5 14.2,8.2 18.3,4.1 		"/>
		<polygon class="st39" points="18.3,4.1 14.2,8.2 14.8,7.9 18.5,4.2 		"/>
		<polygon class="st40" points="18.5,4.2 14.8,7.9 15.4,7.5 18.6,4.2 		"/>
		<polygon class="st42" points="18.6,4.2 15.4,7.5 15.9,7.2 18.8,4.3 		"/>
		<polygon class="st43" points="18.8,4.3 15.9,7.2 16.5,6.9 18.9,4.4 		"/>
		<polygon class="st45" points="18.9,4.4 16.5,6.9 17,6.6 19.1,4.5 		"/>
		<polygon class="st46" points="19.1,4.5 17,6.6 17.6,6.2 19.2,4.6 		"/>
		<polygon class="st48" points="19.2,4.6 17.6,6.2 18.2,5.9 19.4,4.7 		"/>
		<polygon class="st49" points="19.4,4.7 18.2,5.9 18.7,5.6 19.5,4.8 		"/>
		<polygon class="st50" points="19.5,4.8 18.7,5.6 19.3,5.3 19.7,4.9 		"/>
		<polygon class="st52" points="19.3,5.3 19.8,4.9 19.7,4.9 		"/>
	</g>
	<polygon class="st93" points="27.8,18.7 27.3,17.8 19.8,22.1 13.2,18.2 20.1,14.2 19.6,13.3 12.7,17.4 12.7,9.7 20.1,5.4 19.6,4.5 
		12.2,8.8 4.7,4.5 4.2,5.4 11.7,9.7 11.7,17.4 4.7,13.3 4.2,14.2 11.7,18.5 11.7,27.1 12.7,27.1 12.7,19.1 19.3,22.9 19.3,31.5 
		20.3,31.5 20.3,22.9 	"/>
	<g>
		<path class="st94" d="M19.8,32c-0.1,0-0.2,0-0.3-0.1L4.2,23.1C4.1,23,4,22.8,4,22.6V4.9c0-0.2,0.1-0.3,0.2-0.4l7.7-4.4
			c0.2-0.1,0.3-0.1,0.5,0l7.7,4.4c0.2,0.1,0.3,0.3,0.3,0.4l0,8.6l7.4,4.3c0.2,0.1,0.3,0.3,0.3,0.4v8.8c0,0.2-0.1,0.3-0.3,0.4
			l-7.7,4.4C20,32,19.9,32,19.8,32z M5,22.3l14.9,8.6l7.2-4.2v-8.3l-7.4-4.3c-0.2-0.1-0.3-0.3-0.3-0.4l0-8.6l-7.2-4.2L5,5.2V22.3z"
			/>
	</g>
</g>
<g>
	<rect class="st95" width="32" height="32"/>
</g>
</svg>
