<?xml version="1.0" encoding="utf-8"?>
<!-- Generator: Adobe Illustrator 19.2.1, SVG Export Plug-In . SVG Version: 6.00 Build 0)  -->
<svg version="1.1" id="Layer_1" xmlns="http://www.w3.org/2000/svg" xmlns:xlink="http://www.w3.org/1999/xlink" x="0px" y="0px"
	 viewBox="0 0 32 32" style="enable-background:new 0 0 32 32;" xml:space="preserve">
<style type="text/css">
	.st0{fill:#CDE6EB;}
	.st1{fill:#CCE6EB;}
	.st2{fill:#CCE5EB;}
	.st3{fill:#CCE5EA;}
	.st4{fill:#CBE5EA;}
	.st5{fill:#CAE4EA;}
	.st6{fill:#C9E4EA;}
	.st7{fill:#C9E4E9;}
	.st8{fill:#C8E3E9;}
	.st9{fill:#C7E3E9;}
	.st10{fill:#C6E2E8;}
	.st11{fill:#C5E2E8;}
	.st12{fill:#C4E1E8;}
	.st13{fill:#C3E1E7;}
	.st14{fill:#C2E0E7;}
	.st15{fill:#C1E0E7;}
	.st16{fill:#C1DFE6;}
	.st17{fill:#C0DFE6;}
	.st18{fill:#BFDEE6;}
	.st19{fill:#BEDEE5;}
	.st20{fill:#BDDDE5;}
	.st21{fill:#BCDDE4;}
	.st22{fill:#BBDCE4;}
	.st23{fill:#BADCE4;}
	.st24{fill:#B9DBE3;}
	.st25{fill:#B8DBE3;}
	.st26{fill:#B7DAE2;}
	.st27{fill:#B6DAE2;}
	.st28{fill:#B5D9E2;}
	.st29{fill:#B4D8E1;}
	.st30{fill:#B2D8E1;}
	.st31{fill:#B1D7E0;}
	.st32{fill:#B0D6E0;}
	.st33{fill:#AFD6DF;}
	.st34{fill:#AED5DF;}
	.st35{fill:#ADD5DF;}
	.st36{fill:#ABD4DE;}
	.st37{fill:#AAD3DE;}
	.st38{fill:#A9D3DD;}
	.st39{fill:#A8D2DD;}
	.st40{fill:#A6D1DC;}
	.st41{fill:#A5D1DC;}
	.st42{fill:#A4D0DB;}
	.st43{fill:#A3CFDB;}
	.st44{fill:#A1CEDA;}
	.st45{fill:#A0CEDA;}
	.st46{fill:#9FCDD9;}
	.st47{fill:#9DCCD9;}
	.st48{fill:#9CCCD8;}
	.st49{fill:#9BCBD8;}
	.st50{fill:#99CAD7;}
	.st51{fill:#98C9D6;}
	.st52{fill:#96C9D6;}
	.st53{fill:#95C8D5;}
	.st54{fill:#93C7D5;}
	.st55{fill:#92C6D4;}
	.st56{fill:#90C5D4;}
	.st57{fill:#8FC5D3;}
	.st58{fill:#8EC4D3;}
	.st59{fill:#8CC3D2;}
	.st60{fill:#AFD7E1;}
	.st61{fill:#AED6E0;}
	.st62{fill:#ADD6E0;}
	.st63{fill:#ABD5DF;}
	.st64{fill:#AAD4DF;}
	.st65{fill:#A9D3DE;}
	.st66{fill:#A8D3DE;}
	.st67{fill:#A6D2DD;}
	.st68{fill:#A5D1DD;}
	.st69{fill:#A4D1DC;}
	.st70{fill:#A3D0DC;}
	.st71{fill:#A2CFDB;}
	.st72{fill:#A0CEDB;}
	.st73{fill:#9FCEDA;}
	.st74{fill:#9ECDDA;}
	.st75{fill:#9CCCD9;}
	.st76{fill:#99CAD8;}
	.st77{fill:#98CAD8;}
	.st78{fill:#97C9D7;}
	.st79{fill:#96C8D7;}
	.st80{fill:#95C8D6;}
	.st81{fill:#94C7D6;}
	.st82{fill:#93C6D5;}
	.st83{fill:#92C6D5;}
	.st84{fill:#8FC5D4;}
	.st85{fill:#8DC3D3;}
	.st86{fill:#8BC2D2;}
	.st87{fill:#8AC1D2;}
	.st88{fill:#89C1D1;}
	.st89{fill:#88C0D1;}
	.st90{fill:#87C0D0;}
	.st91{fill:#86BFD0;}
	.st92{fill:#85BECF;}
	.st93{fill:#84BECF;}
	.st94{fill:#83BDCF;}
	.st95{fill:#82BDCE;}
	.st96{fill:#81BCCE;}
	.st97{fill:#80BCCD;}
	.st98{fill:#7FBBCD;}
	.st99{fill:#7EBBCD;}
	.st100{fill:#7DBACC;}
	.st101{fill:#7CB9CC;}
	.st102{fill:#7BB8CB;}
	.st103{fill:#7AB8CB;}
	.st104{fill:#79B7CA;}
	.st105{fill:#78B7CA;}
	.st106{fill:#77B7CA;}
	.st107{fill:#77B6CA;}
	.st108{fill:#76B6C9;}
	.st109{fill:#75B5C9;}
	.st110{fill:#74B5C8;}
	.st111{fill:#73B4C8;}
	.st112{fill:#3C91AF;}
	.st113{fill:#147391;}
	.st114{fill:#464646;}
	.st115{fill:none;}
</style>
<metadata><?xpacket begin="﻿" id="W5M0MpCehiHzreSzNTczkc9d"?>
<x:xmpmeta xmlns:x="adobe:ns:meta/" x:xmptk="Adobe XMP Core 5.6-c111 79.158366, 2015/09/25-01:12:00        ">
   <rdf:RDF xmlns:rdf="http://www.w3.org/1999/02/22-rdf-syntax-ns#">
      <rdf:Description rdf:about=""
            xmlns:dc="http://purl.org/dc/elements/1.1/"
            xmlns:xmp="http://ns.adobe.com/xap/1.0/"
            xmlns:xmpGImg="http://ns.adobe.com/xap/1.0/g/img/"
            xmlns:xmpMM="http://ns.adobe.com/xap/1.0/mm/"
            xmlns:stRef="http://ns.adobe.com/xap/1.0/sType/ResourceRef#"
            xmlns:stEvt="http://ns.adobe.com/xap/1.0/sType/ResourceEvent#"
            xmlns:illustrator="http://ns.adobe.com/illustrator/1.0/"
            xmlns:xmpTPg="http://ns.adobe.com/xap/1.0/t/pg/"
            xmlns:stDim="http://ns.adobe.com/xap/1.0/sType/Dimensions#"
            xmlns:xmpG="http://ns.adobe.com/xap/1.0/g/"
            xmlns:pdf="http://ns.adobe.com/pdf/1.3/">
         <dc:format>image/svg+xml</dc:format>
         <dc:title>
            <rdf:Alt>
               <rdf:li xml:lang="x-default">Parts32 copy</rdf:li>
            </rdf:Alt>
         </dc:title>
         <xmp:CreatorTool>Adobe Illustrator CC 2015 (Windows)</xmp:CreatorTool>
         <xmp:CreateDate>2016-03-16T16:55:18-07:00</xmp:CreateDate>
         <xmp:ModifyDate>2016-03-16T16:55:18-07:00</xmp:ModifyDate>
         <xmp:MetadataDate>2016-03-16T16:55:18-07:00</xmp:MetadataDate>
         <xmp:Thumbnails>
            <rdf:Alt>
               <rdf:li rdf:parseType="Resource">
                  <xmpGImg:width>256</xmpGImg:width>
                  <xmpGImg:height>256</xmpGImg:height>
                  <xmpGImg:format>JPEG</xmpGImg:format>
                  <xmpGImg:image>/9j/4AAQSkZJRgABAgEASABIAAD/7QAsUGhvdG9zaG9wIDMuMAA4QklNA+0AAAAAABAASAAAAAEA&#xA;AQBIAAAAAQAB/+4ADkFkb2JlAGTAAAAAAf/bAIQABgQEBAUEBgUFBgkGBQYJCwgGBggLDAoKCwoK&#xA;DBAMDAwMDAwQDA4PEA8ODBMTFBQTExwbGxscHx8fHx8fHx8fHwEHBwcNDA0YEBAYGhURFRofHx8f&#xA;Hx8fHx8fHx8fHx8fHx8fHx8fHx8fHx8fHx8fHx8fHx8fHx8fHx8fHx8fHx8f/8AAEQgBAAEAAwER&#xA;AAIRAQMRAf/EAaIAAAAHAQEBAQEAAAAAAAAAAAQFAwIGAQAHCAkKCwEAAgIDAQEBAQEAAAAAAAAA&#xA;AQACAwQFBgcICQoLEAACAQMDAgQCBgcDBAIGAnMBAgMRBAAFIRIxQVEGE2EicYEUMpGhBxWxQiPB&#xA;UtHhMxZi8CRygvElQzRTkqKyY3PCNUQnk6OzNhdUZHTD0uIIJoMJChgZhJRFRqS0VtNVKBry4/PE&#xA;1OT0ZXWFlaW1xdXl9WZ2hpamtsbW5vY3R1dnd4eXp7fH1+f3OEhYaHiImKi4yNjo+Ck5SVlpeYmZ&#xA;qbnJ2en5KjpKWmp6ipqqusra6voRAAICAQIDBQUEBQYECAMDbQEAAhEDBCESMUEFURNhIgZxgZEy&#xA;obHwFMHR4SNCFVJicvEzJDRDghaSUyWiY7LCB3PSNeJEgxdUkwgJChgZJjZFGidkdFU38qOzwygp&#xA;0+PzhJSktMTU5PRldYWVpbXF1eX1RlZmdoaWprbG1ub2R1dnd4eXp7fH1+f3OEhYaHiImKi4yNjo&#xA;+DlJWWl5iZmpucnZ6fkqOkpaanqKmqq6ytrq+v/aAAwDAQACEQMRAD8A9U4q7FXYq7FXYq7FXYq7&#xA;FXYq7FXYq7FXYq7FWBeefzn8n+VfUtvV/SWrJt9QtmB4t4Sy7rH8t29sVfPfnf8ANzzh5tLw3Nx9&#xA;T0tieOnWxKRlfCRvtSf7LbwAxVOvy+/PfzJ5b9Ox1Utq+jrQBZGrcRL/AMVyN9oAfst9BXFX0X5U&#xA;86eW/NViLzRbxZwAPWgPwzRE9pIzuPn0PY4qnmKuxV2KuxV2KuxV2KuxV2KuxV2KuxV2KuxV2Kux&#xA;V2KuxV2KuxV2KuxV2KuxV2KuxVifnX80PKPlGNl1K69W/pVNOt6STmvTktQEHu5Htir5888/np5u&#xA;8yGS1s3/AEPpTVH1e2Y+q6n/AH7Nsx+S0HjXFWG+X/K2veYLr6vpVo9wQQJJfsxx17u5+Ff1+GEC&#xA;2MpAc3sflP8AI/RrFVuNef8ASN1T/edCVt1P4O/00Htlgg488xPJIfOn5Hzwepe+WWM0IqzadIf3&#xA;ij/ipz9r/Vbf3OCUO5lDN3vNLHUNb8v6oLizmn07UrZuJZS0cikdVYHt4qcrch7x+X3/ADkXZ3fp&#xA;af5vRbW4NFTVIl/cselZUG8Z91+H2UYq9rt7m3uYEuLaVJoJQGjljYOjKehVhUEYqqYq7FXYq7FX&#xA;Yq7FXYq7FXYq7FXYq7FXYq7FXYq7FXYq7FXYq7FXYq7FUh81+efK/lW19fWr5IGYVitl+OeT/UjH&#xA;xH59PE4q8B88/wDOQ3mPWfUs/L6nRtPaqmYENdOp/wAsbRf7Df8AysVeaabpWs65f+hY28t9eSnk&#xA;/GrGrHdnY7AeLMcICCQOb1vyj+RNvFwuvM03rP1/R8BIQe0koox+S0+ZywQ72iebueq2VjZWNslr&#xA;ZQR21tGKJDEoRR9AydOOTasThQtJwoY55s8ieXvM0JF/DwulFIr2Kiyr4VP7S+zZExBZwyGLwzzj&#xA;+WnmDy0zTOn1zTQfhvYQaAf8WLuUP4e+UygQ5cMok7yN+Z/mrydOP0fcetp5NZtNnJaBq9SorVG/&#xA;yl+muRbH0l5B/N3yr5wRIIZfqOr0+PTrhgGJ7+k2wkHy38QMVZvirsVdirsVdirsVdirsVdirsVd&#xA;irsVdirsVdirsVdirsVdiqWa/wCZdB8vWJvtZvY7K26K0h+JiN+KIKs59lGKvCfPP/OSGoXfqWXl&#xA;OA2VuaqdRuAGnbtWOPdU+Zqflirx8nWdc1MljPqWp3TbklpppG9yascUE09O8o/kTdzhLvzLMbaI&#xA;7iwgIMp/4ySbqvyWvzGWCHe0yzdz1/R9D0jRrQWmmWsdpAOqxihYjuzdWPuTlgFOOZE80YThQ0Ti&#xA;haThQ0Tiq0nFVjhWUqwBUihU7gg9sUPNfOX5N6XqXqXmhldPvT8TW/8Ax7ufYD+7Py29shLH3N8M&#xA;5HN45quj6zoV/wDV7+CS0uozyjJ2rxOzo42Ir3BykinKjIHk9R/L7/nIXWNK9LT/ADOr6np4oq3q&#xA;73cY/wAokgSj5/F7npgZPoTQfMeieYNPS/0e8jvLV/2ozup/ldT8SN7MK4qmOKuxV2KuxV2KuxV2&#xA;KuxV2KuxV2KuxV2KuxV2KoXU9V03S7N73UrqKztI/tzzOEQe1W7nsMVeJ+ef+ckoUEln5Qt/VfdT&#xA;qlypCj3ihO5+b0/1Tirw/VdY1zzBqZutRuZtQv5iFDOS7GvRUUdB4KoxVnnlH8j9b1Lhda450uzO&#xA;4goDcsP9U7R/7Lf/ACcmINMswHJ7N5d8p6B5dtvQ0q0WDkKSSn4pX/13PxH5dMsApx5SJ5ptkmK0&#xA;nFWicULScKGicVWk4qtJwoWk4oWk4ql+s6JpWs2bWepWyXMB6Bhup8UYbqfcYkWmMiNw8a84fk9q&#xA;emmS70Qtf2Q+I25/3oQewH94Plv7ZTLGRycvHqAebD/L/mbzB5a1EXukXclldIaSBfsuAfsyIfhY&#xA;ezDKnIfQv5ff85BaHrXpWHmIJpOptRVuK0tJD/rMSYj7Nt/lYq9bVlZQykMrCoI3BBxVvFXYq7FX&#xA;Yq7FXYq7FXYq7FXYq7FVO4uLe2hee4lSGCMFpJZGCoqjqWY0AGKvIPPH/ORmiab6ln5YiGq3gqPr&#xA;knJbVD7D4Xl+ig9zirwXzL5v8yeZr361rV9JdvU+nETSKOvaONaKv0DFWSeUPyd8y66Eubxf0Xpz&#xA;UIlmWsrj/Ii2P0tQfPJCNtcsoD2vyt5A8s+WYx+j7YPdUo97NR5j4/FQcR7KAMtEacaUyWQ4WDWF&#xA;VpOKtE4oWk4UNE4qtJxVaThQtJxQtJxVaThQsJxQtJwqxPzd+Xeg+YlaZk+qaiR8N5EBUn/ixdg/&#xA;6/fISxgtmPMY+54t5n8la75dmpew87Umkd5FVom8N/2T7HMeUCHOx5RLkn3kD84/NPlFktg/6R0c&#xA;bHT52PwD/il9zH8t19si2PpLyT+ZHlbzhbc9LueN2orNp81EuE8TxqeS/wCUtRirKMVdirsVdirs&#xA;VdirsVdirmYKCzGgG5J6AYq8v88/n75V0D1LTSSNa1NdqQsPqyHp8cwryp4JX5jFXz95x/MXzZ5t&#xA;nL6veE2wblFYxfu7dPCiA7kfzMSffFUT5R/LDzR5kKTRQ/U9OahN9cAqhU/77X7T/Rt75IRJYSyA&#xA;PbfKH5W+V/LfCdIvruorv9duACyn/itPsp+v3ywRAceWQll5OSa2sUNYVWk4q0TihaThQ0Tiq0nF&#xA;VpOFC0nFC0nFVpOFCwnFC0nCq0nFCwnChRuIYbiF4J41lhkHGSNwGVgexB2ONIunmXm38oIJi935&#xA;eYQyGpawkPwH/jG5+z8jt7jKZYe5y8Wq6SeYMmr6LqQr62n6jbNyRgWilRuzKwofpGUEU5okCLD2&#xA;j8vv+cjJofS0/wA4oZohRU1aFfjH/GaMfa/1k39j1wJe86bqmnapZR3unXMd3aTCsc8LB1P0jv4j&#xA;FUTirsVdirsVdirsVfIX5gfmv5v8z3NxZ3Nz9U0tZGRdPtqpGygkD1DXlJ/sjTwAxVjflvy3qHmD&#xA;U4tPsmijllNA88ixr9Fd2P8AkqCcnHHIiwNmqeeETRO/c938ofk15a0Phc34Gq6gu4eZf3KH/Ii3&#xA;Bp4tXx2yQg1Syks/AAFBsB0GTamicVaxQ1hVaTirROKFpOFDROKrScVWk4ULScULScVWk4ULCcUL&#xA;ScKrScULCcKFpOKFhOFCwn7sVSnX/Lej67behqNuJKf3cw2lQn+Vhv8AR0wSiDzZQyGJ2eQea/yz&#xA;1jRi9xZ1v9PFT6iD94g6/Gg7D+YbfLMaeIhz8WpjLY7FLfKHnrzN5SvfrOjXZjRiDNaPV4Jf+Mkd&#xA;afSKMOxypyX0d+X354+WfNHp2V8RpOstQfV5WHoyt/xVKabn+VqHwrir0nFXYq7FXYq7FXwhqH+9&#xA;9z/xlf8A4kcVT290nUdMMSXkDQl0V4mP2WUioZWGxzf4pAxFPG6iMhM33s28o/m5q2l8LXV+Wo2I&#xA;2EhP+kIPZj9v5N9+U5dKJbjYuRg18o7S3H2vYdG1/SdatBd6bcrcRdGA2ZD/ACup+JT88wJwMTRd&#xA;vjyxmLiUdkWbWFVpOKtE4oWk4UNE4qtJxVaThQtJxQtJxVaThQsJxQtJwqtJxQsJwoWk4oWE4ULC&#xA;fuxVaThQsJ7DFCwnChhfmz8udF1VZLu2K6fe0LNKopE56/vF/wCNh+OVTwiXLm5GLVGHPcPHb+yl&#xA;srmS3kZJDGxX1YmDxtTurDqMx54pR5hz8OeGQek29a/Jf82fNUev6d5Yvpf0jpt5IIYmnJM0Gxpw&#xA;k3JXb7LV9qZW3PpTFXYq7FXYq+ENQ/3vuf8AjK//ABI4q+lIdOsdR0C0tb6BZ4GgiqjjvwG4PUH3&#xA;GZ0JEbh02WAlYLzzzP8Aldd2vO50Ym5gG7Wrf3qj/JP7f6/nmbj1APN1mbRkbx3Ydp2qaro98Lmy&#xA;mktLuI0JGx2O6up2I8QRl0oiQ3cWE5QNjYvWvKX5v2F7wtNeC2V10W7X+4c/5Vf7s/h8swsulI3i&#xA;7XBrxLaexeiLIjorowZGAKsDUEHcEEdsxHYW4nFVpOFDROKrScVWk4ULScULScVWk4ULCcULScKr&#xA;ScULCcKFpOKFhOFCwn7sVWk4ULCewxQsJwoYxr/nzR9M5RQt9cuxt6UZ+FT/AJT7j7q5bDCS42TU&#xA;Rj5l51rfmrWNYYi5l4W/a2jqsf0j9r6cyo4xFwcmaUuaTXNtM1jLKEPpoASx6dQNsq1X92XI7Ovx&#xA;opr+Un/kyfL/APzFL/xE5pHrH2RirsVdirsVfCGof733P/GV/wDiRxV9N6Sf9xVl/wAYIv8AiAzN&#xA;HJ1EuZRJP9gyTBIPMfk3R9cQvOno3gFFu4xRvYMOjj5/RTLIZTFoy4Iz583lXmLydrGhuWnT1bQm&#xA;iXUe6GvTl3U/PMyGUSdblwShz5Ijyr5+13y66xwyfWLCtXspSSnvwPVD8tvEHBkwxn72eDVSx8uX&#xA;c9k8seedC8xRgWsvpXgFZLKUgSCnUr2ce4+mma/JhlHm7fDqY5OXPuT8nK29aTiq0nChaTihaTiq&#xA;0nChYTihaThVaTihYThQtJxQsJwoWE/diq0nChYT2GKEh17zjo2jgpLL610P+PaKjNX/ACuy/Tls&#xA;MRk0ZM8Y+95vr3nfWdW5Rc/qto231eIncf5bdW/V7ZlQxCLgZNRKXkEkt7Se4akS1HdugH05Y0gJ&#xA;va6PBFRpf3j+H7I+jBbMRdroA0i4A6cR/wASGY+q/uy5ug/voob8pP8AyZPl/wD5il/4ic0r1D7I&#xA;xV2KuxV2KvhDUP8Ae+5/4yv/AMSOKvprST/uKsv+MEW3+wGZw5OnlzKJJ/tOFitJ/sGKqcipIjI6&#xA;hkYEMrCoYHqCDhQWCeZfyztbjnc6MRbTblrVv7pj/kn9j9XyzIhnI5uFl0gO8XnVzaajpd56c6SW&#xA;t3EQy9VYEdGVh+BGZQIIcAgxO+xZ/wCVPzdurfhaa+DcwCireoP3qjp8a/tj36/PMXJpgd4ufg15&#xA;G09/N6lYalY6japd2M6XFu/2ZENRXwPgfEHMOUSDRdnGYkLHJXJwJWk4qtJwoWE4oWk4VWk4oWE4&#xA;ULScULCcKFhP3YqtJwoSnW/M2j6PHW8nAkIqkCfFI3yUfrO2ThjMuTVkyxhzeb6/+Ymr6jyhs/8A&#xA;QbU7HgaysPd+3+xzKhhA5uvyaqUuWwYvFDPO9EUux3J/qcucZNbXRUWjXB5n+QdPvwWzEUyVVVQq&#xA;gKo6AbDFk3ilAa9/xyLn/VH/ABIZj6r+7Ll6D++ihvyk/wDJk+X/APmKX/iJzSvUPsjFXYq7FXYq&#xA;+ENQ/wB77n/jK/8AxI4q+mNJP+4qz/4wRVP+wGZw5OmlzKJJ/sGFC0n7v14ULScULcVQGraPpuq2&#xA;xgvoVlT9lujKfFWG4yUZEcmE4CQovNPMf5eajp3O4sa3lmKkgD96g/ylH2vmPuzLhmB5uuy6Yx3G&#xA;4SLRPMGr6JdfWNOuGhY/3kfVHA7Oh2OWTgJDdqx5ZQNgvWvK35oaTq3C21DjYX5oByP7mQ/5LH7J&#xA;9m+85g5NOY8tw7TDrIy2OxZmTlDmLCcULScKrScULCcKFpOKFhOFCwn7sVQGra3pmlwetfXCwrvx&#xA;B3ZqfyqNzk4wJ5Nc8giN3nWv/mdfXXKDSUNpAdvXahmI9uqr+JzKhgA5uBk1ZO0dmGE3FzMWYtNN&#xA;IasxJZiT1JJy9xNymNrop2a4NP8Aitf4nG2QimkcUcS8Y1CqOwwMl2KXYq7FUBr3/HIuf9Uf8SGY&#xA;+q/uy5eg/voob8pP/Jk+X/8AmKX/AIic0r1D7IxV2KuxV2KvhDUP977n/jK//Ejir6X0o/7irL/j&#xA;BF/xAZnDk6aXMogn7v15JitJxQtxVonChaTiq0nChjfmLyPpWr8pox9VvjuZ0Hwsf8tdq/PrlsMp&#xA;DRl08ZeReZ615e1TR5uF5FRGNI513jb5H+B3zKjMS5OvyYpR5pz5W/MXWdF4W85N7p429GQ/Gg/4&#xA;rfen+qdvlleTAJe9uw6qUNjuHrGheZ9H1239WwnDOorLA3wyp/rL/EbZhTxmPN2mPNGY2TMnINiw&#xA;nChaTihYThQhb/UbKxt2uLydIIV6u5pX2Hc/IYREnkxlMRFl575h/NJ25QaJHxHT63KN/miH/jb7&#xA;syoafvcDLrOkWB3N1eXtwZriR7i4kO7MSzH2zJAAcIyJNlF2ujSPRpzwX+Ufa/sxtIim0FvDAvGJ&#xA;Qo7+J+ZwMwFTFLsVdirsVdiqA17/AI5Fz/qj/iQzH1X92XL0H99FDflJ/wCTJ8v/APMUv/ETmleo&#xA;fZGKuxV2KuxV8Iah/vfc/wDGV/8AiRxV9KaUf9xVn4ehH/xAZnjk6afMoknCwW4q0ThQtJxVaThQ&#xA;1/mTiq0n+wYqpXEEFxC8M8aywuKOjgEN9Bwg0ggHmwLzD+XFOVxox92s3P8AxBz+pvvzIhm73Cy6&#xA;XrFhSPqGm3vJDJaXkB6iqOp/A5fsQ4gJie4vRPLP5qq3C115eJ6C+jGx/wCMiDp81+7MXJp+sXPw&#xA;63pL5vQYbmC4hSa3kWWGQVSRCGUjxBGYxFOcCDyWXFzBbwtNPIsUKCryOQqge5OIFoJA5sD8w/ml&#xA;aw8oNGj+sSDY3UgIjH+quzN9NPpzJhpz1cLLrANovO9S1XUdTuPXvp3nl/Z5HYV7Ko2UfLMqMQOT&#xA;gTmZGyqWukTy0aT90nv9o/RhtRFN7ezt7cUjXfux3J+nAzApWxS7FXYq7FXYq7FXYqgNe/45Fz/q&#xA;j/iQzH1X92XL0H99FDflJ/5Mny//AMxS/wDETmleofZGKuxV2KuxV8Iah/vfc/8AGV/+JHFX0npR&#xA;/wBxdn/xgj/4gMz48nSz5lEYWLROFC0nFVpOFDX+ZOKrSf7BirRP+fjihaT9/wCrCq0n7uwxQlmt&#xA;aBpmrxcLyKsgFEnXaRfkf4HbJxmRya8mMS5vN9f8manpXKVB9Zsxv6yDdR/lr2+fTMmGQFwMmAx9&#xA;yF0HzRrGiS8rKb90xrJbvVom+a9j7ihwzxiXNGPNKHJT1nzDq+szepf3BkANUiHwxr/qqNvp64Yw&#xA;EeSMmWU+aja6ZcT0anpx/wAzfwGStgIpva6fb2+6ryf+dtz9HhgZgUicWTsVdirsVdirsVdirsVd&#xA;iqA17/jkXP8Aqj/iQzH1X92XL0H99FDflJ/5Mny//wAxS/8AETmleofZGKuxV2KuxV8Iah/vfc/8&#xA;ZX/4kcVfSOlf8cuz/wCMEf8AxAZnjk6WfMoknJMFpOKrScKGv8ycVWk/2DFWif8APxxQtJ+/9WFV&#xA;pP3dhihonFVpOFC04q8x/MCws7TVovqsSxCaL1JFTZS3IitOg6dsysJJDr9TECWyWaLbwuHkdQzK&#xA;QFJ3plpaohN8DN2KuxV2KuxV2KuxV2KuxV2KuxVAa9/xyLn/AFR/xIZj6r+7Ll6D++ihvyk/8mT5&#xA;f/5il/4ic0r1D7IxV2KuxV2KvhDUP977n/jK/wDxI4q+kNLP+4uz/wCMEf8AxAZsI8nST5lEE4WK&#xA;0nChr/MnFVpP9gxVon/PxxQtJ+/9WFVpP3dhihonFVpOFC0nFWicUPOfzK/46tr/AMYP+N2zJw8n&#xA;B1X1BKdC/upf9Yfqy0tMUzxZuxV2KuxV2KuxV2KuxV2KuxV2KoDXv+ORc/6o/wCJDMfVf3ZcvQf3&#xA;0UN+Un/kyfL/APzFL/xE5pXqH2RirsVdirsVfCGof733P/GV/wDiRxV9HaX/AMcyz/4wR/8AEBmw&#xA;jydJPmUQTkmDX+ZOKrSf7BirRP8An44oWk/f+rCq0n7uwxQ0Tiq0nChaTirROKFpOKvO/wAyf+Or&#xA;a/8AGD/jdsycPJwdV9QSnQv7qX/WH6stLTFM8WbsVdirsVdirsVdirsVdirsVdiqA17/AI5Fz/qj&#xA;/iQzH1X92XL0H99FDflJ/wCTJ8v/APMUv/ETmleofZGKuxV2KuxV8Iah/vfc/wDGV/8AiRxV9GaW&#xA;f9xln/xgj2/2AzYR5OjnzKJ/zJyTFaT/AGDFWif8/HFC0n7/ANWFVpP3dhihonFVpOFC0nFWicUL&#xA;ScVaJ+7ufHCrzv8AMn/jq2v/ABg6f7NsycPJwdV9QSrQv7qX/WH6ssLTFM8WbsVdirsVdirsVdir&#xA;sVdirsVdiqA17/jkXP8Aqj/iQzH1X92XL0H99FDflJ/5Mny//wAxS/8AETmleofZGKuxV2KuxV8I&#xA;ah/vfc/8ZX/4kcVfRel/8cy0/wCMEdT/ALAZsY8nRz5lEE/2DCxaJ/z8cULSfv8A1YVWk/d2GKGi&#xA;cVWk4ULScVaJxQtJxVon7u58cKtE/f8AqxQ88/Mf/jqWv/GD/jdsycPJwtTzCVaF/dS/6w/VlhaY&#xA;pnizdirsVdirsVdirsVdirsVdirsVQGvf8ci5/1R/wASGY+q/uy5eg/voob8pP8AyZPl/wD5il/4&#xA;ic0r1D7IxV2KuxV2KvhDUP8Ae+5/4yv/AMSOKvorSz/uMs/+MEdB/sBmxjydHPmUQT/n44WC0n7/&#xA;ANWFVpP3dhihonFVpOFC0nFWicULScVaJ+7ufHCrRP3/AKsUNfq7DxxV55+Y/wDx1bb/AIwf8btm&#xA;Th5OFqeYSvQv7qX/AFh+rLC0xTPFm7FXYq7FXYq7FXYq7FXYq7FXYqgNe/45Fz/qj/iQzH1X92XL&#xA;0H99FDflJ/5Mny//AMxS/wDETmleofZGKuxV2KuxV8Iah/vfc/8AGV/+JHFX0PpLo2lWbKQymCOj&#xA;A1r8IzYx5OinzKJJ+/8AVkmK0n7uwxQ0Tiq0nChaTirROKFpOKtE/d3PjhVon7/1Yoa/V2Hjiq0n&#xA;+04oeffmN/x1Lb/jB/xu2ZOHk4Wp5hK9C/upf9YfqywtUUzxZuxV2KuxV2KuxV2KuxV2KuxV2KoD&#xA;Xv8AjkXP+qP+JDMfVf3ZcvQf30UN+Un/AJMny/8A8xS/8ROaV6h9kYq7FXYq7FXyL+Y35TeavKt1&#xA;PeyxfXdIeRmXULcEqoZqgTJuYzv3+HwOKsf8uecda0GQfVZfUtSavaSbxnxI/lPuMnDIYtOXBGfP&#xA;m9Y8teeNG11Vjjb6ve0+KzkPxE/5DbBx8t/bMyGUSdZl08oe5kBOWNC0nChaTirROKFpOKtE/d3P&#xA;jhVon7/1Yoa/V2Hjiq0n+04oaJ/sGFXn35if8dS2/wCMH/G7ZkYeThanmEs0L+6l/wBYfqywtUUz&#xA;xZuxV2KuxV2KuxV2KuxV2KuxV2Kpfr5A0i4qaVAA/wCCGY+q/uy5eg/voof8pP8AyZPl/wD5il/4&#xA;ic0r1D7IxV2KuxV2KtOiupRwGVgQykVBB6gjFXkH5g/849aNq3qX/lkppWon4msyCLSQ+wFTEf8A&#xA;VHH2HXFXz5rvl3XvLmpGx1a0lsbyM8lDdGAOzxuPhYf5SnFWT+WfzQvrPhbawGu7YbLcD++Qe/8A&#xA;P9O/vmRjzkc3CzaMHeOxemadqmn6lbLc2M6zwt+0p3B8GB3B9jmXGQPJ1s4GJooknCwWk4q0T93c&#xA;+OFWifv/AFYoa/V2Hjiq0n+04oaJ/sGFVuKvP/zE/wCOpbf8YP8AjdsyMPJwtTzCW6F/dS/6w/Vl&#xA;haopnizdirsVdirsVdirsVdirsVaZlVSzEKo3JOwGAmlAJ2CSah5ot4qpaD1pOnM7IP65hZdaBtH&#xA;d2mn7MlLeew+1jl3e3d5JznkLn9lew+QGa6eSUzZLusWCGMVEU9Y/Jr8qfN7+Y9M8yXlt+j9Ms5R&#xA;MDc1SWUBTQRx05UNftNQeFcg2vpfFXYq7FXYq7FXYqlnmHyzoXmLT2sNZs47y2O6hx8SNSnJHFGR&#xA;vdTir55/MH/nHzW9G9W/8tl9W01as1rSt3EP9VdpR/qjl/k98VeX6bq2qaRd+vZTPbzr8Ljsafsu&#xA;p2P05KMiOTCeMSFF6Z5a/MrT9Q4W2phbK7NAslf3Ln5n7H07e+ZePODzdbm0ZjvHcMzqCKg1B7+O&#xA;ZDhNE/f+rFDX6uw8cVWk/wBpxQ0T/YMKrcVaJxVgH5h/8dO2/wCMH/G7ZkYeThanmEt0L+6l/wBY&#xA;fqywtUUzxZuxV2KuxV2KuxV2KuwKlOoeZLO2qkP7+bwU/CD7t/TMXLq4x2G5dhp+zpz3l6Qxq+1S&#xA;9vWrM/wdo12UfRmtyZpT5u7waWGL6Rv3sr8j/lF5w82mOe2t/qelt11G5BWMj/itftSf7EU8SMqc&#xA;h9CeR/yZ8n+VfTuBD+ktVUAm/ulDcWHeKPdY/bq3+VirPMVdirsVdirsVdirsVdirsVYJ5//ACe8&#xA;reb1e5ZP0frB+zqMCirH/i5NhJ+De+Kvm3zv+WvmnydccdTtudkxpBqMNXgfwHKnwN/ktQ+G2KqP&#xA;lvzzq+ilYuX1qxG31aQ/ZH/Fbblf1e2W48xj7nGzaaM9+Reo6F5o0jW4uVnLSVRV7Z9pF+Y7j3GZ&#xA;sMglydXlwShzTQn+05NoaJ/sGFVuKtE4qtJ/sGFDAfzC/wCOnbf8Yf8AjdsvxcnD1HNLtC/upf8A&#xA;WH6ssLVFM8WbsVdirsVdirsVS7UNdsbOq8vVmH+607H/ACj2zGy6mMPMuZp9Dkyb8o97GdQ1u+va&#xA;qzenCf8AdSbD6fHNbl1Ep+53mn0WPFuNz3pv5O/LjzZ5umC6TZn6qDSS/mrHbp41eh5EfyqCfbKH&#xA;LfQPkb8g/Knl/wBO71UDWtTWjcplpbxsP5Idw3zevsBir08AAAAUA6DFXYq7FXYq7FXYq7FXYq7F&#xA;XYq7FXYqpXVra3dtJbXUKT20ylJYZVDoynqGVqgjFXiP5g/84528/q6h5PcQTGrPpMzfu2PX9zI3&#xA;2P8AVbb3AxV4Te2OsaJqTW93DNp+o2zbo4aORT2I6dexHXEGkEA7Fmflz8zXXhba2Oa9FvEG4/4y&#xA;IOvzH3ZlY9R0k6/NoesPk9Atrq2uoFntpVmhcVWRDUHMwEHk62USDRVCcULSf7BhQ1irAvzC/wCO&#xA;nbf8Yf8AjdsvxcnD1HNLtC/upf8AWH6ssLVFM8WbsVdirsVQd/q1lZD969ZO0S7sf6fTlOXPGHNy&#xA;cGknl5DbvYzqHmG9uqpGfQhP7Kn4j82zW5dXKXLYO70/Z8Me59RVfLPk/wAyeZ7z6rotjJdOD+8k&#xA;HwxRjxkkair9J+WYrnve/I3/ADjpoemGO88zSjVb0UYWaVW1Qjf4ujS/TQeKnFXr1vb29tCkFvEk&#xA;MEYCxxRqFRVHQKooAMVVMVdirsVdirsVdirsVdirsVdirsVdirsVdirsVSHzd5G8tebLL6rrNosx&#xA;UEQXK/DPET3jkG4+R2PcYq+cfzB/IzzL5Y9W+08Nq2jLVjPEv76Jev72IV2H8y1Hc8cVYNo3mDVN&#xA;Hn9WymKqTWSFt43/ANZf49cnDIY8mrLhjMbvS/LvnzS9V4QT0tL47CJz8DH/ACGP6j+OZuPOJe91&#xA;WfSShuNwyXL3Ed+v9WKsC/MH/jp23/GH/jdsvxcnD1HNLtC/upf9YfqywtUUzxZuxVD3moWlmnKe&#xA;QKf2U6sfkMqyZYw5luw6eeQ1EMb1DzPdT1S1HoR/zftn6e30ZrsuslLaOwd1p+zIR3n6j9iE0bQt&#xA;a12/Wy0q0lvrx9/TiUsQK7sx6KPEsaZhuzAe5eRv+cbbeL07zzfces+zDS7ZiEHtLKKMfcJT/WOK&#xA;vbNN0vTtLs47LTraK0tIhSOCFQiDx2Hc9ziqJxV2KuxV2KuxV2KuxV2KuxV2KuxV2KuxV2KuxV2K&#xA;uxV2KuxV5l+YP5FeW/Mvq32mBdI1lqsZI1/cSsd/3sY6En9td/ENir5z82eSfMnlS++qa1aNByJ9&#xA;G4X4oZQO8cg2Py6juBiqN8u+f9T0zjBd1vLMbAMf3iD/ACWPX5H8Mvx5zHnuHDz6OM9xsXpGla3p&#xA;mq2/rWMwkUfaj6Op/wApeozOhMS5OpyYpQNEMQ/MH/jp2/c+j/xucysXJwNRzS/Qv7qX/WH6smWq&#xA;KOubq3to/UnkEaeJ7/Id8hOYiLJbseKUzURbHdQ80yPWOyXgv+/W3Y/IdBmvy60naLudP2WBvPfy&#xA;Sm1tNR1O9S3tYZb29nNEijVpJHPsBUnMEkncu2jERFDYPZfI3/ON2oXJjvPNs/1ODYjTbchpmHhJ&#xA;IKqnyWp9xgS920Dy3oXl+xWx0ayisrYdVjHxMf5nc1Zz7sTiqZYq7FXYq7FXYq7FXYq7FXYq7FXY&#xA;q7FXYq7FXYq7FXYq7FXYq7FXYq7FUJquk6Zq1jJYanax3lnKKSQSqGU+B36EdiNxirwT8wf+cc7u&#xA;29XUPJ7m5gFWfSpW/eqOv7mQ/bH+S3xe7HFXjKSanpN+1PVsr63Yq6MDHIjDqrKaH5g4RIg2GMoi&#xA;QoppqHmifVXge9VVmiT0zIgoG3JqR2O+bHT6scpOk1vZsj6ob+SjHr72sLx2ygu5r6jdB8hjm13S&#xA;K6Xso88nyS15Lu9uF5F555CFRRVmJPQKB+oZr5TMjZd1jxxgKiKD1XyN/wA48eY9X9O78wsdGsCQ&#xA;fq5AN26/6h+GL/Z7/wCTkWb37yp5H8seVbX0NFskgZhxluT8U8nf45D8R37dPAYqnuKuxV2KuxV2&#xA;KuxV2KuxV2KuxV2KuxV2KuxV2KuxV2KuxV2KuxV2KuxV2KuxV2KuxVinnj8svK3nG3P6St/Sv1Xj&#xA;DqMFFnSnQE0o6/5LfRTFXzb5+/KDzV5Qd55I/r+kV+DUbdSVArt6ybmM/P4fAnFUf5G/Irzd5k9O&#xA;6vUOj6U2/r3Cn1nX/iuE0Y/NqDwrir6D8l/lj5R8oxKdNtPUvqUk1Gekk7eNDSiD2QDFWV4q7FXY&#xA;q7FXYq7FXYq7FXYq7FXYq7FXYq7FX//Z</xmpGImg:image>
               </rdf:li>
            </rdf:Alt>
         </xmp:Thumbnails>
         <xmpMM:RenditionClass>proof:pdf</xmpMM:RenditionClass>
         <xmpMM:OriginalDocumentID>uuid:65E6390686CF11DBA6E2D887CEACB407</xmpMM:OriginalDocumentID>
         <xmpMM:DocumentID>xmp.did:ef57cdd4-8bee-ae40-adb4-d3bdd446c5cc</xmpMM:DocumentID>
         <xmpMM:InstanceID>xmp.iid:ef57cdd4-8bee-ae40-adb4-d3bdd446c5cc</xmpMM:InstanceID>
         <xmpMM:DerivedFrom rdf:parseType="Resource">
            <stRef:instanceID>uuid:9dc30ca7-e834-4c80-8c7e-aaf0e604d9bb</stRef:instanceID>
            <stRef:documentID>xmp.did:c1cb20de-48aa-4e42-b6ae-a4bdcd5afb26</stRef:documentID>
            <stRef:originalDocumentID>uuid:65E6390686CF11DBA6E2D887CEACB407</stRef:originalDocumentID>
            <stRef:renditionClass>proof:pdf</stRef:renditionClass>
         </xmpMM:DerivedFrom>
         <xmpMM:History>
            <rdf:Seq>
               <rdf:li rdf:parseType="Resource">
                  <stEvt:action>saved</stEvt:action>
                  <stEvt:instanceID>xmp.iid:7b142d01-f123-4ea9-aa31-d451c2b0aba7</stEvt:instanceID>
                  <stEvt:when>2015-09-01T11:22:34+01:00</stEvt:when>
                  <stEvt:softwareAgent>Adobe Illustrator CC 2015 (Macintosh)</stEvt:softwareAgent>
                  <stEvt:changed>/</stEvt:changed>
               </rdf:li>
               <rdf:li rdf:parseType="Resource">
                  <stEvt:action>saved</stEvt:action>
                  <stEvt:instanceID>xmp.iid:97be2007-5698-478b-943f-c832b9f3e306</stEvt:instanceID>
                  <stEvt:when>2016-01-27T15:53:23Z</stEvt:when>
                  <stEvt:softwareAgent>Adobe Illustrator CC 2015 (Macintosh)</stEvt:softwareAgent>
                  <stEvt:changed>/</stEvt:changed>
               </rdf:li>
               <rdf:li rdf:parseType="Resource">
                  <stEvt:action>converted</stEvt:action>
                  <stEvt:parameters>from application/postscript to application/vnd.adobe.illustrator</stEvt:parameters>
               </rdf:li>
               <rdf:li rdf:parseType="Resource">
                  <stEvt:action>saved</stEvt:action>
                  <stEvt:instanceID>xmp.iid:3e5b460e-4d56-44d0-8abc-338ccf94e2e2</stEvt:instanceID>
                  <stEvt:when>2016-02-12T11:44:57Z</stEvt:when>
                  <stEvt:softwareAgent>Adobe Illustrator CC 2015 (Macintosh)</stEvt:softwareAgent>
                  <stEvt:changed>/</stEvt:changed>
               </rdf:li>
               <rdf:li rdf:parseType="Resource">
                  <stEvt:action>saved</stEvt:action>
                  <stEvt:instanceID>xmp.iid:ef57cdd4-8bee-ae40-adb4-d3bdd446c5cc</stEvt:instanceID>
                  <stEvt:when>2016-03-16T16:55:18-07:00</stEvt:when>
                  <stEvt:softwareAgent>Adobe Illustrator CC 2015 (Windows)</stEvt:softwareAgent>
                  <stEvt:changed>/</stEvt:changed>
               </rdf:li>
            </rdf:Seq>
         </xmpMM:History>
         <illustrator:StartupProfile>Web</illustrator:StartupProfile>
         <xmpTPg:NPages>1</xmpTPg:NPages>
         <xmpTPg:HasVisibleTransparency>False</xmpTPg:HasVisibleTransparency>
         <xmpTPg:HasVisibleOverprint>False</xmpTPg:HasVisibleOverprint>
         <xmpTPg:MaxPageSize rdf:parseType="Resource">
            <stDim:w>32.000000</stDim:w>
            <stDim:h>32.000000</stDim:h>
            <stDim:unit>Pixels</stDim:unit>
         </xmpTPg:MaxPageSize>
         <xmpTPg:PlateNames>
            <rdf:Seq>
               <rdf:li>Cyan</rdf:li>
               <rdf:li>Magenta</rdf:li>
               <rdf:li>Yellow</rdf:li>
               <rdf:li>Black</rdf:li>
            </rdf:Seq>
         </xmpTPg:PlateNames>
         <xmpTPg:SwatchGroups>
            <rdf:Seq>
               <rdf:li rdf:parseType="Resource">
                  <xmpG:groupName>Default Swatch Group</xmpG:groupName>
                  <xmpG:groupType>0</xmpG:groupType>
                  <xmpG:Colorants>
                     <rdf:Seq>
                        <rdf:li rdf:parseType="Resource">
                           <xmpG:swatchName>Natural Blue 4</xmpG:swatchName>
                           <xmpG:mode>RGB</xmpG:mode>
                           <xmpG:type>PROCESS</xmpG:type>
                           <xmpG:red>20</xmpG:red>
                           <xmpG:green>115</xmpG:green>
                           <xmpG:blue>145</xmpG:blue>
                        </rdf:li>
                        <rdf:li rdf:parseType="Resource">
                           <xmpG:swatchName>White</xmpG:swatchName>
                           <xmpG:mode>RGB</xmpG:mode>
                           <xmpG:type>PROCESS</xmpG:type>
                           <xmpG:red>255</xmpG:red>
                           <xmpG:green>255</xmpG:green>
                           <xmpG:blue>255</xmpG:blue>
                        </rdf:li>
                        <rdf:li rdf:parseType="Resource">
                           <xmpG:swatchName>Pure Black 6</xmpG:swatchName>
                           <xmpG:mode>RGB</xmpG:mode>
                           <xmpG:type>PROCESS</xmpG:type>
                           <xmpG:red>70</xmpG:red>
                           <xmpG:green>70</xmpG:green>
                           <xmpG:blue>70</xmpG:blue>
                        </rdf:li>
                     </rdf:Seq>
                  </xmpG:Colorants>
               </rdf:li>
            </rdf:Seq>
         </xmpTPg:SwatchGroups>
         <pdf:Producer>Adobe PDF library 15.00</pdf:Producer>
      </rdf:Description>
   </rdf:RDF>
</x:xmpmeta>
                                                                                                    
                                                                                                    
                                                                                                    
                                                                                                    
                                                                                                    
                                                                                                    
                                                                                                    
                                                                                                    
                                                                                                    
                                                                                                    
                                                                                                    
                                                                                                    
                                                                                                    
                                                                                                    
                                                                                                    
                                                                                                    
                                                                                                    
                                                                                                    
                                                                                                    
                                                                                                    
                           
<?xpacket end="w"?>
	</metadata>
<g>
	<g>
		<polygon class="st0" points="3.5,7.7 2.6,8.3 2.8,8.4 		"/>
		<polygon class="st0" points="3.5,7.7 2.8,8.4 3.1,8.6 4.4,7.2 		"/>
		<polygon class="st0" points="4.4,7.2 3.1,8.6 3.4,8.7 5.3,6.7 		"/>
		<polygon class="st1" points="5.3,6.7 3.4,8.7 3.6,8.9 6.3,6.2 		"/>
		<polygon class="st2" points="6.3,6.2 3.6,8.9 3.9,9.1 7.2,5.7 		"/>
		<polygon class="st3" points="7.2,5.7 3.9,9.1 4.1,9.2 8.1,5.2 		"/>
		<polygon class="st4" points="8.1,5.2 4.1,9.2 4.4,9.4 9.1,4.7 		"/>
		<polygon class="st4" points="9.1,4.7 4.4,9.4 4.7,9.6 10,4.2 		"/>
		<polygon class="st5" points="10,4.2 4.7,9.6 4.9,9.7 10.9,3.7 		"/>
		<polygon class="st6" points="10.9,3.7 4.9,9.7 5.2,9.9 11.9,3.2 		"/>
		<polygon class="st7" points="11.9,3.2 5.2,9.9 5.5,10 12.8,2.7 		"/>
		<polygon class="st8" points="12.8,2.7 5.5,10 5.7,10.2 13.7,2.2 		"/>
		<polygon class="st8" points="13.7,2.2 5.7,10.2 6,10.4 14.6,1.7 		"/>
		<polygon class="st9" points="14.6,1.7 6,10.4 6.3,10.5 15.6,1.2 		"/>
		<polygon class="st10" points="6.3,10.5 6.5,10.7 16.1,1.1 16,1 15.6,1.2 		"/>
		<polygon class="st11" points="16.1,1.1 6.5,10.7 6.8,10.9 16.4,1.3 		"/>
		<polygon class="st11" points="16.4,1.3 6.8,10.9 7.1,11 16.7,1.4 		"/>
		<polygon class="st12" points="16.7,1.4 7.1,11 7.3,11.2 16.9,1.6 		"/>
		<polygon class="st13" points="16.9,1.6 7.3,11.2 7.6,11.4 17.2,1.8 		"/>
		<polygon class="st14" points="17.2,1.8 7.6,11.4 7.9,11.5 17.5,1.9 		"/>
		<polygon class="st15" points="17.5,1.9 7.9,11.5 8.1,11.7 17.7,2.1 		"/>
		<polygon class="st16" points="17.7,2.1 8.1,11.7 8.4,11.8 18,2.3 		"/>
		<polygon class="st17" points="18,2.3 8.4,11.8 8.7,12 18.3,2.4 		"/>
		<polygon class="st18" points="18.3,2.4 8.7,12 8.9,12.2 18.5,2.6 		"/>
		<polygon class="st19" points="18.5,2.6 8.9,12.2 9.2,12.3 18.8,2.7 		"/>
		<polygon class="st20" points="18.8,2.7 9.2,12.3 9.5,12.5 19.1,2.9 		"/>
		<polygon class="st21" points="19.1,2.9 9.5,12.5 9.7,12.7 19.3,3.1 		"/>
		<polygon class="st22" points="19.3,3.1 9.7,12.7 10,12.8 19.6,3.2 		"/>
		<polygon class="st23" points="19.6,3.2 10,12.8 10.3,13 19.9,3.4 		"/>
		<polygon class="st24" points="19.9,3.4 10.3,13 10.5,13.2 20.1,3.6 		"/>
		<polygon class="st25" points="20.1,3.6 10.5,13.2 10.8,13.3 20.4,3.7 		"/>
		<polygon class="st26" points="20.4,3.7 10.8,13.3 11.1,13.5 20.7,3.9 		"/>
		<polygon class="st27" points="20.7,3.9 11.1,13.5 11.3,13.6 20.9,4.1 		"/>
		<polygon class="st28" points="20.9,4.1 11.3,13.6 11.6,13.8 21.2,4.2 		"/>
		<polygon class="st29" points="21.2,4.2 11.6,13.8 11.9,14 21.4,4.4 		"/>
		<polygon class="st30" points="21.4,4.4 11.9,14 12.1,14.1 21.7,4.5 		"/>
		<polygon class="st31" points="21.7,4.5 12.1,14.1 12.4,14.3 22,4.7 		"/>
		<polygon class="st32" points="22,4.7 12.4,14.3 12.7,14.5 22.2,4.9 		"/>
		<polygon class="st33" points="22.2,4.9 12.7,14.5 12.9,14.6 22.5,5 		"/>
		<polygon class="st34" points="22.5,5 12.9,14.6 13.2,14.8 22.8,5.2 		"/>
		<polygon class="st35" points="22.8,5.2 13.2,14.8 13.4,15 23,5.4 		"/>
		<polygon class="st36" points="23,5.4 13.4,15 13.7,15.1 23.3,5.5 		"/>
		<polygon class="st37" points="23.3,5.5 13.7,15.1 14,15.3 23.6,5.7 		"/>
		<polygon class="st38" points="23.6,5.7 14,15.3 14.2,15.4 23.8,5.8 		"/>
		<polygon class="st39" points="23.8,5.8 14.2,15.4 14.5,15.6 24.1,6 		"/>
		<polygon class="st40" points="24.1,6 14.5,15.6 14.8,15.8 24.4,6.2 		"/>
		<polygon class="st41" points="24.4,6.2 14.8,15.8 15,15.9 24.6,6.3 		"/>
		<polygon class="st42" points="24.6,6.3 15,15.9 15.3,16.1 24.9,6.5 		"/>
		<polygon class="st43" points="24.9,6.5 15.3,16.1 15.6,16.3 25.2,6.7 		"/>
		<polygon class="st44" points="15.6,16.3 15.8,16.4 25.4,6.8 25.2,6.7 		"/>
		<polygon class="st45" points="25.7,7 25.4,6.8 15.8,16.4 16,16.5 16.4,16.3 		"/>
		<polygon class="st46" points="25.7,7 16.4,16.3 17.3,15.8 26,7.2 		"/>
		<polygon class="st47" points="26,7.2 17.3,15.8 18.3,15.3 26.2,7.3 		"/>
		<polygon class="st48" points="26.2,7.3 18.3,15.3 19.2,14.8 26.5,7.5 		"/>
		<polygon class="st49" points="26.5,7.5 19.2,14.8 20.1,14.3 26.8,7.6 		"/>
		<polygon class="st50" points="26.8,7.6 20.1,14.3 21.1,13.8 27,7.8 		"/>
		<polygon class="st51" points="27,7.8 21.1,13.8 22,13.3 27.3,8 		"/>
		<polygon class="st52" points="22,13.3 22.9,12.8 27.6,8.1 27.3,8 		"/>
		<polygon class="st53" points="23.8,12.3 27.8,8.3 27.6,8.1 22.9,12.8 		"/>
		<polygon class="st54" points="24.8,11.8 28.1,8.5 27.8,8.3 23.8,12.3 		"/>
		<polygon class="st55" points="25.7,11.3 28.4,8.6 28.1,8.5 24.8,11.8 		"/>
		<polygon class="st56" points="26.6,10.8 28.6,8.8 28.4,8.6 25.7,11.3 		"/>
		<polygon class="st57" points="27.6,10.3 28.9,9 28.6,8.8 26.6,10.8 		"/>
		<polygon class="st58" points="28.5,9.8 29.2,9.1 28.9,9 27.6,10.3 		"/>
		<polygon class="st59" points="28.5,9.8 29.4,9.3 29.2,9.1 		"/>
	</g>
	<g>
		<polygon class="st60" points="2.6,7.7 2.6,8.4 3,8 		"/>
		<polygon class="st61" points="3,8 2.6,8.4 2.6,9 3.3,8.2 		"/>
		<polygon class="st62" points="3.3,8.2 2.6,9 2.6,9.6 3.7,8.4 		"/>
		<polygon class="st63" points="3.7,8.4 2.6,9.6 2.6,10.2 4.1,8.7 		"/>
		<polygon class="st64" points="4.1,8.7 2.6,10.2 2.6,10.8 4.5,8.9 		"/>
		<polygon class="st65" points="4.5,8.9 2.6,10.8 2.6,11.5 4.9,9.2 		"/>
		<polygon class="st66" points="4.9,9.2 2.6,11.5 2.6,12.1 5.3,9.4 		"/>
		<polygon class="st67" points="5.3,9.4 2.6,12.1 2.6,12.7 5.6,9.6 		"/>
		<polygon class="st68" points="5.6,9.6 2.6,12.7 2.6,13.3 6,9.9 		"/>
		<polygon class="st69" points="6,9.9 2.6,13.3 2.6,13.9 6.4,10.1 		"/>
		<polygon class="st70" points="6.4,10.1 2.6,13.9 2.6,14.6 6.8,10.3 		"/>
		<polygon class="st71" points="6.8,10.3 2.6,14.6 2.6,15.2 7.2,10.6 		"/>
		<polygon class="st72" points="7.2,10.6 2.6,15.2 2.6,15.8 7.6,10.8 		"/>
		<polygon class="st73" points="7.6,10.8 2.6,15.8 2.6,16.4 7.9,11 		"/>
		<polygon class="st74" points="7.9,11 2.6,16.4 2.6,17 8.3,11.3 		"/>
		<polygon class="st47" points="8.3,11.3 2.6,17 2.6,17.7 8.7,11.5 		"/>
		<polygon class="st75" points="8.7,11.5 2.6,17.7 2.6,18.3 9.1,11.7 		"/>
		<polygon class="st49" points="9.1,11.7 2.6,18.3 2.6,18.9 9.5,12 		"/>
		<polygon class="st76" points="9.5,12 2.6,18.9 2.6,19.5 9.9,12.2 		"/>
		<polygon class="st77" points="9.9,12.2 2.6,19.5 2.6,20.1 10.2,12.5 		"/>
		<polygon class="st78" points="10.2,12.5 2.6,20.1 2.6,20.8 10.6,12.7 		"/>
		<polygon class="st79" points="10.6,12.7 2.6,20.8 2.6,21.4 11,12.9 		"/>
		<polygon class="st80" points="11,12.9 2.6,21.4 2.6,22 11.4,13.2 		"/>
		<polygon class="st81" points="11.4,13.2 2.6,22 2.6,22.6 11.8,13.4 		"/>
		<polygon class="st82" points="11.8,13.4 2.6,22.6 2.6,23.2 12.2,13.6 		"/>
		<polygon class="st83" points="12.5,13.9 12.2,13.6 2.6,23.2 3,23.5 		"/>
		<polygon class="st56" points="12.5,13.9 3,23.5 3.3,23.7 12.9,14.1 		"/>
		<polygon class="st84" points="12.9,14.1 3.3,23.7 3.7,23.9 13.3,14.3 		"/>
		<polygon class="st58" points="13.3,14.3 3.7,23.9 4.1,24.2 13.7,14.6 		"/>
		<polygon class="st85" points="4.1,24.2 4.5,24.4 14.1,14.8 13.7,14.6 		"/>
		<polygon class="st59" points="4.9,24.7 14.5,15.1 14.1,14.8 4.5,24.4 		"/>
		<polygon class="st86" points="5.3,24.9 14.8,15.3 14.5,15.1 4.9,24.7 		"/>
		<polygon class="st87" points="5.6,25.1 15.2,15.5 14.8,15.3 5.3,24.9 		"/>
		<polygon class="st88" points="6,25.4 15.6,15.8 15.2,15.5 5.6,25.1 		"/>
		<polygon class="st89" points="6,25.4 6.4,25.6 16,16 15.6,15.8 		"/>
		<polygon class="st90" points="6.8,25.8 16,16.6 16,16 6.4,25.6 		"/>
		<polygon class="st91" points="7.2,26.1 16,17.2 16,16.6 6.8,25.8 		"/>
		<polygon class="st92" points="7.6,26.3 16,17.9 16,17.2 7.2,26.1 		"/>
		<polygon class="st93" points="7.9,26.5 16,18.5 16,17.9 7.6,26.3 		"/>
		<polygon class="st94" points="8.3,26.8 16,19.1 16,18.5 7.9,26.5 		"/>
		<polygon class="st95" points="8.7,27 16,19.7 16,19.1 8.3,26.8 		"/>
		<polygon class="st96" points="9.1,27.2 16,20.3 16,19.7 8.7,27 		"/>
		<polygon class="st97" points="9.5,27.5 16,21 16,20.3 9.1,27.2 		"/>
		<polygon class="st98" points="9.9,27.7 16,21.6 16,21 9.5,27.5 		"/>
		<polygon class="st99" points="10.2,28 16,22.2 16,21.6 9.9,27.7 		"/>
		<polygon class="st100" points="10.6,28.2 16,22.8 16,22.2 10.2,28 		"/>
		<polygon class="st101" points="11,28.4 16,23.4 16,22.8 10.6,28.2 		"/>
		<polygon class="st101" points="11.4,28.7 16,24.1 16,23.4 11,28.4 		"/>
		<polygon class="st102" points="11.8,28.9 16,24.7 16,24.1 11.4,28.7 		"/>
		<polygon class="st103" points="12.2,29.1 16,25.3 16,24.7 11.8,28.9 		"/>
		<polygon class="st104" points="12.5,29.4 16,25.9 16,25.3 12.2,29.1 		"/>
		<polygon class="st105" points="12.9,29.6 16,26.5 16,25.9 12.5,29.4 		"/>
		<polygon class="st106" points="13.3,29.8 16,27.2 16,26.5 12.9,29.6 		"/>
		<polygon class="st107" points="13.7,30.1 16,27.8 16,27.2 13.3,29.8 		"/>
		<polygon class="st108" points="14.1,30.3 16,28.4 16,27.8 13.7,30.1 		"/>
		<polygon class="st109" points="14.5,30.6 16,29 16,28.4 14.1,30.3 		"/>
		<polygon class="st109" points="14.8,30.8 16,29.6 16,29 14.5,30.6 		"/>
		<polygon class="st110" points="15.2,31 16,30.3 16,29.6 14.8,30.8 		"/>
		<polygon class="st111" points="15.6,31.3 16,30.9 16,30.3 15.2,31 		"/>
		<polygon class="st111" points="16,31.5 16,30.9 15.6,31.3 		"/>
	</g>
	<g>
		<polygon class="st112" points="16,16 16,31.5 29.4,24.3 29.4,8.8 		"/>
	</g>
	<polygon class="st113" points="29.7,9.2 29.2,8.3 16,15.4 2.8,7.3 2.3,8.2 15.5,16.3 15.5,31.5 16.5,31.5 16.5,16.3 	"/>
	<g>
		<path class="st114" d="M16,32.1L2.1,23.5V7.4L16-0.1l13.9,8.6v16.1L16,32.1z M3.1,23l12.9,8l12.9-7V9l-13-8L3.1,8V23z"/>
	</g>
</g>
<g>
	<rect class="st115" width="32" height="32"/>
</g>
</svg>
