<?xml version="1.0" encoding="utf-8"?>
<!-- Generator: Adobe Illustrator 19.2.1, SVG Export Plug-In . SVG Version: 6.00 Build 0)  -->
<svg version="1.1" id="Layer_1" xmlns="http://www.w3.org/2000/svg" xmlns:xlink="http://www.w3.org/1999/xlink" x="0px" y="0px"
	 viewBox="0 0 32 32" style="enable-background:new 0 0 32 32;" xml:space="preserve">
<style type="text/css">
	.st0{fill:#FFFFFF;}
	.st1{fill:#FEFEFE;}
	.st2{fill:#FDFDFD;}
	.st3{fill:#FCFCFC;}
	.st4{fill:#FBFBFB;}
	.st5{fill:#FAFAFA;}
	.st6{fill:#F9F9F9;}
	.st7{fill:#F8F8F8;}
	.st8{fill:#F7F7F7;}
	.st9{fill:#F6F6F6;}
	.st10{fill:#F5F5F5;}
	.st11{fill:#F4F4F4;}
	.st12{fill:#F3F3F3;}
	.st13{fill:#F2F2F2;}
	.st14{fill:#F1F1F1;}
	.st15{fill:#F0F0F0;}
	.st16{fill:#EFEFEF;}
	.st17{fill:#EEEEEE;}
	.st18{fill:#EDEDED;}
	.st19{fill:#ECECEC;}
	.st20{fill:#EBEBEB;}
	.st21{fill:#EAEAEA;}
	.st22{fill:#E9E9E9;}
	.st23{fill:#E8E8E8;}
	.st24{fill:#E7E7E7;}
	.st25{fill:#E6E6E6;}
	.st26{fill:#E5E5E5;}
	.st27{fill:#E3E3E3;}
	.st28{fill:#E2E2E2;}
	.st29{fill:#E1E1E1;}
	.st30{fill:#E0E0E0;}
	.st31{fill:#DFDFDF;}
	.st32{fill:#DDDDDD;}
	.st33{fill:#DCDCDC;}
	.st34{fill:#DBDBDB;}
	.st35{fill:#DADADA;}
	.st36{fill:#D9D9D9;}
	.st37{fill:#D7D7D7;}
	.st38{fill:#D6D6D6;}
	.st39{fill:#D5D5D5;}
	.st40{fill:#D3D3D3;}
	.st41{fill:#D2D2D2;}
	.st42{fill:#D1D1D1;}
	.st43{fill:#CFCFCF;}
	.st44{fill:#CECECE;}
	.st45{fill:#CDCDCD;}
	.st46{fill:#CBCBCB;}
	.st47{fill:#CACACA;}
	.st48{fill:#C8C8C8;}
	.st49{fill:#C7C7C7;}
	.st50{fill:#C5C5C5;}
	.st51{fill:#C4C4C4;}
	.st52{fill:#C2C2C2;}
	.st53{fill:#C1C1C1;}
	.st54{fill:#C0C0C0;}
	.st55{fill:#BEBEBE;}
	.st56{fill:#E4E4E4;}
	.st57{fill:#DEDEDE;}
	.st58{fill:#D8D8D8;}
	.st59{fill:#D4D4D4;}
	.st60{fill:#D0D0D0;}
	.st61{fill:#CCCCCC;}
	.st62{fill:#C9C9C9;}
	.st63{fill:#C6C6C6;}
	.st64{fill:#C3C3C3;}
	.st65{fill:#BFBFBF;}
	.st66{fill:#BDBDBD;}
	.st67{fill:#BCBCBC;}
	.st68{fill:#BBBBBB;}
	.st69{fill:#BABABA;}
	.st70{fill:#B9B9B9;}
	.st71{fill:#B7B7B7;}
	.st72{fill:#B6B6B6;}
	.st73{fill:#B5B5B5;}
	.st74{fill:#B4B4B4;}
	.st75{fill:#B2B2B2;}
	.st76{fill:#B1B1B1;}
	.st77{fill:#B0B0B0;}
	.st78{fill:#AEAEAE;}
	.st79{fill:#ADADAD;}
	.st80{fill:#ABABAB;}
	.st81{fill:#AAAAAA;}
	.st82{fill:#A8A8A8;}
	.st83{fill:#A7A7A7;}
	.st84{fill:#A5A5A5;}
	.st85{fill:#A3A3A3;}
	.st86{fill:#A2A2A2;}
	.st87{fill:#A0A0A0;}
	.st88{fill:#9E9E9E;}
	.st89{fill:#9D9D9D;}
	.st90{fill:#9B9B9B;}
	.st91{fill:#999999;}
	.st92{fill:#888888;}
	.st93{fill:#6E6E6E;}
	.st94{fill:#464646;}
	.st95{fill:none;}
</style>
<metadata><?xpacket begin="﻿" id="W5M0MpCehiHzreSzNTczkc9d"?>
<x:xmpmeta xmlns:x="adobe:ns:meta/" x:xmptk="Adobe XMP Core 5.6-c111 79.158366, 2015/09/25-01:12:00        ">
   <rdf:RDF xmlns:rdf="http://www.w3.org/1999/02/22-rdf-syntax-ns#">
      <rdf:Description rdf:about=""
            xmlns:dc="http://purl.org/dc/elements/1.1/"
            xmlns:xmp="http://ns.adobe.com/xap/1.0/"
            xmlns:xmpGImg="http://ns.adobe.com/xap/1.0/g/img/"
            xmlns:xmpMM="http://ns.adobe.com/xap/1.0/mm/"
            xmlns:stRef="http://ns.adobe.com/xap/1.0/sType/ResourceRef#"
            xmlns:stEvt="http://ns.adobe.com/xap/1.0/sType/ResourceEvent#"
            xmlns:illustrator="http://ns.adobe.com/illustrator/1.0/"
            xmlns:xmpTPg="http://ns.adobe.com/xap/1.0/t/pg/"
            xmlns:stDim="http://ns.adobe.com/xap/1.0/sType/Dimensions#"
            xmlns:xmpG="http://ns.adobe.com/xap/1.0/g/"
            xmlns:pdf="http://ns.adobe.com/pdf/1.3/">
         <dc:format>image/svg+xml</dc:format>
         <dc:title>
            <rdf:Alt>
               <rdf:li xml:lang="x-default">PartsNotVisible32</rdf:li>
            </rdf:Alt>
         </dc:title>
         <xmp:CreatorTool>Adobe Illustrator CC 2015 (Windows)</xmp:CreatorTool>
         <xmp:CreateDate>2016-03-16T16:55:01-07:00</xmp:CreateDate>
         <xmp:ModifyDate>2016-03-16T16:55:01-07:00</xmp:ModifyDate>
         <xmp:MetadataDate>2016-03-16T16:55:01-07:00</xmp:MetadataDate>
         <xmp:Thumbnails>
            <rdf:Alt>
               <rdf:li rdf:parseType="Resource">
                  <xmpGImg:width>256</xmpGImg:width>
                  <xmpGImg:height>256</xmpGImg:height>
                  <xmpGImg:format>JPEG</xmpGImg:format>
                  <xmpGImg:image>/9j/4AAQSkZJRgABAgEASABIAAD/7QAsUGhvdG9zaG9wIDMuMAA4QklNA+0AAAAAABAASAAAAAEA&#xA;AQBIAAAAAQAB/+4ADkFkb2JlAGTAAAAAAf/bAIQABgQEBAUEBgUFBgkGBQYJCwgGBggLDAoKCwoK&#xA;DBAMDAwMDAwQDA4PEA8ODBMTFBQTExwbGxscHx8fHx8fHx8fHwEHBwcNDA0YEBAYGhURFRofHx8f&#xA;Hx8fHx8fHx8fHx8fHx8fHx8fHx8fHx8fHx8fHx8fHx8fHx8fHx8fHx8fHx8f/8AAEQgBAAEAAwER&#xA;AAIRAQMRAf/EAaIAAAAHAQEBAQEAAAAAAAAAAAQFAwIGAQAHCAkKCwEAAgIDAQEBAQEAAAAAAAAA&#xA;AQACAwQFBgcICQoLEAACAQMDAgQCBgcDBAIGAnMBAgMRBAAFIRIxQVEGE2EicYEUMpGhBxWxQiPB&#xA;UtHhMxZi8CRygvElQzRTkqKyY3PCNUQnk6OzNhdUZHTD0uIIJoMJChgZhJRFRqS0VtNVKBry4/PE&#xA;1OT0ZXWFlaW1xdXl9WZ2hpamtsbW5vY3R1dnd4eXp7fH1+f3OEhYaHiImKi4yNjo+Ck5SVlpeYmZ&#xA;qbnJ2en5KjpKWmp6ipqqusra6voRAAICAQIDBQUEBQYECAMDbQEAAhEDBCESMUEFURNhIgZxgZEy&#xA;obHwFMHR4SNCFVJicvEzJDRDghaSUyWiY7LCB3PSNeJEgxdUkwgJChgZJjZFGidkdFU38qOzwygp&#xA;0+PzhJSktMTU5PRldYWVpbXF1eX1RlZmdoaWprbG1ub2R1dnd4eXp7fH1+f3OEhYaHiImKi4yNjo&#xA;+DlJWWl5iZmpucnZ6fkqOkpaanqKmqq6ytrq+v/aAAwDAQACEQMRAD8A9U4q7FXYq7FXYq7FXYq7&#xA;FXYq7FXYq7FXYq7FWBeefzn8n+VfUtvV/SWrJt9QtmB4t4Sy7rH8t29sVfPfnf8ANzzh5tLw3Nx9&#xA;T0tieOnWxKRlfCRvtSf7LbwAxVOvy+/PfzJ5b9Ox1Utq+jrQBZGrcRL/AMVyN9oAfst9BXFX0X5U&#xA;86eW/NViLzRbxZwAPWgPwzRE9pIzuPn0PY4qnmKuxV2KuxV2KuxV2KuxV2KuxV2KuxV2KuxV2Kux&#xA;V2KuxV2KuxV2KuxV2KuxV2KuxVifnX80PKPlGNl1K69W/pVNOt6STmvTktQEHu5Htir5888/np5u&#xA;8yGS1s3/AEPpTVH1e2Y+q6n/AH7Nsx+S0HjXFWI+WfJ3mPzNd/VdGsnuSpAlmpxijB7ySH4V/We2&#xA;KvdfJf8AzjzoOnKtz5kk/St5T/eVCyWyE/8AAvIfc0HtirHPP3/OPdxb+pf+UnNxAKs+lyt+9Udf&#xA;3Mh+3/qtv7nFXkllfa75e1X1rWWfTdTtWKsRyikUjqrKabeKnFXu/wCX3/ORdnd+lp/m9Ftbg0VN&#xA;UiX9yx6VlQbxn3X4fZRir2u3ube5gS4tpUmglAaOWNg6Mp6FWFQRiqpirsVdirsVdirsVdirsVdi&#xA;rsVdirsVdirsVdirsVdirsVdirsVdirsVSHzX558r+VbX19avkgZhWK2X455P9SMfEfn08TirwHz&#xA;z/zkN5j1n1LPy+p0bT2qpmBDXTqf8sbRf7Df/KxV5tpOi695h1H6tptrNqF9MeThAWNWO7SOdlFe&#xA;rMaYq9t8k/8AOOVrD6d55tnFxJ1/RluxEY9pJRRm+SU+ZxV7LYadp+nWkdnYW8draxCkcMKhEH0D&#xA;FVcnFVhOKsV86fl15Y82wEajb+neqKQ6hDRZl8ATT41/yWxV87+efyn8zeVGed0+vaSD8OoQKaKP&#xA;+LU3MZ/D3xVD+RvzP81eTpx+j7j1tPJrNps5LQNXqVFao3+Uv01xV9JeQfzd8q+cESCGX6jq9Pj0&#xA;64YBie/pNsJB8t/EDFWb4q7FXYq7FXYq7FXYq7FXYq7FXYq7FXYq7FXYq7FXYq7FXYqlmv8AmXQf&#xA;L1ib7Wb2OytuitIfiYjfiiCrOfZRirwnzz/zkhqF36ll5TgNlbmqnUbgBp27Vjj3VPman5Yq8gC6&#xA;3r+q0H1jU9Uu2/y5ppG/4Zjir1/yR/zjle3Hp3nmyc2sJ+IabbsGmP8Axkk3VfktT7jFXuOh+X9E&#xA;0GxWx0ezisrYdVjWhYjbk7fadvdjXFUcTiq0nFVhOKrScVWE4qpyBXUqwDKwoyncEHscVeUee/yK&#xA;0fVfUvvLxTTdQNWa1IpbSH2A/uj/AKu3t3xV4VrOha55e1H6rqVvJZXkR5Rk7V4nZ43GzCvdTir0&#xA;/wDL7/nIXWNK9LT/ADOr6np4oq3q73cY/wAokgSj5/F7npir6E0HzHonmDT0v9HvI7y1f9qM7qf5&#xA;XU/EjezCuKpjirsVdirsVdirsVdirsVdirsVdirsVdirsVdiqF1PVdN0uze91K6is7SP7c8zhEHt&#xA;Vu57DFXifnn/AJyShQSWflC39V91OqXKkKPeKE7n5vT/AFTirxDVNX13zDqf1nULibUdQnIVS1Xc&#xA;k9ERR0HgqjFXpXkj/nHrzDq3p3fmFzo9g1GFvQG7ceHE/DF/sqn/ACcVe9eV/Jflryvam30WyS35&#xA;ACWc/FNJT+eRqsfl08MVTknFVpOKrScVWE4qtJxVYTiqwnFVhOKrCcVSvXtA0bXbFrLVbVLq3atA&#xA;4+JT05Iw+JT7g4q8K88fkhq2lmS90AtqNgPiNsf96Yx7Af3g/wBXf274qwTy/wCZvMHlrUhe6Rdy&#xA;WV0hpIF+ywB+xIh+Fh7MMVfQv5ff85BaHrXpWHmIJpOptRVuK0tJD/rMSYj7Nt/lYq9bVlZQykMr&#xA;CoI3BBxVvFXYq7FXYq7FXYq7FXYq7FXYq7FVO4uLe2hee4lSGCMFpJZGCoqjqWY0AGKvIPPH/ORm&#xA;iab6ln5YiGq3gqPrknJbVD7D4Xl+ig9zirwXzL5v8yeZ7361rV9JdvU+nETSKOvaONaKv0DFWYeR&#xA;/wAivNvmMR3V8v6H0tqMJ7hSZnX/AIrhqG+lqDwrir3/AMnflp5R8pRD9F2ge8pR9QuKSXDVFD8d&#xA;AEHsgAxVlBOKrScVWk4qtJxVYTiq0nFVhOKrCcVWE4qsJxVYTiqmzYqpk4qwvzr+WXl3zOrzun1L&#xA;UyPhvoQKsf8Ai1Ng4/H3xV4P5t8heYfLExF/BztGNIr2KrQt4An9lvZsVTryB+cfmnyiyWwf9I6O&#xA;Njp87H4B/wAUvuY/luvtir6S8k/mR5W84W3PS7njdqKzafNRLhPE8ankv+UtRirKMVdirsVdirsV&#xA;dirsVdirmYKCzGgG5J6AYq8v88/n75V0D1LTSSNa1NdqQsPqyHp8cwryp4JX5jFXz95x/MXzZ5tn&#xA;L6veE2wblFYxfu7dPCiA7kfzMSffFUy8kflB5w82FJ4YPqOltQnULoFUZT3iWnKT2pt7jFX0H5H/&#xA;ACd8n+VOFxHD+kNVTf8ASF0AzKf+Kk+zH8x8XvirOCcVWk4qtJxVaTiq0nFVhOKrScVWE4qsJxVY&#xA;TiqwnFVhOKqbNiqmTiqmzYqsJxVD3UMFxC8FxGs0MgKyROAysD1BB2OKvJvOf5KW83O98tMIZTVm&#xA;06Q/uz/xic/Z+Tbe4xV5NJFrGh6mAwn07UrVuSsC0UqN2ZWFD8iMVez/AJff85GTQ+lp/nFDNEKK&#xA;mrQr8Y/4zRj7X+sm/seuKvedN1TTtUso73TrmO7tJhWOeFg6n6R38RiqJxV2KuxV2KuxV2KvkL8w&#xA;PzX83+Z7m4s7m5+qaWsjIun21UjZQSB6hryk/wBkaeAGKpB5T8o6r5n1WLTdPMUckpoJbiRYkHyr&#xA;u5/yUBPtir6O8j/kL5T8vend6kBrOqL8QknUC3Q/5EJ5A08Xr4imKvTNgAAKAdBiq0nFVpOKrScV&#xA;Wk4qtJxVYTiq0nFVhOKrCcVWE4qsJxVYTiqmzYqpk4qps2KrCcVU2bFVNmxVTZsVSXzH5X0TzBa+&#xA;hqduJKD91Mvwyxn/ACH6j9WKvFPN/wCVmtaHzurKuoaaKn1EH72Mf8WIOw/mG3yxVKPKHnrzN5Sv&#xA;frOjXZjRiDNaPV4Jf+MkdafSKMOxxV9Hfl9+ePlnzR6dlfEaTrLUH1eVh6Mrf8VSmm5/lah8K4q9&#xA;JxV2KuxV2KuxV8Iah/vfc/8AGV/+JHFWcXei6npK28d7btbmSNJIWp8LqQCGRhscVZ35N/OPWNJ4&#xA;WmshtS08bCQn/SIx7Mftj2b78Vez6J5h0fXLMXel3KXEXRwNmQn9l1PxKfniqPJxVaTiq0nFVpOK&#xA;rCcVWk4qsJxVYTiqwnFVhOKrCcVU2bFVMnFVNmxVYTiqmzYqps2KqbNiqmzYqpM2KqbN3OKsF84f&#xA;lnoesLJeWpXTr+hZpVFInPX94u30sPxxV4rqWm3On3T283FyhIEsbc42p3Vh1xV6x+S/5s+ao9f0&#xA;7yxfS/pHTbyQQxNOSZoNjThJuSu32Wr7UxV9KYq7FXYq7FXwhqH+99z/AMZX/wCJHFX1/a6Zp+p+&#xA;WbG0v4EuLd7aGsbjv6Y3B6g+43xV5p5s/KO8tOd1oTNd2/U2jf3yj/JPRx+PzxVg+m6rq2i34ubG&#xA;eSzu4jxYrsdjurqdiPEMMVeweT/zm0++4WevhbG7NFW7X+4c/wCV3jP/AAvuMVekLIjorowZGAZW&#xA;BqCDuCCMVaJxVYTiq0nFVhOKrCcVWE4qsJxVYTiqmzYqpk4qps2KrCcVU2bFVNmxVTZsVU2bFVJm&#xA;xVTZu5xVjWued9K04tHGfrd0NvSjPwqf8p9x91cVYBrHmbVtVYi4l4QdreOqp9I7/TiqQ6tbyNpV&#xA;xJx+BQDyPT7Q6Yqu/KT/AMmT5f8A+Ypf+InFX2RirsVdirsVfCGof733P/GV/wDiRxV9j6Gf9wmn&#xA;/wDMND/ybGKosnFWN+aPJGieYELzx+he0ol5EAH9uY6OPn9BGKvH/M3knW/L7lriP1rMmiXkYqhr&#xA;0Dd0Pz+iuKq/lP8AMLX/AC26xwSfWdPr8djKSU9+B6oflt4g4q9p8refNB8yRhbSX0b0CsllLQSC&#xA;nUr2ce4+mmKsgJxVYTiqwnFVhOKrCcVWE4qps2KqZOKqbNiqwnFVNmxVTZsVU2bFVNmxVSZsVSLX&#xA;PN2kaVVJZPVuR0t4qMw/1uy/Tirz3XPOWr6ryj5fVrU7ehGTuP8ALbq36vbFUmht5pjSNaju3YfT&#xA;iqY2+mRR0aT428P2cVUPMu2hXX+qv/EhiqU/lJ/5Mny//wAxS/8AETir7IxV2KuxV2KvhDUP977n&#xA;/jK//Ejir7E0Q/7hNP8A+YaH/k2MVRhOKrCcVUpVSRGSRQ6MCGVhUEHqCDirz3zT+Vdnc87rRCLW&#xA;c1LWjf3TH/IP7Hy6fLFXmV3Z6npN96VxHJaXkJDL1VgR0ZWH4EYq9B8pfnDd23C08wKbmAUVb1B+&#xA;9UdPjX9se/X54q9VsNTsNStUu7GdLi3f7MkZqPkfAjuDviqsTiqwnFVhOKqbNiqmTiqmzYqsJxVT&#xA;ZsVU2bFVNmxVTZsVSjWvMmk6THyvJgJCPggT4pG+SjoPc4q8813z/quocorT/QrY7fAf3jD3ft/s&#xA;cVY1HFLM9EBdj1P9TiqY2+lotGmPI/yjpiqOVVUAKAAOgGKt4qlfmb/jh3f+qv8AxIYqlP5Sf+TJ&#xA;8v8A/MUv/ETir7IxV2KuxV2KvhDUP977n/jK/wDxI4q+wtEP+4TT/wDmGh/5NjFUWTiqwnFVhOKq&#xA;bNiqXazoml6vbG31CBZUH2G6OhPdWG4OKvLPM35b6npnO40+t7ZCpIA/eoP8pR9r5r92KpBonmHW&#xA;NDuvrGnXDQsf7yPqjgdnQ7HFXrflX80tJ1bhbahx0+/NAOR/cyH/ACHP2T7N95xVmhOKqbNiqmTi&#xA;qmzYqsJxVTZsVU2bFVNmxVLtV1nTdMh9a+nWFTXip3ZqdlUbnFXn2vfmRfXXKHS0NrCdvWahlI9u&#xA;oX8TirD2M9xMWYtLK5qzElmJ8STiqNt9KOzTn/YD+JxVMEjSNeKKFXwGKrsVdirsVSvzN/xw7v8A&#xA;1V/4kMVSn8pP/Jk+X/8AmKX/AIicVfZGKuxV2KuxV8Iah/vfc/8AGV/+JHFX1/oh/wBwun/8w0P/&#xA;ACbGKosnFVhOKqbNiq0nFVhOKrCcVYv5l8iaTrHOeMC0vjv66D4WP+Wu1fn1xV5brnlzVtFm9O9i&#xA;pGTSOdd43+TfwO+Kp15W/MbWdF4W85N7p429GQ/Gg/4rftTwO3yxV6voXmjR9ct/VsJwzqKyQN8M&#xA;qV/mX+I2xVMWbFVhOKqbNiqmzYqg7/UbOxga4vJkghXqzmn0DxPsMVYBr/5nO3KHRo+I6fW5Rv8A&#xA;7BD+tvuxVg1zdXd7cGa4keed+rMSzH2xVEW+lu1GmPBf5R1xVMYoYol4xqFHfxxVUxV2KuxV2Kux&#xA;VK/M3/HDu/8AVX/iQxVKfyk/8mT5f/5il/4icVfZGKuxV2KuxV8Iah/vfc/8ZX/4kcVfXuin/cLY&#xA;f8w0P/JsYqiicVU2bFVpOKrCcVWE4qsJxVaTiqhcwQXMLwXEaywuKPG4DKR4UOKvP/Mf5a05XGit&#xA;7mzc/wDJtz+pvvxVg6vqGm3vJTJaXkB6iqOp/A4q9C8tfmoG422urxboL6Mbf89EH61+7FWfxXMF&#xA;xCs0EiywyCqSIQykexGKqdzcwW8TTTyLFEgq7uQqge5OKsF1/wDM+2h5QaPH9YkG31mQERj/AFV2&#xA;Lfh9OKvPtR1TUdSn9e9neeTtyOwr2Veg+jFW7fTZpKM/7tPfqfoxVMoLaGEfAu/djucVVcVdirsV&#xA;dirsVdirsVSvzN/xw7v/AFV/4kMVSn8pP/Jk+X/+Ypf+InFX2RirsVdirsVfCGof733P/GV/+JHF&#xA;X11op/3C2H/MND/ybGKolmxVaTiqwnFVhOKrCcVWk4qsJxVaTiqwnFUr1ry9pesRcLyKsgFI502k&#xA;X5Hw9jirzXzD5J1TSOUyD61ZDf10G6j/AC13p8+mKoLQvM2r6JLyspf3TGslu9Wib5rUUPuN8VU9&#xA;Y8watrE3qX05kANUiHwxr/qqNvp64qh7ewnmoacE/mP8BiqZW9lBDuoq/wDMeuKojFXYq7FXYq7F&#xA;XYq7FXYq7FUr8zf8cO7/ANVf+JDFUp/KT/yZPl//AJil/wCInFX2RirsVdirsVfCGof733P/ABlf&#xA;/iRxV9b6Mf8AcNYf8w8X/EBiqKJxVYTiqwnFVhOKrScVWE4qtJxVYTiq3FXYq0Tiryz8xNPsrPWI&#xA;vqsKwiaL1JFTYFuRFadB07YqkulwxOHdlDMpoK9sVTPFXYq7FXYq7FXYq7FXYq7FXYq7FUr8zf8A&#xA;HDu/9Vf+JDFUp/KT/wAmT5f/AOYpf+InFX2RirsVdirsVfCGof733P8Axlf/AIkcVfWmjH/cNYf8&#xA;w8X/ABAYqiicVWE4qsJxVaTiqwnFVpOKrCcVW4q7FWicVaxV5r+Z/wDx17X/AJh/+N2xVIdI/u5P&#xA;mP1Yqj8VdirsVdirsVdirsVdirsVdirsVSvzN/xw7v8A1V/4kMVSn8pP/Jk+X/8AmKX/AIicVfZG&#xA;KuxV2KuxV8Iah/vfc/8AGV/+JHFX1lox/wBw9h/zDxf8QGKoknFVhOKrScVWE4qtJxVYTiq3FXYq&#xA;0TirWKrScVebfmb/AMda1/4wf8btiqRaR/dyfMfqxVH4q7FXYq7FXYq7FXYq7FXYq7FXYqlfmb/j&#xA;h3f+qv8AxIYqlP5Sf+TJ8v8A/MUv/ETir7IxV2KuxV2KvhDUP977n/jK/wDxI4q+r9HP+4ex/wCY&#xA;eL/iAxVEk4qtJxVYTiq0nFVhOKrcVdirROKtYqtJxVYTirzj8zP+Ota/8YP+N2xVI9I/u5PmP1Yq&#xA;j8VdirsVdirsVdirsVdirsVdirsVSvzN/wAcO7/1V/4kMVSn8pP/ACZPl/8A5il/4icVfZGKuxV2&#xA;KuxV8Iah/vfc/wDGV/8AiRxV9WaOf9w9j/zDxf8AEBiqKJxVYTiq0nFVhOKrcVdirROKtYqtJxVY&#xA;Tiq0nFXnP5lGurWv/GD/AI3bFUk0j+7k+Y/ViqPxV2KuxV2KuxV2KuxV2KuxV2KuxVK/M3/HDu/9&#xA;Vf8AiQxVKfyk/wDJk+X/APmKX/iJxV9kYq7FXYq7FXwhqH+99z/xlf8A4kcVfVWjn/cRY/8AMPF/&#xA;xAYqiScVWk4qsJxVbirsVaJxVrFVpOKrCcVWk4qsZsVedfmP/wAdW2/4wf8AG7Yqk2kf3cnzH6sV&#xA;R+KuxV2KuxV2KuxV2KuxV2KuxV2KpX5m/wCOHd/6q/8AEhiqU/lJ/wCTJ8v/APMUv/ETir7IxV2K&#xA;uxV2KvhDUP8Ae+5/4yv/AMSOKvqbRZEfRrBkYMpt4qMpqD8A6UxVFk4qsJxVbirsVaJxVrFVpOKr&#xA;CcVWk4qsZsVUycVee/mKa6pbf8YP+N2xVJ9I/u5PmP1Yqj8VdirsVdirsVdirsVdirsVdirsVSvz&#xA;N/xw7v8A1V/4kMVSn8pP/Jk+X/8AmKX/AIicVfZGKuxV2KuxV8i/mN+U3mryrdT3ssX13SHkZl1C&#xA;3BKqGaoEybmM79/h8DiqS+VPPev+W5QLOb1bMmsllLUxGvUjuh91+muKva/Kf5iaD5kRY4n+q6hT&#xA;47KUjl7+m3Rx8t/bFWTYq7FWicVaxVaTiqwnFVpOKrGbFVMnFVNmxV5/+YX/AB07b/jD/wAbtiqU&#xA;6R/dyfMfqxVH4q7FXYq7FXYq7FXYq7FXYq7FXYqlfmYgaHdVNKhQP+CGKpT+Un/kyfL/APzFL/xE&#xA;4q+yMVdirsVdirTorqUcBlYEMpFQQeoIxV5B+YP/ADj1o2repf8AlkppWon4msyCLSQ+wFTEf9Uc&#xA;fYdcVfPmu+Xte8uakbLVrSWxvIzyTlsDQ7PG6/Cwr+0pxVmvlD84tRsOFproa+tB8K3Q/v0H+V/v&#xA;wfPf3OKvXtK1nTNWs1vNOuEuYG/bQ7g+DA7qfY4qi8VWk4qsJxVaTiqxmxVTJxVTZsVWE4qwH8wD&#xA;XU7f/jD/AMbtiqVaR/dyfMfqxVH4q7FXYq7FXYq7FXYq7FXYqtd0RS7sFVdyxNAB8zirHtU85WsF&#xA;Y7JfrEg29Q7Rj+LYqxO91G9vpedzKZG/ZXoo+SjbFXq35NflT5vfzHpnmS8tv0fplnKJgbmqSygK&#xA;aCOOnKhr9pqDwrir6XxV2KuxV2KuxV2KpZ5h8s6F5i09rDWbOO8tjuocfEjUpyRxRkb3U4q+efzB&#xA;/wCcfNb0b1b/AMtl9W01as1rSt3EP9VdpR/qjl/k98VeZaRresaHe/WdPuHtbhTxcDo1P2XQ7H5E&#xA;Yq9f8pfm7pep8LXVwun3xoqy1/cSH5n7Hybb3xVnvIEVBqDuCN+uKrScVWM2KqZOKqbNiqwnFVJm&#xA;xVgfn011K3/4w/8AGxxVLdI/u5PmP1Yqj8VdirsVdirsVdirsVdiqRap5ssLSscH+kzjain4Afdv&#xA;6YqxHUtZ1DUGrcSfu+qxLsg+j+uKsp8j/lF5w82mOe2t/qelt11G5BWMj/itftSf7EU8SMVfQnkf&#xA;8mfJ/lX07gQ/pLVVAJv7pQ3Fh3ij3WP26t/lYqzzFXYq7FXYq7FXYq7FXYq7FWCef/ye8reb1e5Z&#xA;P0frB+zqMCirH/i5NhJ+De+Kvm3zv+WvmnydccdTtudkxpBqMNXgfwHKnwN/ktQ+G2Kt+U/zF1zy&#xA;+Ug5fXNOGxtJSfhH/Fb7lP1e2KvYvLvnLRPMEPOxmpOorLayfDKn0dx7rtiqbk4qps2KrCcVUmbF&#xA;VJmrirB/PRrqMH/GH/jY4ql2kf3cnzH6sVR+KuxV2KuxV2KuxVKdU8y6dYVTl61wP91Ia0P+Uegx&#xA;ViGqeYdR1Cqu/pwH/dKbD6T1OKpn5O/LjzZ5umC6TZn6qDSS/mrHbp41eh5EfyqCfbFX0D5G/IPy&#xA;p5f9O71UDWtTWjcplpbxsP5Idw3zevsBir08AAAAUA6DFXYq7FXYq7FXYq7FXYq7FXYq7FXYqpXV&#xA;ra3dtJbXUKT20ylJYZVDoynqGVqgjFXiP5g/84528/q6h5PcQTGrPpMzfu2PX9zI32P9VtvcDFXh&#xA;V3Z6zoWqNBdRTadqVq26sGjkQ9iOh+RHXFWfeVvzckXhaeYF5r0F/GPiH/GRB1+a/ccVelWt7a3l&#xA;ulzayrPBIKpIhDA/dirbNiqkzVxVTZqYqwjzsa6hB/xi/wCNjiqB0j+7k+Y/ViqPxV2KuxV2Kpfq&#xA;euafpyn15Ky02hTdz/T6cVYjqnmrUL2scR+rQH9hD8RH+U39MVa8s+T/ADJ5nvPqui2Ml04P7yQf&#xA;DFGD3kkair9J37Yq978jf846aHphjvPM0o1W9FGFmlVtUI3+Lo0v00HipxV69b29vbQpBbxJDBGA&#xA;scUahUVR0CqKADFVTFXYq7FXYq7FXYq7FXYq7FXYq7FXYq7FXYq7FUh83eRvLXmyy+q6zaLMVBEF&#xA;yvwzxE945BuPkdj3GKvnH8wfyM8y+WPVvtPDatoy1YzxL++iXr+9iFdh/MtR3PHFWE6F5l1fQ7j1&#xA;bCcqrGskDbxv/rL/ABG+KvVPLX5iaTrPC3uCLK/O3pOfgc/5D/wO/wA8VZMzUxVRZv7BirDPOZrf&#xA;wf8AGL/jY4qg9I/u5PmP1Yqj8VdiqEv9UsbCPncyhCRVU6sfkuKsS1TzheXFY7MG2h/n/wB2EfP9&#xA;n6PvxVLtG0PWtdvxZaVaS315JuY4gWIFd2Y9FG+7MaYq9y8jf84228Xp3nm+49Z9mGl2zEIPaWUU&#xA;Y+4Sn+scVe2abpenaXZx2WnW0VpaRCkcEKhEHjsO57nFUTirsVdirsVdirsVdirsVdirsVdirsVd&#xA;irsVdirsVdirsVdirzL8wfyK8t+ZfVvtMC6RrLVYyRr+4lY7/vYx0JP7a7+IbFXzn5s8k+ZPKl99&#xA;U1q0aDkT6NwvxQygd45Bsfl1HcDFUf5c/MPVNM4W95W9shQBWP7xB/ksevyP4Yq9I0vXdM1W39ey&#xA;mEg/bQ7Op8GU74qx3zea30P/ABj/AONjiqG0j+7k+Y/ViqIu721tIjLcyrEniep+Q6nFWK6p50me&#xA;senr6a9PWcVY/JegxVIba21LVL5YLaKa9vZzRI41aWRz7AVJxV7L5G/5xu1C5Md55tn+pwbEabbk&#xA;NMw8JJBVU+S1PuMVe7aB5b0Ly/YrY6NZRWVsOqxj4mP8zuas592JxVMsVdirsVdirsVdirsVdirs&#xA;VdirsVdirsVdirsVdirsVdirsVdirsVdiqE1XSdM1axksNTtY7yzlFJIJVDKfA79COxG4xV4J+YP&#xA;/OOd3berqHk9zcwCrPpUrfvVHX9zIftj/Jb4vdjirxlH1PSb9gPVsr63Yq6MDHIjDqrKaH5g4qnr&#xA;eb31Bov0gAkqLw9ZR8Lb1qR2PyxVZJ5sNvG8VkgZ2P8AfP0HyX+uKpFLNe39yC7PcXEhCoN2YknZ&#xA;VA/UMVeqeRv+cePMer+nd+YWOjWBIP1cgG7df9Q/DF/s9/8AJxV795U8j+WPKtr6Gi2SQMw4y3J+&#xA;KeTv8ch+I79ungMVT3FXYq7FXYq7FXYq7FXYq7FXYq7FXYq7FXYq7FXYq7FXYq7FXYq7FXYq7FXY&#xA;q7FXYqxTzx+WXlbzjbn9JW/pX6rxh1GCizpToCaUdf8AJb6KYq+bfP35QeavKDvPJH9f0ivwajbq&#xA;SoFdvWTcxn5/D4E4qj/I35FebvMnp3V6h0fSm39e4U+s6/8AFcJox+bUHhXFX0H5L/LHyj5RiU6b&#xA;aepfUpJqM9JJ28aGlEHsgGKsrxV2KuxV2KuxV2KuxV2KuxV2KuxV2KuxV2Kv/9k=</xmpGImg:image>
               </rdf:li>
            </rdf:Alt>
         </xmp:Thumbnails>
         <xmpMM:RenditionClass>proof:pdf</xmpMM:RenditionClass>
         <xmpMM:OriginalDocumentID>uuid:65E6390686CF11DBA6E2D887CEACB407</xmpMM:OriginalDocumentID>
         <xmpMM:DocumentID>xmp.did:4f841111-5ab5-1b42-b6c8-48b8c0f54b1a</xmpMM:DocumentID>
         <xmpMM:InstanceID>xmp.iid:4f841111-5ab5-1b42-b6c8-48b8c0f54b1a</xmpMM:InstanceID>
         <xmpMM:DerivedFrom rdf:parseType="Resource">
            <stRef:instanceID>uuid:d19218f9-54b8-4e23-bc9d-defdb1af1b23</stRef:instanceID>
            <stRef:documentID>xmp.did:92a02c45-69f1-2c47-b954-87402ea489a0</stRef:documentID>
            <stRef:originalDocumentID>uuid:65E6390686CF11DBA6E2D887CEACB407</stRef:originalDocumentID>
            <stRef:renditionClass>proof:pdf</stRef:renditionClass>
         </xmpMM:DerivedFrom>
         <xmpMM:History>
            <rdf:Seq>
               <rdf:li rdf:parseType="Resource">
                  <stEvt:action>saved</stEvt:action>
                  <stEvt:instanceID>xmp.iid:7b142d01-f123-4ea9-aa31-d451c2b0aba7</stEvt:instanceID>
                  <stEvt:when>2015-09-01T11:22:34+01:00</stEvt:when>
                  <stEvt:softwareAgent>Adobe Illustrator CC 2015 (Macintosh)</stEvt:softwareAgent>
                  <stEvt:changed>/</stEvt:changed>
               </rdf:li>
               <rdf:li rdf:parseType="Resource">
                  <stEvt:action>saved</stEvt:action>
                  <stEvt:instanceID>xmp.iid:97be2007-5698-478b-943f-c832b9f3e306</stEvt:instanceID>
                  <stEvt:when>2016-01-27T15:53:23Z</stEvt:when>
                  <stEvt:softwareAgent>Adobe Illustrator CC 2015 (Macintosh)</stEvt:softwareAgent>
                  <stEvt:changed>/</stEvt:changed>
               </rdf:li>
               <rdf:li rdf:parseType="Resource">
                  <stEvt:action>converted</stEvt:action>
                  <stEvt:parameters>from application/postscript to application/vnd.adobe.illustrator</stEvt:parameters>
               </rdf:li>
               <rdf:li rdf:parseType="Resource">
                  <stEvt:action>saved</stEvt:action>
                  <stEvt:instanceID>xmp.iid:3e5b460e-4d56-44d0-8abc-338ccf94e2e2</stEvt:instanceID>
                  <stEvt:when>2016-02-12T11:44:57Z</stEvt:when>
                  <stEvt:softwareAgent>Adobe Illustrator CC 2015 (Macintosh)</stEvt:softwareAgent>
                  <stEvt:changed>/</stEvt:changed>
               </rdf:li>
               <rdf:li rdf:parseType="Resource">
                  <stEvt:action>saved</stEvt:action>
                  <stEvt:instanceID>xmp.iid:4f841111-5ab5-1b42-b6c8-48b8c0f54b1a</stEvt:instanceID>
                  <stEvt:when>2016-03-16T16:55:01-07:00</stEvt:when>
                  <stEvt:softwareAgent>Adobe Illustrator CC 2015 (Windows)</stEvt:softwareAgent>
                  <stEvt:changed>/</stEvt:changed>
               </rdf:li>
            </rdf:Seq>
         </xmpMM:History>
         <illustrator:StartupProfile>Web</illustrator:StartupProfile>
         <xmpTPg:NPages>1</xmpTPg:NPages>
         <xmpTPg:HasVisibleTransparency>False</xmpTPg:HasVisibleTransparency>
         <xmpTPg:HasVisibleOverprint>False</xmpTPg:HasVisibleOverprint>
         <xmpTPg:MaxPageSize rdf:parseType="Resource">
            <stDim:w>32.000000</stDim:w>
            <stDim:h>32.000000</stDim:h>
            <stDim:unit>Pixels</stDim:unit>
         </xmpTPg:MaxPageSize>
         <xmpTPg:PlateNames>
            <rdf:Seq>
               <rdf:li>Cyan</rdf:li>
               <rdf:li>Magenta</rdf:li>
               <rdf:li>Yellow</rdf:li>
               <rdf:li>Black</rdf:li>
            </rdf:Seq>
         </xmpTPg:PlateNames>
         <xmpTPg:SwatchGroups>
            <rdf:Seq>
               <rdf:li rdf:parseType="Resource">
                  <xmpG:groupName>Default Swatch Group</xmpG:groupName>
                  <xmpG:groupType>0</xmpG:groupType>
                  <xmpG:Colorants>
                     <rdf:Seq>
                        <rdf:li rdf:parseType="Resource">
                           <xmpG:swatchName>Natural Blue 4</xmpG:swatchName>
                           <xmpG:mode>RGB</xmpG:mode>
                           <xmpG:type>PROCESS</xmpG:type>
                           <xmpG:red>20</xmpG:red>
                           <xmpG:green>115</xmpG:green>
                           <xmpG:blue>145</xmpG:blue>
                        </rdf:li>
                        <rdf:li rdf:parseType="Resource">
                           <xmpG:swatchName>White</xmpG:swatchName>
                           <xmpG:mode>RGB</xmpG:mode>
                           <xmpG:type>PROCESS</xmpG:type>
                           <xmpG:red>255</xmpG:red>
                           <xmpG:green>255</xmpG:green>
                           <xmpG:blue>255</xmpG:blue>
                        </rdf:li>
                        <rdf:li rdf:parseType="Resource">
                           <xmpG:swatchName>Pure Black 6</xmpG:swatchName>
                           <xmpG:mode>RGB</xmpG:mode>
                           <xmpG:type>PROCESS</xmpG:type>
                           <xmpG:red>70</xmpG:red>
                           <xmpG:green>70</xmpG:green>
                           <xmpG:blue>70</xmpG:blue>
                        </rdf:li>
                     </rdf:Seq>
                  </xmpG:Colorants>
               </rdf:li>
            </rdf:Seq>
         </xmpTPg:SwatchGroups>
         <pdf:Producer>Adobe PDF library 15.00</pdf:Producer>
      </rdf:Description>
   </rdf:RDF>
</x:xmpmeta>
                                                                                                    
                                                                                                    
                                                                                                    
                                                                                                    
                                                                                                    
                                                                                                    
                                                                                                    
                                                                                                    
                                                                                                    
                                                                                                    
                                                                                                    
                                                                                                    
                                                                                                    
                                                                                                    
                                                                                                    
                                                                                                    
                                                                                                    
                                                                                                    
                                                                                                    
                                                                                                    
                           
<?xpacket end="w"?>
	</metadata>
<g>
	<g>
		<polygon class="st0" points="3.5,7.2 2.6,7.7 2.8,7.9 		"/>
		<polygon class="st0" points="3.5,7.2 2.8,7.9 3.1,8.1 4.4,6.7 		"/>
		<polygon class="st0" points="4.4,6.7 3.1,8.1 3.4,8.2 5.4,6.2 		"/>
		<polygon class="st1" points="5.4,6.2 3.4,8.2 3.6,8.4 6.3,5.7 		"/>
		<polygon class="st1" points="6.3,5.7 3.6,8.4 3.9,8.6 7.2,5.2 		"/>
		<polygon class="st1" points="7.2,5.2 3.9,8.6 4.2,8.7 8.1,4.7 		"/>
		<polygon class="st2" points="8.1,4.7 4.2,8.7 4.4,8.9 9.1,4.2 		"/>
		<polygon class="st2" points="9.1,4.2 4.4,8.9 4.7,9 10,3.7 		"/>
		<polygon class="st3" points="10,3.7 4.7,9 5,9.2 10.9,3.2 		"/>
		<polygon class="st4" points="10.9,3.2 5,9.2 5.2,9.4 11.9,2.7 		"/>
		<polygon class="st4" points="11.9,2.7 5.2,9.4 5.5,9.5 12.8,2.2 		"/>
		<polygon class="st5" points="12.8,2.2 5.5,9.5 5.8,9.7 13.7,1.7 		"/>
		<polygon class="st5" points="13.7,1.7 5.8,9.7 6,9.9 14.7,1.2 		"/>
		<polygon class="st6" points="14.7,1.2 6,9.9 6.3,10 15.6,0.7 		"/>
		<polygon class="st7" points="6.3,10 6.6,10.2 16.1,0.6 16,0.5 15.6,0.7 		"/>
		<polygon class="st8" points="16.1,0.6 6.6,10.2 6.8,10.3 16.4,0.8 		"/>
		<polygon class="st8" points="16.4,0.8 6.8,10.3 7.1,10.5 16.7,0.9 		"/>
		<polygon class="st9" points="16.7,0.9 7.1,10.5 7.3,10.7 16.9,1.1 		"/>
		<polygon class="st10" points="16.9,1.1 7.3,10.7 7.6,10.8 17.2,1.2 		"/>
		<polygon class="st11" points="17.2,1.2 7.6,10.8 7.9,11 17.5,1.4 		"/>
		<polygon class="st12" points="17.5,1.4 7.9,11 8.1,11.2 17.7,1.6 		"/>
		<polygon class="st12" points="17.7,1.6 8.1,11.2 8.4,11.3 18,1.7 		"/>
		<polygon class="st13" points="18,1.7 8.4,11.3 8.7,11.5 18.3,1.9 		"/>
		<polygon class="st14" points="18.3,1.9 8.7,11.5 8.9,11.7 18.5,2.1 		"/>
		<polygon class="st15" points="18.5,2.1 8.9,11.7 9.2,11.8 18.8,2.2 		"/>
		<polygon class="st16" points="18.8,2.2 9.2,11.8 9.5,12 19.1,2.4 		"/>
		<polygon class="st17" points="19.1,2.4 9.5,12 9.7,12.1 19.3,2.6 		"/>
		<polygon class="st18" points="19.3,2.6 9.7,12.1 10,12.3 19.6,2.7 		"/>
		<polygon class="st19" points="19.6,2.7 10,12.3 10.3,12.5 19.9,2.9 		"/>
		<polygon class="st20" points="19.9,2.9 10.3,12.5 10.5,12.6 20.1,3 		"/>
		<polygon class="st21" points="20.1,3 10.5,12.6 10.8,12.8 20.4,3.2 		"/>
		<polygon class="st22" points="20.4,3.2 10.8,12.8 11.1,13 20.7,3.4 		"/>
		<polygon class="st23" points="20.7,3.4 11.1,13 11.3,13.1 20.9,3.5 		"/>
		<polygon class="st24" points="20.9,3.5 11.3,13.1 11.6,13.3 21.2,3.7 		"/>
		<polygon class="st25" points="21.2,3.7 11.6,13.3 11.9,13.5 21.5,3.9 		"/>
		<polygon class="st26" points="21.5,3.9 11.9,13.5 12.1,13.6 21.7,4 		"/>
		<polygon class="st27" points="21.7,4 12.1,13.6 12.4,13.8 22,4.2 		"/>
		<polygon class="st28" points="22,4.2 12.4,13.8 12.7,13.9 22.3,4.4 		"/>
		<polygon class="st29" points="22.3,4.4 12.7,13.9 12.9,14.1 22.5,4.5 		"/>
		<polygon class="st30" points="22.5,4.5 12.9,14.1 13.2,14.3 22.8,4.7 		"/>
		<polygon class="st31" points="22.8,4.7 13.2,14.3 13.5,14.4 23.1,4.8 		"/>
		<polygon class="st32" points="23.1,4.8 13.5,14.4 13.7,14.6 23.3,5 		"/>
		<polygon class="st33" points="23.3,5 13.7,14.6 14,14.8 23.6,5.2 		"/>
		<polygon class="st34" points="23.6,5.2 14,14.8 14.3,14.9 23.9,5.3 		"/>
		<polygon class="st35" points="23.9,5.3 14.3,14.9 14.5,15.1 24.1,5.5 		"/>
		<polygon class="st36" points="24.1,5.5 14.5,15.1 14.8,15.3 24.4,5.7 		"/>
		<polygon class="st37" points="24.4,5.7 14.8,15.3 15.1,15.4 24.7,5.8 		"/>
		<polygon class="st38" points="24.7,5.8 15.1,15.4 15.3,15.6 24.9,6 		"/>
		<polygon class="st39" points="24.9,6 15.3,15.6 15.6,15.7 25.2,6.2 		"/>
		<polygon class="st40" points="15.6,15.7 15.9,15.9 25.4,6.3 25.2,6.2 		"/>
		<polygon class="st41" points="25.7,6.5 25.4,6.3 15.9,15.9 16,16 16.4,15.8 		"/>
		<polygon class="st42" points="25.7,6.5 16.4,15.8 17.3,15.3 26,6.6 		"/>
		<polygon class="st43" points="26,6.6 17.3,15.3 18.3,14.8 26.2,6.8 		"/>
		<polygon class="st44" points="26.2,6.8 18.3,14.8 19.2,14.3 26.5,7 		"/>
		<polygon class="st45" points="26.5,7 19.2,14.3 20.1,13.8 26.8,7.1 		"/>
		<polygon class="st46" points="26.8,7.1 20.1,13.8 21.1,13.3 27,7.3 		"/>
		<polygon class="st47" points="27,7.3 21.1,13.3 22,12.8 27.3,7.5 		"/>
		<polygon class="st48" points="22,12.8 22.9,12.3 27.6,7.6 27.3,7.5 		"/>
		<polygon class="st49" points="23.9,11.8 27.8,7.8 27.6,7.6 22.9,12.3 		"/>
		<polygon class="st50" points="24.8,11.3 28.1,7.9 27.8,7.8 23.9,11.8 		"/>
		<polygon class="st51" points="25.7,10.8 28.4,8.1 28.1,7.9 24.8,11.3 		"/>
		<polygon class="st52" points="26.6,10.3 28.6,8.3 28.4,8.1 25.7,10.8 		"/>
		<polygon class="st53" points="27.6,9.8 28.9,8.4 28.6,8.3 26.6,10.3 		"/>
		<polygon class="st54" points="28.5,9.3 29.2,8.6 28.9,8.4 27.6,9.8 		"/>
		<polygon class="st55" points="28.5,9.3 29.4,8.8 29.2,8.6 		"/>
	</g>
	<g>
		<polygon class="st13" points="2.6,7.7 2.6,8.2 2.9,7.9 		"/>
		<polygon class="st14" points="2.9,7.9 2.6,8.2 2.6,8.7 3.2,8.1 		"/>
		<polygon class="st15" points="3.2,8.1 2.6,8.7 2.6,9.2 3.5,8.3 		"/>
		<polygon class="st16" points="3.5,8.3 2.6,9.2 2.6,9.7 3.8,8.5 		"/>
		<polygon class="st17" points="3.8,8.5 2.6,9.7 2.6,10.2 4.1,8.7 		"/>
		<polygon class="st18" points="4.1,8.7 2.6,10.2 2.6,10.7 4.4,8.9 		"/>
		<polygon class="st19" points="4.4,8.9 2.6,10.7 2.6,11.2 4.7,9 		"/>
		<polygon class="st20" points="4.7,9 2.6,11.2 2.6,11.6 5,9.2 		"/>
		<polygon class="st21" points="5,9.2 2.6,11.6 2.6,12.1 5.3,9.4 		"/>
		<polygon class="st22" points="5.3,9.4 2.6,12.1 2.6,12.6 5.6,9.6 		"/>
		<polygon class="st23" points="5.6,9.6 2.6,12.6 2.6,13.1 5.9,9.8 		"/>
		<polygon class="st24" points="5.9,9.8 2.6,13.1 2.6,13.6 6.2,10 		"/>
		<polygon class="st25" points="6.2,10 2.6,13.6 2.6,14.1 6.5,10.2 		"/>
		<polygon class="st26" points="6.5,10.2 2.6,14.1 2.6,14.6 6.8,10.3 		"/>
		<polygon class="st56" points="6.8,10.3 2.6,14.6 2.6,15.1 7.1,10.5 		"/>
		<polygon class="st27" points="7.1,10.5 2.6,15.1 2.6,15.6 7.4,10.7 		"/>
		<polygon class="st28" points="7.4,10.7 2.6,15.6 2.6,16.1 7.7,10.9 		"/>
		<polygon class="st29" points="7.7,10.9 2.6,16.1 2.6,16.5 8,11.1 		"/>
		<polygon class="st30" points="8,11.1 2.6,16.5 2.6,17 8.3,11.3 		"/>
		<polygon class="st57" points="8.3,11.3 2.6,17 2.6,17.5 8.6,11.5 		"/>
		<polygon class="st32" points="8.6,11.5 2.6,17.5 2.6,18 8.9,11.6 		"/>
		<polygon class="st33" points="8.9,11.6 2.6,18 2.6,18.5 9.2,11.8 		"/>
		<polygon class="st34" points="9.2,11.8 2.6,18.5 2.6,19 9.5,12 		"/>
		<polygon class="st35" points="9.5,12 2.6,19 2.6,19.5 9.8,12.2 		"/>
		<polygon class="st36" points="9.8,12.2 2.6,19.5 2.6,20 10.1,12.4 		"/>
		<polygon class="st58" points="10.1,12.4 2.6,20 2.6,20.5 10.4,12.6 		"/>
		<polygon class="st37" points="10.4,12.6 2.6,20.5 2.6,20.9 10.7,12.8 		"/>
		<polygon class="st38" points="10.7,12.8 2.6,20.9 2.6,21.4 11.1,13 		"/>
		<polygon class="st39" points="11.1,13 2.6,21.4 2.6,21.9 11.4,13.1 		"/>
		<polygon class="st59" points="11.4,13.1 2.6,21.9 2.6,22.4 11.7,13.3 		"/>
		<polygon class="st40" points="11.7,13.3 2.6,22.4 2.6,22.9 12,13.5 		"/>
		<polygon class="st41" points="12.3,13.7 12,13.5 2.6,22.9 2.6,23.2 2.7,23.3 		"/>
		<polygon class="st42" points="12.3,13.7 2.7,23.3 3,23.5 12.6,13.9 		"/>
		<polygon class="st60" points="12.6,13.9 3,23.5 3.3,23.7 12.9,14.1 		"/>
		<polygon class="st43" points="12.9,14.1 3.3,23.7 3.6,23.9 13.2,14.3 		"/>
		<polygon class="st44" points="13.2,14.3 3.6,23.9 3.9,24 13.5,14.4 		"/>
		<polygon class="st45" points="13.5,14.4 3.9,24 4.2,24.2 13.8,14.6 		"/>
		<polygon class="st61" points="4.2,24.2 4.5,24.4 14.1,14.8 13.8,14.6 		"/>
		<polygon class="st61" points="4.7,24.6 14.3,15 14.1,14.8 4.5,24.4 		"/>
		<polygon class="st61" points="4.9,24.7 14.5,15.1 14.3,15 4.7,24.6 		"/>
		<polygon class="st61" points="5.1,24.8 14.7,15.2 14.5,15.1 4.9,24.7 		"/>
		<polygon class="st61" points="5.4,25 15,15.4 14.7,15.2 5.1,24.8 		"/>
		<polygon class="st46" points="5.6,25.1 15.2,15.5 15,15.4 5.4,25 		"/>
		<polygon class="st46" points="5.8,25.2 15.4,15.6 15.2,15.5 5.6,25.1 		"/>
		<polygon class="st46" points="6,25.4 15.6,15.8 15.4,15.6 5.8,25.2 		"/>
		<polygon class="st47" points="6.3,25.5 15.9,15.9 15.6,15.8 6,25.4 		"/>
		<polygon class="st47" points="6.3,25.5 6.5,25.6 16,16.1 16,16 15.9,15.9 		"/>
		<polygon class="st47" points="6.7,25.8 16,16.5 16,16.1 6.5,25.6 		"/>
		<polygon class="st62" points="6.9,25.9 16,16.8 16,16.5 6.7,25.8 		"/>
		<polygon class="st62" points="7.1,26 16,17.2 16,16.8 6.9,25.9 		"/>
		<polygon class="st48" points="7.4,26.2 16,17.5 16,17.2 7.1,26 		"/>
		<polygon class="st49" points="7.6,26.3 16,17.9 16,17.5 7.4,26.2 		"/>
		<polygon class="st49" points="7.8,26.5 16,18.3 16,17.9 7.6,26.3 		"/>
		<polygon class="st63" points="8,26.6 16,18.6 16,18.3 7.8,26.5 		"/>
		<polygon class="st50" points="8.2,26.7 16,19 16,18.6 8,26.6 		"/>
		<polygon class="st50" points="8.5,26.9 16,19.3 16,19 8.2,26.7 		"/>
		<polygon class="st51" points="8.7,27 16,19.7 16,19.3 8.5,26.9 		"/>
		<polygon class="st64" points="8.9,27.1 16,20 16,19.7 8.7,27 		"/>
		<polygon class="st52" points="9.1,27.3 16,20.4 16,20 8.9,27.1 		"/>
		<polygon class="st53" points="9.4,27.4 16,20.8 16,20.4 9.1,27.3 		"/>
		<polygon class="st54" points="9.6,27.5 16,21.1 16,20.8 9.4,27.4 		"/>
		<polygon class="st65" points="9.8,27.7 16,21.5 16,21.1 9.6,27.5 		"/>
		<polygon class="st55" points="10,27.8 16,21.8 16,21.5 9.8,27.7 		"/>
		<polygon class="st66" points="10.2,28 16,22.2 16,21.8 10,27.8 		"/>
		<polygon class="st67" points="10.5,28.1 16,22.5 16,22.2 10.2,28 		"/>
		<polygon class="st68" points="10.7,28.2 16,22.9 16,22.5 10.5,28.1 		"/>
		<polygon class="st69" points="10.9,28.4 16,23.3 16,22.9 10.7,28.2 		"/>
		<polygon class="st70" points="11.1,28.5 16,23.6 16,23.3 10.9,28.4 		"/>
		<polygon class="st71" points="11.3,28.6 16,24 16,23.6 11.1,28.5 		"/>
		<polygon class="st72" points="11.6,28.8 16,24.3 16,24 11.3,28.6 		"/>
		<polygon class="st73" points="11.8,28.9 16,24.7 16,24.3 11.6,28.8 		"/>
		<polygon class="st74" points="12,29 16,25.1 16,24.7 11.8,28.9 		"/>
		<polygon class="st75" points="12.2,29.2 16,25.4 16,25.1 12,29 		"/>
		<polygon class="st76" points="12.5,29.3 16,25.8 16,25.4 12.2,29.2 		"/>
		<polygon class="st77" points="12.7,29.5 16,26.1 16,25.8 12.5,29.3 		"/>
		<polygon class="st78" points="12.9,29.6 16,26.5 16,26.1 12.7,29.5 		"/>
		<polygon class="st79" points="13.1,29.7 16,26.8 16,26.5 12.9,29.6 		"/>
		<polygon class="st80" points="13.3,29.9 16,27.2 16,26.8 13.1,29.7 		"/>
		<polygon class="st81" points="13.6,30 16,27.6 16,27.2 13.3,29.9 		"/>
		<polygon class="st82" points="13.8,30.1 16,27.9 16,27.6 13.6,30 		"/>
		<polygon class="st83" points="14,30.3 16,28.3 16,27.9 13.8,30.1 		"/>
		<polygon class="st84" points="14.2,30.4 16,28.6 16,28.3 14,30.3 		"/>
		<polygon class="st85" points="14.4,30.5 16,29 16,28.6 14.2,30.4 		"/>
		<polygon class="st86" points="14.7,30.7 16,29.3 16,29 14.4,30.5 		"/>
		<polygon class="st87" points="14.9,30.8 16,29.7 16,29.3 14.7,30.7 		"/>
		<polygon class="st88" points="15.1,30.9 16,30.1 16,29.7 14.9,30.8 		"/>
		<polygon class="st89" points="15.3,31.1 16,30.4 16,30.1 15.1,30.9 		"/>
		<polygon class="st90" points="15.5,31.2 16,30.8 16,30.4 15.3,31.1 		"/>
		<polygon class="st91" points="15.8,31.4 16,31.1 16,30.8 15.5,31.2 		"/>
		<polygon class="st91" points="16,31.5 16,31.1 15.8,31.4 		"/>
	</g>
	<g>
		<polygon class="st92" points="16,16 16,31.5 29.4,24.3 29.4,8.8 		"/>
	</g>
	<polygon class="st93" points="29.7,9.2 29.2,8.3 16,15.4 2.8,7.3 2.3,8.2 15.5,16.3 15.5,31.5 16.5,31.5 16.5,16.3 	"/>
	<g>
		<path class="st94" d="M16,32.1L2.1,23.5V7.4L16-0.1l13.9,8.6v16.1L16,32.1z M3.1,23l12.9,8l12.9-7V9l-13-8L3.1,8V23z"/>
	</g>
</g>
<rect class="st95" width="32" height="32"/>
</svg>
