<?xml version="1.0" encoding="utf-8"?>
<!-- Generator: Adobe Illustrator 19.2.1, SVG Export Plug-In . SVG Version: 6.00 Build 0)  -->
<svg version="1.1" id="Layer_1" xmlns="http://www.w3.org/2000/svg" xmlns:xlink="http://www.w3.org/1999/xlink" x="0px" y="0px"
	 viewBox="0 0 32 32" style="enable-background:new 0 0 32 32;" xml:space="preserve">
<style type="text/css">
	.st0{fill:#3C91AF;}
	.st1{fill:#CDE6EB;}
	.st2{fill:#CCE6EB;}
	.st3{fill:#CCE5EB;}
	.st4{fill:#CCE5EA;}
	.st5{fill:#CBE5EA;}
	.st6{fill:#CAE4EA;}
	.st7{fill:#C9E4EA;}
	.st8{fill:#C9E4E9;}
	.st9{fill:#C8E3E9;}
	.st10{fill:#C7E3E9;}
	.st11{fill:#C6E2E8;}
	.st12{fill:#C5E2E8;}
	.st13{fill:#C4E1E8;}
	.st14{fill:#C3E1E7;}
	.st15{fill:#C2E0E7;}
	.st16{fill:#C1E0E7;}
	.st17{fill:#C1DFE6;}
	.st18{fill:#C0DFE6;}
	.st19{fill:#BFDEE6;}
	.st20{fill:#BEDEE5;}
	.st21{fill:#BDDDE5;}
	.st22{fill:#BCDDE4;}
	.st23{fill:#BBDCE4;}
	.st24{fill:#BADCE4;}
	.st25{fill:#B9DBE3;}
	.st26{fill:#B8DBE3;}
	.st27{fill:#B7DAE2;}
	.st28{fill:#B6DAE2;}
	.st29{fill:#B5D9E2;}
	.st30{fill:#B4D8E1;}
	.st31{fill:#B2D8E1;}
	.st32{fill:#B1D7E0;}
	.st33{fill:#B0D6E0;}
	.st34{fill:#AFD6DF;}
	.st35{fill:#AED5DF;}
	.st36{fill:#ADD5DF;}
	.st37{fill:#ABD4DE;}
	.st38{fill:#AAD3DE;}
	.st39{fill:#A9D3DD;}
	.st40{fill:#A8D2DD;}
	.st41{fill:#A6D1DC;}
	.st42{fill:#A5D1DC;}
	.st43{fill:#A4D0DB;}
	.st44{fill:#A3CFDB;}
	.st45{fill:#A1CEDA;}
	.st46{fill:#A0CEDA;}
	.st47{fill:#9FCDD9;}
	.st48{fill:#9DCCD9;}
	.st49{fill:#9CCCD8;}
	.st50{fill:#9BCBD8;}
	.st51{fill:#99CAD7;}
	.st52{fill:#98C9D6;}
	.st53{fill:#96C9D6;}
	.st54{fill:#95C8D5;}
	.st55{fill:#93C7D5;}
	.st56{fill:#92C6D4;}
	.st57{fill:#90C5D4;}
	.st58{fill:#8FC5D3;}
	.st59{fill:#8EC4D3;}
	.st60{fill:#8CC3D2;}
	.st61{fill:#AFD7E1;}
	.st62{fill:#AED6E0;}
	.st63{fill:#ADD6E0;}
	.st64{fill:#ABD5DF;}
	.st65{fill:#AAD4DF;}
	.st66{fill:#A9D3DE;}
	.st67{fill:#A8D3DE;}
	.st68{fill:#A6D2DD;}
	.st69{fill:#A5D1DD;}
	.st70{fill:#A4D1DC;}
	.st71{fill:#A3D0DC;}
	.st72{fill:#A2CFDB;}
	.st73{fill:#A0CEDB;}
	.st74{fill:#9FCEDA;}
	.st75{fill:#9ECDDA;}
	.st76{fill:#9CCCD9;}
	.st77{fill:#99CAD8;}
	.st78{fill:#98CAD8;}
	.st79{fill:#97C9D7;}
	.st80{fill:#96C8D7;}
	.st81{fill:#95C8D6;}
	.st82{fill:#94C7D6;}
	.st83{fill:#93C6D5;}
	.st84{fill:#92C6D5;}
	.st85{fill:#8FC5D4;}
	.st86{fill:#8DC3D3;}
	.st87{fill:#8BC2D2;}
	.st88{fill:#8AC1D2;}
	.st89{fill:#89C1D1;}
	.st90{fill:#88C0D1;}
	.st91{fill:#87C0D0;}
	.st92{fill:#86BFD0;}
	.st93{fill:#85BECF;}
	.st94{fill:#84BECF;}
	.st95{fill:#83BDCF;}
	.st96{fill:#82BDCE;}
	.st97{fill:#81BCCE;}
	.st98{fill:#80BCCD;}
	.st99{fill:#7FBBCD;}
	.st100{fill:#7EBBCD;}
	.st101{fill:#7DBACC;}
	.st102{fill:#7CB9CC;}
	.st103{fill:#7BB8CB;}
	.st104{fill:#7AB8CB;}
	.st105{fill:#79B7CA;}
	.st106{fill:#78B7CA;}
	.st107{fill:#77B7CA;}
	.st108{fill:#77B6CA;}
	.st109{fill:#76B6C9;}
	.st110{fill:#75B5C9;}
	.st111{fill:#74B5C8;}
	.st112{fill:#73B4C8;}
	.st113{fill:#147391;}
	.st114{fill:#464646;}
	.st115{fill:none;}
</style>
<metadata><?xpacket begin="﻿" id="W5M0MpCehiHzreSzNTczkc9d"?>
<x:xmpmeta xmlns:x="adobe:ns:meta/" x:xmptk="Adobe XMP Core 5.6-c111 79.158366, 2015/09/25-01:12:00        ">
   <rdf:RDF xmlns:rdf="http://www.w3.org/1999/02/22-rdf-syntax-ns#">
      <rdf:Description rdf:about=""
            xmlns:dc="http://purl.org/dc/elements/1.1/"
            xmlns:xmp="http://ns.adobe.com/xap/1.0/"
            xmlns:xmpGImg="http://ns.adobe.com/xap/1.0/g/img/"
            xmlns:xmpMM="http://ns.adobe.com/xap/1.0/mm/"
            xmlns:stRef="http://ns.adobe.com/xap/1.0/sType/ResourceRef#"
            xmlns:stEvt="http://ns.adobe.com/xap/1.0/sType/ResourceEvent#"
            xmlns:illustrator="http://ns.adobe.com/illustrator/1.0/"
            xmlns:xmpTPg="http://ns.adobe.com/xap/1.0/t/pg/"
            xmlns:stDim="http://ns.adobe.com/xap/1.0/sType/Dimensions#"
            xmlns:xmpG="http://ns.adobe.com/xap/1.0/g/"
            xmlns:pdf="http://ns.adobe.com/pdf/1.3/">
         <dc:format>image/svg+xml</dc:format>
         <dc:title>
            <rdf:Alt>
               <rdf:li xml:lang="x-default">typeItemRevision32</rdf:li>
            </rdf:Alt>
         </dc:title>
         <xmp:CreatorTool>Adobe Illustrator CC 2015 (Windows)</xmp:CreatorTool>
         <xmp:CreateDate>2016-03-16T16:55:10-07:00</xmp:CreateDate>
         <xmp:ModifyDate>2016-03-16T16:55:10-07:00</xmp:ModifyDate>
         <xmp:MetadataDate>2016-03-16T16:55:10-07:00</xmp:MetadataDate>
         <xmp:Thumbnails>
            <rdf:Alt>
               <rdf:li rdf:parseType="Resource">
                  <xmpGImg:width>256</xmpGImg:width>
                  <xmpGImg:height>256</xmpGImg:height>
                  <xmpGImg:format>JPEG</xmpGImg:format>
                  <xmpGImg:image>/9j/4AAQSkZJRgABAgEASABIAAD/7QAsUGhvdG9zaG9wIDMuMAA4QklNA+0AAAAAABAASAAAAAEA&#xA;AQBIAAAAAQAB/+4ADkFkb2JlAGTAAAAAAf/bAIQABgQEBAUEBgUFBgkGBQYJCwgGBggLDAoKCwoK&#xA;DBAMDAwMDAwQDA4PEA8ODBMTFBQTExwbGxscHx8fHx8fHx8fHwEHBwcNDA0YEBAYGhURFRofHx8f&#xA;Hx8fHx8fHx8fHx8fHx8fHx8fHx8fHx8fHx8fHx8fHx8fHx8fHx8fHx8fHx8f/8AAEQgBAAEAAwER&#xA;AAIRAQMRAf/EAaIAAAAHAQEBAQEAAAAAAAAAAAQFAwIGAQAHCAkKCwEAAgIDAQEBAQEAAAAAAAAA&#xA;AQACAwQFBgcICQoLEAACAQMDAgQCBgcDBAIGAnMBAgMRBAAFIRIxQVEGE2EicYEUMpGhBxWxQiPB&#xA;UtHhMxZi8CRygvElQzRTkqKyY3PCNUQnk6OzNhdUZHTD0uIIJoMJChgZhJRFRqS0VtNVKBry4/PE&#xA;1OT0ZXWFlaW1xdXl9WZ2hpamtsbW5vY3R1dnd4eXp7fH1+f3OEhYaHiImKi4yNjo+Ck5SVlpeYmZ&#xA;qbnJ2en5KjpKWmp6ipqqusra6voRAAICAQIDBQUEBQYECAMDbQEAAhEDBCESMUEFURNhIgZxgZEy&#xA;obHwFMHR4SNCFVJicvEzJDRDghaSUyWiY7LCB3PSNeJEgxdUkwgJChgZJjZFGidkdFU38qOzwygp&#xA;0+PzhJSktMTU5PRldYWVpbXF1eX1RlZmdoaWprbG1ub2R1dnd4eXp7fH1+f3OEhYaHiImKi4yNjo&#xA;+DlJWWl5iZmpucnZ6fkqOkpaanqKmqq6ytrq+v/aAAwDAQACEQMRAD8A9U4q7FXYq7FXYq7FXYq7&#xA;FXYq7FWMedPzI8qeULctqt0DdsvKHT4aPcP4fBX4Qf5mIGKvnXz7+d/mvzR6lpbN+idIbb6pAx9S&#xA;Rf8Ai2XZm/1RRfY4qxnyl578z+VLv6xo140SMay2r/HBJ/rxnb6Rv74q+hvIX59+WfMHp2erldG1&#xA;VqKBK3+jSN/kSmnEn+V/oJxV6iDXcdMVdirsVdirsVdirsVdirsVdirsVdirsVdirsVdirsVdirs&#xA;VdirsVdirsVdirsVdiqX655g0XQrB7/V7yOytE6ySmlT/KqirM3soJxV4J59/wCcjdRvfUsfKcZs&#xA;bY/C2pSgGdh/xWhqsYPian5Yq8hgt9Y1zUikSz6hqNyxZj8UsrserMxqfmTjSCaes+T/AMjI04Xf&#xA;meTm2xGnQt8I9pZF6/JPvy2OPvceefuZB5r/ACe8s6vF6mnRrpV6q0R4FHotQbB4hQfStD88kYAs&#xA;I5iObxXzP5L8weW5/T1K3IhY0iu4/jhf5P2PsaHKTEhyYzEuTIvIf5z+bPKZjtjJ+ktHXb6hcMfg&#xA;H/FMm7R/LdfbAzfRfkj80PKfm+EDTrn0b8CsmnXFEnWnXiK0dfdSfemKstxV2KuxV2KuxV2KuxV2&#xA;KuxV2KuxV2KuxV2KuxV2KuxV2KuxV2KuxV2KrJpoYInmmdYoowWkkchVVR1JJ2AxV4959/5yK0fT&#xA;fUsfKyLqd6PhN89Raoe/GlGlPyovucVeA6/5k1/zJqBvdYvJb66b4U5dFBP2Y0WiqPZRirNPJ35K&#xA;63q3C61otpdgaERkf6S49kP938239smINM8wHJ7T5f8ALGheX7T6tpVqsCn+8k+1I58Xc/EctApx&#xA;pSJ5pmThYqbNhQoXVvbXUD29zEk0EgpJFIoZWHgVOxxRbyvzf+StrNzu/Lji3l3JsJSTGT/xW53X&#xA;5Hb5ZXLH3ORDUd7ye9sdX0XUPSuopbG+hIZa1RwQdmRh+DA5URTlCQPJ6v5C/wCcitY0307HzSja&#xA;nZD4RfJQXSDtyrRZR86N7nAl7/5e8zaD5isBf6Nex3lsdmKH4kJ34uhoyN7MMVTPFXYq7FXYq7FX&#xA;Yq7FXYq7FXYq7FXYq7FXYq7FXYq7FXYq7FWA+fPzn8p+UxJbCT9J6wu31C3YfAf+LpN1j+W7e2Kv&#xA;nTzv+Z/mzzfMRqNz6NgDWPTreqQLToWFau3uxPtTFVnlD8t/Mnmdlktofq2n1+K+nBWOnfgOrn5b&#xA;eJGSESWEsgD3Lyf+WflryyqzRRfW9SHW/nALg/8AFa/ZT6N/fLREBxp5CWVk5JrWE4oU2bChYThQ&#xA;sZsUKTNhYpXrmhaPrVqbXU7ZLiP9gtsyHxRx8Sn5HExB5pjMx5PIfNf5Q6np/O50Vmv7QVJgNPrC&#xA;D2AoJPo39soliI5OXj1IOx2Ybo2u675f1EXml3UthexHiWQ8Tsd1dTsw8VYUypynvXkL/nI3Trz0&#xA;7HzbGLG5PwrqUQJgY9vUQVaMnxFR8sVez211bXVvHcWsqT28oDRTRMHRlPQqy1BGKqmKuxV2KuxV&#xA;2KuxV2KuxV2KuxV2KuxV2KuxV2KtSOsaM7miICzHwA3OKvlz8wPz68ya+81jozNpOkEsoMRIuJk6&#xA;VeTYoCP2V+RJxVgGgeW9b8wXv1TSrV7mbrIw2RAf2nc/Co+eEC2JkBze1+TfyS0XS+F3rrLqd8Nx&#xA;BQ/VkP8Aqmhk/wBlt/k5YINE8pPJ6UqqihVAVVFFUbAAdABk2lonChYTihTZsKFhOFCxmxQpM2Fi&#xA;sZsKCVJmwsVJmwoY15n8kaD5gUvcxejeUol3FRZPbl2YfP6MjLGC2Y88ocuTyDzP5C1zQC0si/Wb&#xA;AHa7iGwHbmvVP1e+Y08RDn4tRGfvX+S/zI81+ULgNpV0TaM3KbT5qvbv4/BX4Sf5lIOVt76q/Lzz&#xA;tb+cvLMWsxQG1k5tDcW5PIJKlK8WoOQIYEbYqyXFXYq7FXYq7FXYq7FXYq7FXYq7FXYq7FXYqoah&#xA;/vBc/wDGJ/8AiJxV8IYqyO2l1DR70NbtLY3lu1PhrHIp7g9D8wc6AQjVAbPFyyz4uIk8T1Dyp+cw&#xA;PC18xR0OwGoRL+MkY/Wv3Zi5NJ1i7DB2h0n83ptpfWl7bpc2kyT28gqksZDKfpGYZBGxdlGQkLCo&#xA;TgSps2FCwnChYzYoUmbCxWM2FBKkzYWKkzYUKTNhYsS8xfmBpWmc4LUi9vBtxQ/u1P8AlP8AwGXQ&#xA;wk83Fy6mMdhuXm2teYtV1iXnezFkBqkC7Rr8l/id8y4wEeTgTyykd2NX0fpz048QQCB065p9XECe&#xA;z03Zs5SxAyNvpr/nG3/yXkn/ADHz/wDEI8xnPeqYq7FXYq7FXYq7FXYq7FXYq7FXYq7FXYq7FVDU&#xA;P94Ln/jE/wDxE4q+EMVfTOv+VtG1yLjewfvQKR3CfDKv+y7j2O2bGGQx5Ohy4Yz5vK/Mv5d6zpHO&#xA;eAfXbFakyxj40H+WnX6RUZmY84l73W5dLKO43CU6D5m1rQrj1tNuWiBNZIT8UT/6yHY/Prk54xLm&#xA;14s0oG4l615X/NbR9V4W+o006+O1WP7hz/kufs/JvvOYWTTGPLcO1w62MtjsWacgRUdPHMdzFjNi&#xA;hSZsLFYzYUEqTNhYqTNhQkev+a9I0ZD9bl5T0qltHRpD9Hb5nLIYzLk0Zc0Yc3mXmHz3rGr8oUb6&#xA;pZGo9CMmrD/LfYn5dMy4YRF1+XUSl5BILe0nuGpGtR3Y7AfTlrQBacWmkwQ0aT95J4noPkMFsxFj&#xA;vmf/AI6rf6i/qzT6z+8el7M/uviX0Z/zjb/5LyT/AJj5/wDiEeYrsHqmKuxV2KuxV2KuxV2KuxV2&#xA;KuxV2KuxV2KuxVQ1D/eC5/4xP/xE4q+EMVfVxP8AacznTLScVYp5k/L3RtXLTwD6lfNUmWMDgx/y&#xA;02H0ihy/HmMfc4uXTRlvyLy/XfK+saJLxvYf3RNEuUq0TfJu3yO+ZcMglyddkwyhzTDyx+YOu6EU&#xA;hD/W7AdbWUnYf8VtuU/V7ZHJgjL3tmHVShtzD1fy7510TXkC20vpXdKvaS0WQePHsw+WYU8Ri7TF&#xA;qIz5c06ZsrbSVJmwsUDqWq2GnW7XF7OsEK/tMdyfBR1J9hkoxJ5MJzERZea+Y/zPu7nlb6Optodw&#xA;bl6eqw/yR0X9fyzLhpwObr8urJ2iwk/WLmYsS00zmrMSWYk9yTmQ4e5TK00UCj3Jqf8AfY6fScFs&#xA;hFNERUUKoCqOgGwxZN4pYf5n/wCOq3+ov6s0+s/vHo+zP7r4l9Gf842/+S8k/wCY+f8A4hHmK7B6&#xA;pirsVdirsVdirsVdirsVdirsVdirsVdirsVUNQ/3guf+MT/8ROKvhDFX1YTmc6Zon78KFuKFOeGG&#xA;eJopkWWJxR43AZSPcHbCCpF82BeY/wAr7abncaK4gk6m1kJ9Mn/Ibcr8jt8syYZ+9wcukB3i87vL&#xA;HUdMu/SuYntrmM1ANVO3RlI6/MZkgghwZRMTvszHy3+aWo2nC31cG8txQC4H98o9+z/Tv75RPTg8&#xA;nLxawjaW6b+YPzUsoo/S0ZPrEzD+/kBWNajspozEfQMhDTnq25dYB9LzjUdU1HU7k3F7O88zbAsd&#xA;gPBVGwHsMyoxA5OvnMyNlWtNImlo037tPD9o/wBMNqIpvBbQwLxiUKO57n5nAzAVMUuxV2KsP8z/&#xA;APHVb/UX9WafWf3j0fZn918S+jP+cbf/ACXkn/MfP/xCPMV2D1TFXYq7FXYq7FXYq7FXYq7FXYq7&#xA;FXYq7FXYqoah/vBc/wDGJ/8AiJxV8IYq+qyfvzPdKtxQ0T9+KrSa/LucKrSf7BihB6ppOnapbm3v&#xA;oFmj7FuqnxVhup+WSjIjkxnASFF5d5y8j/oSIXttP6tk7hAj/wB4pYEjpsw265l4svFs63Pp+Dcc&#xA;mMWts1xMIlIUnck+Ay5xwLT210+3t91HKT+duv0eGBmBSJxZOxV2KuxV2KsP8z/8dVv9Rf1Zp9Z/&#xA;ePR9mf3XxL6M/wCcbf8AyXkn/MfP/wAQjzFdg9UxV2KuxV2KuxV2KuxV2KuxV2KuxV2KuxV2KqGo&#xA;f7wXP/GJ/wDiJxV8IYq+qcz3SNE/fiq0mvy7nCq0n+wYoaJ/tOKtE4qw/wDND/lG18frEf8AxFsv&#xA;wfU4ur+j4vNdH/3tH+qczC66PNPsDY7FXYq7FXYq7FWH+Z/+Oq3+ov6s0+s/vHo+zP7r4l9Gf842&#xA;/wDkvJP+Y+f/AIhHmK7B6pirsVdirsVdirsVdirsVdirsVdirsVdirsVUNQ/3guf+MT/APETir4Q&#xA;xV9UE/fme6RaTX5dzhVaT/YMUNE/2nFWicVWk/fhQxD8zv8AlG1/5iI/+Itl+D6nF1f0fF5to/8A&#xA;vaP9U5ll18eafYGx2KuxV2KuxV2KsP8AM/8Ax1W/1F/Vmn1n949H2Z/dfEvoz/nG3/yXkn/MfP8A&#xA;8QjzFdg9UxV2KuxV2KuxV2KuxV2KuxV2KuxV2KuxV2KqGof7wXP/ABif/iJxV8IYq+pia/Luc2Dp&#xA;FpP9gxQ0T/acVaJxVaT9+FC39WKsR/M4/wDOuL/zER/8RbL8H1OLq/o+LzfR/wDe0f6pzLLr480+&#xA;wNjsVdirsVdirsVYf5n/AOOq3+ov6s0+s/vHo+zP7r4l9Gf842/+S8k/5j5/+IR5iuweqYq7FXYq&#xA;7FXYq7FXYq7FXYq7FXYq7FXYq7FVDUP94Ln/AIxP/wAROKvhDFX0J5e876NrXGJW+rXh2+qykVJ/&#xA;yG6N+v2zazxGLzmLURn70/J/tOVN7ROKrSfvwoW/qxVonChiP5mf8o4v/MQn/EWy7B9Tjav6Pi84&#xA;0f8A3tH+qcyy6+PNPsDY7FXYq7FXYqpz3MMCcpWCjsO5+QxQSw3XbkXGoNIqlVKgCvXbNRrR+8ej&#xA;7LN4fiXrf5G/mz5c8u6W3l3Wg9oktw88WofaiBkVV4SADkv2ftbjxpmI7F9D211bXVvHcWsqT28o&#xA;DRTRMHRlPQqy1BGKqmKuxV2KuxV2KuxV2KuxV2KuxV2KuxV2KqGof7wXP/GJ/wDiJxV8IYqyfU9I&#xA;1LSrn0L6BoJBupP2WA7qw2P0Z0UZA8niZwMTRZF5e/MbVNP4wX9b60G1WP75R7MftfJvvyqeAHk3&#xA;4tVKOx3D0jSNe0vVoPWsZxIR9uM7On+sp3H6sxZQMebnwyRkNkb+rIs2icKGv1dzirEfzMP/ADrq&#xA;/wDMQn/EWy7B9Tjav6Pi850f/e0f6pzLLr480+wNjsVdirTuqKWYhVHUnYYoSu71oCqWwqf9+Hp9&#xA;AxpiZJaq3N3OqIrzzyGiIoLMxPQADDdMQCSz3QfyTvdSh+sa5MbBSv7qGMBptxsXr8Kj23PyzXaq&#xA;cJ8ufe7rQY8uLcmh3MR83/ll5j8tl5nj+u6aNxfQAkAf8WJuU/V75r5QId1DKJKHkz8x/NflC45a&#xA;TdVtWPKawmq9u/zSo4n/AClIORbH0V5D/PDyp5o9O0uXGk6u231W4YenI3/FUuytX+U0b2OKvRcV&#xA;dirsVdirsVdirsVdirsVdirsVdiqhqH+8Fz/AMYn/wCInFXwhir6av7Cyv7c295Cs8LfsOK7+I8D&#xA;8s2QJHJ0MoiQovPPMP5ZTw8p9GczR9TaOfjH+o3RvkfxzJhn73By6St4sKjkv9Ou+SGS1u4TQ9Ud&#xA;T4Hocv2IcQExPcWdeX/zN+zBrSewvIx/xNB+tfuyieDuczHq+kmd211bXUKz20qzQvusiEMD92Y5&#xA;FOYCDuF5P9gwJYn+Zf8Ayjq+P1hP+Itl2D6nF1f0fF5zo/8AvaP9U5llwI80+wNjsVQN3qsENVT9&#xA;5J4DoPmcaYmST3F3PcNWRqjso2A+jCwJtlPlT8s9e13hcSL9Q05qH6zKDyYf8Vx7FvnsPfKMmojH&#xA;zLlYNHOe/IPYPLfkzQfL0QFjByuCKSXclGlbx3/ZHsuYGTLKfN2+HTwx8k7Zsg3KbUIIO4OxBxQ8&#xA;784fk9oerc7rSuOmX53KqP8AR3P+Ug+wfdfuyEsYLbDORzeMeYPK+uaBdfV9Ttmhr/dzD4on/wBR&#xA;xsfl1ykxIcuMxLkzTyF+efmryz6dpfMdX0laKIJ2PrRr/wAVSmp/2LVHhTAyfRPk38w/Kvm629XS&#xA;LsG4UVmsZaJcR/6yVNRv9paj3xVkmKuxV2KuxV2KuxV2KuxV2KuxVQ1D/eC5/wCMT/8AETir4QxV&#xA;9QE/fmxdEt/ViqVa35c0nWY+N5DWUCkc6fDIvybw9jtk4TMeTVkxRnzebeYPIeraXymgH1yzG/qI&#xA;PjUf5afxGZUMoLgZNPKPLcJRpOuanpM3q2UxSpq8Z3Rv9ZemTlAHm1QyGPJ6LoH5habf8Yb6lldn&#xA;bkx/dN8mP2fkfvzGnhI5Odj1Ilsdit/Mo18uoR0+sJT/AIFsOD6l1X0PO9H/AN7R/qnMouBHmm91&#xA;fW9sPjardkG5wMyaSa71O4uKqD6cf8o7/M4aazJG+XfKWu+YJ/T063LRqaS3L/DEn+s/8BvkMmWM&#xA;ebbiwSyHYPX/ACr+VehaNwuL0DUdQG/ORf3SH/IjNR9LfhmBk1Mpctg7bBoow3O5ZoTmO5q1mwoU&#xA;ycULCcKFNmxQhb+zsr62e1vIUuLeQUeKRQyn6DhpAJHJ5R5t/JgDndeXJPc6fM3/ACbkP6n/AOCy&#xA;qWLucnHqeknmZXVtG1EE+tp+o2zVVhyilRh0IIoR8xlJFOWCDyex+Q/+cjr229Ox83RG7gFFXU4F&#xA;AmX/AIyxiiv81ofY4EvedG1zSNbsEv8ASbuO9tJNlliaoB7qw6qw7g74qjsVdirsVdirsVdirsVd&#xA;iqhqH+8Fz/xif/iJxV8IYq+nv1ZsXRNE4UNfq7nFVpP9gxVjXmDyNpOqcpoh9UvDuZYx8LH/AC02&#xA;B+Y3y2GUhx8unjLyLzjWvLmraRJS7i/dE0S4T4o2+nt8jmVGYlycDJilHmh21bUH0/8AR7zM9mGD&#xA;rE2/EqCBxJ3A36YeEXbHjNV0Q0U0kTcozxalK/PCxtXsNO1DU7tbaygkurmToiAsfmfAe5wSkALL&#xA;KMDI0Ny9U8qfkzDFwuvMUglfqLCIkIP+MkgoT8l+85hZNX0i7TB2eBvP5PTLe2trWBLe1iSCCMUS&#xA;KNQqqPAAUGYZJPN2QAAoLicUrWbChTJxQsJwoU2bFCmzYWKmzYUEqbNhYpNr/lzRtdt/R1K3WXj/&#xA;AHco+GRP9RxuP1YJRB5soZDHk8j80/lXrGl87jTSdQshvRR+/Qe6D7XzX7sx54SOTm49VGWx2LHf&#xA;LnmnzB5avxe6NeyWc42kCmqOB+zIhqrj2Iypyn0D+X//ADkJo+svDp3mOMaZqUhCJdJU2srnYVrV&#xA;oiT41X/KxV6/irsVdirsVdirsVdiqhqH+8Fz/wAYn/4icVfCGKvp0nNk6Fr9Xc4qtJ/sGKtE/wBp&#xA;xQtJwoWTRRSxtFKiyI4o6MAVI8CDiFIedeePKenadajUbKsStII2t+q1YE1UncdOmZOLITsXB1GE&#xA;RFhhWXuIznyD+Y6eXE+p3VjHLZyNV7iFVW4H+sdvUA7A/fmPnwce4Lm6XV+HsRt9r2fR9f0nWbUX&#xA;Wm3KXEX7XE0ZT4Opoyn55r5QMTRdzjyxmLiUYTkWa1mwoUycULCcKFNmxQps2Fips2FBKmzYWKkz&#xA;YUEqTNhYse8w+ctI0cNHI/r3dNraMgt/sj0X6cthiMmjLnjH3vIvMl/+nL97ySCK2kboIVAr7uer&#xA;n3OWT0cJDzasXaeSB749zGs0z1D7vsCTY25JqTElT/sRiqvirsVdirsVdirsVUNQ/wB4Ln/jE/8A&#xA;xE4q+EMVfTn6u5zZOhWk/wBgxVon+04oWk4UNE0+f6sVW/qxViv5kH/nX1/4zp/xFsuw/U42q+lh&#xA;nkzT7O/1oW13GJIXieqmo3A2II3By/ISBs4uCIMqKZ67+X15bFptMJuYevoH+9Ue3Zv15CGYHm2Z&#xA;NMRyY3Yalqek3guLKaS0uozQspKn3VgevyOWyiJDdojOUTY2L1Lyt+cVtPwtdfQW8vQXsYJjP+um&#xA;5X5jb5ZhZNLW8XZ4deDtP5vRIbmC4hSe3kWWGQcklQhlYeII2OYpFOwBBFhsnFVNmxQps2Fips2F&#xA;BKmzYWKkzYUEpZq+uaZpMHrX06xA/YTq7eyqNzk4wJ5NU8giLLzXzF+Y+pX/ACg04GytTUFwf3zD&#xA;/WH2fo+/MqGADm6/LqjLYbBiUcU08lEBdzuT8+5OXuLzTa00aNKNOebfyD7I/rgtmIsLznXtn3fp&#xA;/wDvBbf8Yk/4iMVV8VdirsVdirsVdiqhqH+8Fz/xif8A4icVfCGKvpon+wZsnQtE/wBpxQtJwoaJ&#xA;p8/1Yqt/VirROKGK/mP/AMo+v/MQm/8AsWy7DzcfVfSxX8vv+UjT/jFJ+rLs30uNpvreoE/2nMR2&#xA;CUa35a0rVkJuI+E9KJcR0D/T/MPnk4zIa54oy5vPtc8oarpRaTj9YtR/u+MdB/lr1X9WZMcgLhZM&#xA;Jj7lPy95t1zQJudhORETWS2f4on+a9j7ihxnijLmuLPKHIvWPLP5l6LrPCC4IsL87CKQjg5/yH2H&#xA;0Hf55g5NOY+Ydph1kZ7HYsqZspclTZsKCVNmwsULd3dvbQvPcSLFCgq8jkKoHzOSAtjKQHN595j/&#xA;ADRReVvoic26G8kHwj/UQ9fm33Zkw0/e4GXWdIvPrq7vL65M1zK9xcOd3YlmPsP6ZlAAcnBlIk2U&#xA;ZaaM7Ue4PBf5B1Pz8MbSIptFDFEnCNQq+AwM6X4pec5zr2b7v0//AHgtv+MSf8RGKq+KuxV2KuxV&#xA;2KuxVQ1D/eC5/wCMT/8AETir4QxV9Mk/2nNk6BaThQ0TT5/qxVb+rFWicUNfq7nCrFfzGP8Azr6/&#xA;8Z02/wBi2W4ebj6r6WLfl/8A8pEn/GKT9WXZvpcbTfU9PJ/sGYjsGiafP9WFVpoRv0/XihjOueR9&#xA;Ov8AlLaUtLo7/CP3bH/KXt8xlscpHNoyYAeWzAtU0bUdMl9O7iKgmiSDdG/1WzIjIHk4c4GPNPfL&#xA;X5i63o4SCY/XrFdhDKfjUf5D7kfI1GVZMAl5FvxaqUNjuHqOh+bNF1uLlZz0mArJbSfDKv8Ase49&#xA;xtmHPGY83Y488Z8kk8yfmPpOm84LIi+vBtRD+6U/5Tjr8l/DLMeAnm05dVGOw3LzHWvMWrazN6l9&#xA;OXUH4IV+GNP9Vf49czIQEeTrsmWU+ahaaZcT0Y/u4/5j1PyGStgIpzbWVvbj92vxd3O5OBsApXxS&#xA;7FXYq85znXs33fp/+8Ft/wAYk/4iMVV8VdirsVdirsVdiqjeI0lnOiCrvG6qPElSBir4RlilhleG&#xA;VDHLGxSSNhRlZTQgg9CDir1ny1+amn3vC31hRZXJoBOK+gx967p9O3vmXDODzdZl0hG8d2dLIjoH&#xA;RgysKq6mooe4IzIcJr9WKtE4oa/V3OFVpP8AYMVYt+Yv/HAXx9dP+ItluHm42p+li3kD/lIk/wCM&#xA;Un6suzfS4+m+p6eTT5/qzFdgt/VihomuKtE/2nFVKeCG4iaGeNZYn2MbCoP0HCDTEi2Ga35BX4pt&#xA;Kanc2znb5Ix/j9+Xxy97jT0/cw6eC5tJ2imRoZlqGU1U7in4jLgbcUghu2tJ7hqRrt3Y7AfTioFp&#xA;xaaVBBRn/eSeJ6D5DBbMRRuLJ2KuxV2KuxV5znOvZvu/T/8AeC2/4xJ/xEYqr4q7FXYq7FXYq7FX&#xA;Yqwbz5+T/lPzcHuJYvqGrsNtRtwAzGlB6qbLIPn8X+UMVfOfnn8qfNvlCRpL23+s6ZWkepW4LQ79&#xA;Of7UZ/1voJxVKvL3nLW9DYLbS+paVq1pLVoz48e6n5ZZDIYtOXBGfPm9U8uefNF1vjEH+q3x2+qy&#xA;kCp/yG6N+v2zLhlEnWZdNKHmGRfq7nLXHWk/2DFWif7Tihi35if8cBf+M6f8RbLsPNx9T9LF/IH/&#xA;ACkSf8YpP1Zbl+lx9P8AU9N/VmK57RNcVaJ/tOKrf8wMKGif7TirXuenYYq8289/8pA//GNP1Zk4&#xA;uTgaj6lLRf8AeM/65/UMmWMeSPxZOxV2KuxV2KuxV5znOvZvu/T/APeC2/4xJ/xEYqr4q7FXYq7F&#xA;XYq7FXYq7FVskUcsbRyoJI3BV0YAqQdiCD1xV5F59/5x40PVvUvvLTrpOoNVjakE2kh9gKtF/saj&#xA;/JxV8/eY/KvmHy1fmy1qyks5+sbMKo4H7Uci1Vx8jiqd+W/zK1bTeFvf1vrNdgWP75B7OftfJvvy&#xA;+Gcjnu4mbSRluNi9N0bzDpOsQerYTiQgVkjO0iV/mU7/AE9My4zEuTrMmKUDumBP9gyTWxb8xP8A&#xA;jgrXr66f8RbLsPNx9T9LF/INP8QpX/fUn6sty/S4+n+p6aTXMVz2if7Tiq3/ADAwoaJ/tOKte56d&#xA;hirW9ff9WKvNvPVP0+9P99p+rMnFycDUfUp6L/vGf9c/qGTLGPJH4snYq7FXYq7FXYq85znXs33f&#xA;p/8AvBbf8Yk/4iMVV8VdirsVdirsVdirsVdirsVdiqC1nRNI1qwew1W0jvLOT7UUq1FexB6qw7Eb&#xA;4q8G8+/8443lt6l95QlNzBuzaXOwEqjrSKQ0D+wah9zirxojVNI1BkYTWF/bNR0YNFKjeDA0I+nC&#xA;DSJRBFFnflz80j8NvriewvYx+LoP1r92ZMNR3uvzaLrFOfPF3a3nlmO4tZVmgedOMiEMD8LeGZ+A&#xA;gnZ0+riRGix3yD/ykKf8YpP1Zdl+lxtP9T0wn+05iuet/wAwMKGif7TirXuenYYq1vX3/VirRIp7&#xA;frwoeb+ev+O+/wDxjT9WZGLk4Of6lPRf94z/AK5/UMmWMeSPxZOxV2KuxV2KuxV5znOvZvu/T/8A&#xA;eC2/4xJ/xEYqr4q7FXYq7FXYq7FXYq7FXYq7FXYq7FWN+cvy98rebrb0tXtA06ikN9FRLiP/AFXp&#xA;uP8AJaq+2Kvnfz7+Rfmny16l5YKdY0hat68Kn1o16/vYhU0H8y1HjTFXnUN3cwo0ccjLExDPHU8S&#xA;R0JXpXLMeWUDYac2CGUVIMp8iaxZw67E13ItuGR0DuaLUjYVPT6czxqxMUdi6WfZsscrj6o/a9Zq&#xA;CARvXpk2ton+04q17np2GKtb19/1Yq0SKe368KGt6+/6sVeb+eafp5/+MafqzJxcnBz/AFLNF/3j&#xA;P+uf1DJFjHkj8WTsVdirsVdiqyeeGCMyTOEQdWY0yMpCIssoY5SNRFl55nPvYvu/T/8AeC2/4xJ/&#xA;xEYqr4q7FXYq7FXYq7FXYq7FXYq7FXYq7FXYq7FXnXn38kPKnmj1Lu2UaTq7b/W4FHpyN/xbFsG+&#xA;Yofc4q+dfOn5b+a/KFwV1W1JtGbjDqENXt38Pjp8JP8AKwBxVD+X/Ous6NxiR/rFmOttKagD/Ibq&#xA;v6vbLYZjH3OPm00Z+Rel6D5u0fWlCwSelc03tZNn+jsw+WZsMok6rNp5Q58k63r7/qyxoaJFPb9e&#xA;FDW9ff8AVirXsOnc4oeceeP+O8//ABjT9WZOLk4Wf6lmi/7xn/XP6hkixjyR+LJ2KuxVxIAqdgOp&#xA;wKkuo+ZraCsdqBPL/N+wPp7/AEZh5tZGO0dy7PT9mSlvP0j7WNXV7dXcnOdy7fsjsPkBmtnklM2S&#xA;7vFhhjFRFPS/y/8AyF8ya+8N9rKtpOkEqxEoIuJk60SPYoCP2m+YByDa+o40WNFRBREAVR4AbDFW&#xA;8VdirsVdirsVdirsVdirsVdirsVdirsVdirsVU7m1trq3kt7qJJ7eUFZYZVDoynqGVqgjFXjHn3/&#xA;AJxy0689S+8pSCxuT8TabMSbdj/xW5q0Z9jUfLFXgutaFrnl/UWstVtZbG9iNQrgrWh2ZGGzDwZT&#xA;TFWQ+X/zIv7MLb6oDeWw29Uf3yj5nZ/p398yceoI57uDm0QlvHYvRNM1fT9UgE9jOsydwNmX2ZTu&#xA;PpzMjMS5OryY5QNEIv2HTuck1tfr7DFXnPnj/jvP3/dp+rMnFycLP9SzRf8AeM/65/UMkWMeSPxZ&#xA;OxVAajrdlZVVm9Sb/fS9fpPbMfLqIw97l6fRTy7jaPexbUNZvb4kO3CHtEuw+nxzWZdRKfPk73T6&#xA;OGLlue9P/JH5X+bPOEobTrb0bAGkuo3FUgXx4mlXPsoPvTKHLfRfkP8AJjyn5TEdyY/0nrC7/X7h&#xA;R8B/4pj3WP57t74qz7FXYq7FXYq7FXYq7FXYq7FXYq7FXYq7FXYq7FXYq7FXYq7FUs8w+WdB8xWB&#xA;sNZso7y2O6hx8SE7ckcUZG91OKvAPPv/ADjrrGm+pfeVnbU7IfEbF6C6Qd+NKLKPlRvY4q8lguNS&#xA;0q9LRNJZ3kJKOu6OpB3VlP4g4YyI3DGcBIUWeaB+ZUMnGDWE9KToLpB8BPi69vozMx6npJ1mbQkb&#xA;w+TNop4ZollhkWWNxVZEIZSPYjrmUDbryCDReeed/wDjuv8A8Y0/VmTj5ODn+pbov+8Z/wBc/qGS&#xA;LGPJEXl9a2kfOeQIOy9WPyGV5MsYCyW/DgnkNRDGdR8y3VxWO2rBF/N+2fp7fRmty6yUto7B3mn7&#xA;NhDeXqP2KPl/yzr3mLUBY6NZyXtyd2CD4VB/akc0VB7scw3ZPf8AyF/zjro+m+nfeaXXU70fELFK&#xA;i1Q9uVaNKfnRfY4q9hhhhgiSGFFiijAWONAFVVHQADYDFV+KuxV2KuxV2KuxV2KuxV2KuxV2KuxV&#xA;2KuxV2KuxV2KuxV2KuxV2KuxViXnf8r/ACn5vhJ1G29G/ApHqNvRJ1p05GlHX2YH2pir508+fkx5&#xA;s8pmS5Ef6S0dd/r9up+Af8XR7tH89198VYno3mLVdHl52ctIyavA/wAUbfNf4jfJwyGPJpy4IzG4&#xA;TDVvMUWr3v1p09CQoquhNRVfA+GbPBqokUdi6HWdn5Abj6ghh5he3tjBaqOZJJlbtXwH9crza3pH&#xA;5uRpeyjzyfJLUS+1C7SONJLq7mYLHGgaSR2PRVUVJ+QzXSkSbLuoQERQFB7J5C/5xy1G99O+82SG&#xA;xtj8S6bEQZ2H/Fjiqxg+AqflgZPe9D8v6LoVglhpFnHZWidI4hSp/mZjVmb3Yk4qmGKuxV2KuxV2&#xA;KuxV2KuxV2KuxV2KuxV2KuxV2KuxV2KuxV2KuxV2KuxV2KuxV2KuIrsemKvL/Pn5CeWPMHqXmkBd&#xA;G1VqsTEv+jSH/LiH2Sf5k+kHFXzz5s8h+afKt2bfWLJ40J/dXSVeCT/UkAp9B39sVZL5D/JDzX5o&#xA;9O7uUOk6Q2/1q4U+o4/4qi2Zv9ZqL7nFX0V5L/Lfyp5QtwulWoN2y8ZtQmo9w/j8dPhB/lUAYqyf&#xA;FXYq7FXYq7FXYq7FXYq7FXYq/wD/2Q==</xmpGImg:image>
               </rdf:li>
            </rdf:Alt>
         </xmp:Thumbnails>
         <xmpMM:RenditionClass>proof:pdf</xmpMM:RenditionClass>
         <xmpMM:OriginalDocumentID>uuid:65E6390686CF11DBA6E2D887CEACB407</xmpMM:OriginalDocumentID>
         <xmpMM:DocumentID>xmp.did:a981d864-91ae-6345-ba43-c801d92519c0</xmpMM:DocumentID>
         <xmpMM:InstanceID>xmp.iid:a981d864-91ae-6345-ba43-c801d92519c0</xmpMM:InstanceID>
         <xmpMM:DerivedFrom rdf:parseType="Resource">
            <stRef:instanceID>uuid:edbdff5d-a332-49da-a06a-58b910bfb164</stRef:instanceID>
            <stRef:documentID>xmp.did:26466043-04c2-d545-9165-999234d414ec</stRef:documentID>
            <stRef:originalDocumentID>uuid:65E6390686CF11DBA6E2D887CEACB407</stRef:originalDocumentID>
            <stRef:renditionClass>proof:pdf</stRef:renditionClass>
         </xmpMM:DerivedFrom>
         <xmpMM:History>
            <rdf:Seq>
               <rdf:li rdf:parseType="Resource">
                  <stEvt:action>saved</stEvt:action>
                  <stEvt:instanceID>xmp.iid:7b142d01-f123-4ea9-aa31-d451c2b0aba7</stEvt:instanceID>
                  <stEvt:when>2015-09-01T11:22:34+01:00</stEvt:when>
                  <stEvt:softwareAgent>Adobe Illustrator CC 2015 (Macintosh)</stEvt:softwareAgent>
                  <stEvt:changed>/</stEvt:changed>
               </rdf:li>
               <rdf:li rdf:parseType="Resource">
                  <stEvt:action>saved</stEvt:action>
                  <stEvt:instanceID>xmp.iid:6171975b-c527-4541-bf53-15cb2cd2c85f</stEvt:instanceID>
                  <stEvt:when>2016-01-15T15:42:24Z</stEvt:when>
                  <stEvt:softwareAgent>Adobe Illustrator CC 2015 (Macintosh)</stEvt:softwareAgent>
                  <stEvt:changed>/</stEvt:changed>
               </rdf:li>
               <rdf:li rdf:parseType="Resource">
                  <stEvt:action>converted</stEvt:action>
                  <stEvt:parameters>from application/postscript to application/vnd.adobe.illustrator</stEvt:parameters>
               </rdf:li>
               <rdf:li rdf:parseType="Resource">
                  <stEvt:action>saved</stEvt:action>
                  <stEvt:instanceID>xmp.iid:8ff8899e-05b1-4c4f-8411-8e323267ad92</stEvt:instanceID>
                  <stEvt:when>2016-02-12T11:43:56Z</stEvt:when>
                  <stEvt:softwareAgent>Adobe Illustrator CC 2015 (Macintosh)</stEvt:softwareAgent>
                  <stEvt:changed>/</stEvt:changed>
               </rdf:li>
               <rdf:li rdf:parseType="Resource">
                  <stEvt:action>saved</stEvt:action>
                  <stEvt:instanceID>xmp.iid:a981d864-91ae-6345-ba43-c801d92519c0</stEvt:instanceID>
                  <stEvt:when>2016-03-16T16:55:10-07:00</stEvt:when>
                  <stEvt:softwareAgent>Adobe Illustrator CC 2015 (Windows)</stEvt:softwareAgent>
                  <stEvt:changed>/</stEvt:changed>
               </rdf:li>
            </rdf:Seq>
         </xmpMM:History>
         <illustrator:StartupProfile>Web</illustrator:StartupProfile>
         <xmpTPg:NPages>1</xmpTPg:NPages>
         <xmpTPg:HasVisibleTransparency>False</xmpTPg:HasVisibleTransparency>
         <xmpTPg:HasVisibleOverprint>False</xmpTPg:HasVisibleOverprint>
         <xmpTPg:MaxPageSize rdf:parseType="Resource">
            <stDim:w>32.000000</stDim:w>
            <stDim:h>32.000000</stDim:h>
            <stDim:unit>Pixels</stDim:unit>
         </xmpTPg:MaxPageSize>
         <xmpTPg:PlateNames>
            <rdf:Seq>
               <rdf:li>Cyan</rdf:li>
               <rdf:li>Magenta</rdf:li>
               <rdf:li>Yellow</rdf:li>
               <rdf:li>Black</rdf:li>
            </rdf:Seq>
         </xmpTPg:PlateNames>
         <xmpTPg:SwatchGroups>
            <rdf:Seq>
               <rdf:li rdf:parseType="Resource">
                  <xmpG:groupName>Default Swatch Group</xmpG:groupName>
                  <xmpG:groupType>0</xmpG:groupType>
                  <xmpG:Colorants>
                     <rdf:Seq>
                        <rdf:li rdf:parseType="Resource">
                           <xmpG:swatchName>Natural Blue 4</xmpG:swatchName>
                           <xmpG:mode>RGB</xmpG:mode>
                           <xmpG:type>PROCESS</xmpG:type>
                           <xmpG:red>20</xmpG:red>
                           <xmpG:green>115</xmpG:green>
                           <xmpG:blue>145</xmpG:blue>
                        </rdf:li>
                        <rdf:li rdf:parseType="Resource">
                           <xmpG:swatchName>White</xmpG:swatchName>
                           <xmpG:mode>RGB</xmpG:mode>
                           <xmpG:type>PROCESS</xmpG:type>
                           <xmpG:red>255</xmpG:red>
                           <xmpG:green>255</xmpG:green>
                           <xmpG:blue>255</xmpG:blue>
                        </rdf:li>
                        <rdf:li rdf:parseType="Resource">
                           <xmpG:swatchName>Pure Black 6</xmpG:swatchName>
                           <xmpG:mode>RGB</xmpG:mode>
                           <xmpG:type>PROCESS</xmpG:type>
                           <xmpG:red>70</xmpG:red>
                           <xmpG:green>70</xmpG:green>
                           <xmpG:blue>70</xmpG:blue>
                        </rdf:li>
                     </rdf:Seq>
                  </xmpG:Colorants>
               </rdf:li>
            </rdf:Seq>
         </xmpTPg:SwatchGroups>
         <pdf:Producer>Adobe PDF library 15.00</pdf:Producer>
      </rdf:Description>
   </rdf:RDF>
</x:xmpmeta>
                                                                                                    
                                                                                                    
                                                                                                    
                                                                                                    
                                                                                                    
                                                                                                    
                                                                                                    
                                                                                                    
                                                                                                    
                                                                                                    
                                                                                                    
                                                                                                    
                                                                                                    
                                                                                                    
                                                                                                    
                                                                                                    
                                                                                                    
                                                                                                    
                                                                                                    
                                                                                                    
                           
<?xpacket end="w"?>
	</metadata>
<g>
	<g>
		<polygon class="st0" points="19.8,22.7 19.8,31.5 27.5,27.1 27.5,18.2 		"/>
	</g>
	<g>
		<polygon class="st0" points="12.2,9.4 12.2,18.2 19.8,13.8 19.8,4.9 		"/>
	</g>
	<g>
		<polygon class="st1" points="12.2,18.2 12.3,18.3 12.7,17.9 		"/>
		<polygon class="st1" points="12.7,17.9 12.3,18.3 12.5,18.4 13.3,17.6 		"/>
		<polygon class="st1" points="13.3,17.6 12.5,18.4 12.6,18.5 13.8,17.2 		"/>
		<polygon class="st2" points="13.8,17.2 12.6,18.5 12.8,18.6 14.4,16.9 		"/>
		<polygon class="st3" points="14.4,16.9 12.8,18.6 12.9,18.7 15,16.6 		"/>
		<polygon class="st4" points="15,16.6 12.9,18.7 13.1,18.7 15.5,16.3 		"/>
		<polygon class="st5" points="15.5,16.3 13.1,18.7 13.2,18.8 16.1,15.9 		"/>
		<polygon class="st5" points="16.1,15.9 13.2,18.8 13.4,18.9 16.7,15.6 		"/>
		<polygon class="st6" points="16.7,15.6 13.4,18.9 13.5,19 17.2,15.3 		"/>
		<polygon class="st7" points="17.2,15.3 13.5,19 13.7,19.1 17.8,15 		"/>
		<polygon class="st8" points="17.8,15 13.7,19.1 13.8,19.2 18.3,14.6 		"/>
		<polygon class="st9" points="18.3,14.6 13.8,19.2 14,19.3 18.9,14.3 		"/>
		<polygon class="st9" points="18.9,14.3 14,19.3 14.1,19.3 19.5,14 		"/>
		<polygon class="st10" points="19.8,13.8 19.5,14 14.1,19.3 14.3,19.4 19.9,13.8 		"/>
		<polygon class="st11" points="19.9,13.8 14.3,19.4 14.4,19.5 20,13.9 		"/>
		<polygon class="st12" points="20,13.9 14.4,19.5 14.6,19.6 20.2,14 		"/>
		<polygon class="st12" points="20.2,14 14.6,19.6 14.7,19.7 20.3,14.1 		"/>
		<polygon class="st13" points="20.3,14.1 14.7,19.7 14.9,19.8 20.5,14.2 		"/>
		<polygon class="st14" points="20.5,14.2 14.9,19.8 15,19.9 20.6,14.2 		"/>
		<polygon class="st15" points="20.6,14.2 15,19.9 15.2,20 20.8,14.3 		"/>
		<polygon class="st16" points="20.8,14.3 15.2,20 15.3,20 20.9,14.4 		"/>
		<polygon class="st17" points="20.9,14.4 15.3,20 15.5,20.1 21.1,14.5 		"/>
		<polygon class="st18" points="21.1,14.5 15.5,20.1 15.6,20.2 21.2,14.6 		"/>
		<polygon class="st19" points="21.2,14.6 15.6,20.2 15.8,20.3 21.4,14.7 		"/>
		<polygon class="st20" points="21.4,14.7 15.8,20.3 15.9,20.4 21.5,14.8 		"/>
		<polygon class="st21" points="21.5,14.8 15.9,20.4 16.1,20.5 21.7,14.8 		"/>
		<polygon class="st22" points="21.7,14.8 16.1,20.5 16.2,20.6 21.8,14.9 		"/>
		<polygon class="st23" points="21.8,14.9 16.2,20.6 16.4,20.6 22,15 		"/>
		<polygon class="st24" points="22,15 16.4,20.6 16.5,20.7 22.1,15.1 		"/>
		<polygon class="st25" points="22.1,15.1 16.5,20.7 16.7,20.8 22.3,15.2 		"/>
		<polygon class="st26" points="22.3,15.2 16.7,20.8 16.8,20.9 22.4,15.3 		"/>
		<polygon class="st27" points="22.4,15.3 16.8,20.9 17,21 22.6,15.4 		"/>
		<polygon class="st28" points="22.6,15.4 17,21 17.1,21.1 22.7,15.5 		"/>
		<polygon class="st29" points="22.7,15.5 17.1,21.1 17.3,21.2 22.9,15.5 		"/>
		<polygon class="st30" points="22.9,15.5 17.3,21.2 17.4,21.3 23,15.6 		"/>
		<polygon class="st31" points="23,15.6 17.4,21.3 17.5,21.3 23.2,15.7 		"/>
		<polygon class="st32" points="23.2,15.7 17.5,21.3 17.7,21.4 23.3,15.8 		"/>
		<polygon class="st33" points="23.3,15.8 17.7,21.4 17.8,21.5 23.5,15.9 		"/>
		<polygon class="st34" points="23.5,15.9 17.8,21.5 18,21.6 23.6,16 		"/>
		<polygon class="st35" points="23.6,16 18,21.6 18.1,21.7 23.8,16.1 		"/>
		<polygon class="st36" points="23.8,16.1 18.1,21.7 18.3,21.8 23.9,16.1 		"/>
		<polygon class="st37" points="23.9,16.1 18.3,21.8 18.4,21.9 24.1,16.2 		"/>
		<polygon class="st38" points="24.1,16.2 18.4,21.9 18.6,21.9 24.2,16.3 		"/>
		<polygon class="st39" points="24.2,16.3 18.6,21.9 18.7,22 24.4,16.4 		"/>
		<polygon class="st40" points="24.4,16.4 18.7,22 18.9,22.1 24.5,16.5 		"/>
		<polygon class="st41" points="24.5,16.5 18.9,22.1 19,22.2 24.7,16.6 		"/>
		<polygon class="st42" points="24.7,16.6 19,22.2 19.2,22.3 24.8,16.7 		"/>
		<polygon class="st43" points="24.8,16.7 19.2,22.3 19.3,22.4 25,16.8 		"/>
		<polygon class="st44" points="25,16.8 19.3,22.4 19.5,22.5 25.1,16.8 		"/>
		<polygon class="st45" points="25.1,16.8 19.5,22.5 19.6,22.5 25.3,16.9 		"/>
		<polygon class="st46" points="25.3,16.9 19.6,22.5 19.8,22.6 25.4,17 		"/>
		<polygon class="st47" points="25.4,17 19.8,22.6 19.8,22.7 20.2,22.4 25.6,17.1 		"/>
		<polygon class="st48" points="25.6,17.1 20.2,22.4 20.8,22.1 25.7,17.2 		"/>
		<polygon class="st49" points="25.7,17.2 20.8,22.1 21.4,21.8 25.9,17.3 		"/>
		<polygon class="st50" points="25.9,17.3 21.4,21.8 21.9,21.5 26,17.4 		"/>
		<polygon class="st51" points="26,17.4 21.9,21.5 22.5,21.1 26.2,17.4 		"/>
		<polygon class="st52" points="26.2,17.4 22.5,21.1 23,20.8 26.3,17.5 		"/>
		<polygon class="st53" points="26.3,17.5 23,20.8 23.6,20.5 26.5,17.6 		"/>
		<polygon class="st54" points="26.5,17.6 23.6,20.5 24.2,20.2 26.6,17.7 		"/>
		<polygon class="st55" points="26.6,17.7 24.2,20.2 24.7,19.8 26.8,17.8 		"/>
		<polygon class="st56" points="26.8,17.8 24.7,19.8 25.3,19.5 26.9,17.9 		"/>
		<polygon class="st57" points="26.9,17.9 25.3,19.5 25.8,19.2 27.1,18 		"/>
		<polygon class="st58" points="27.1,18 25.8,19.2 26.4,18.9 27.2,18 		"/>
		<polygon class="st59" points="27.2,18 26.4,18.9 27,18.5 27.4,18.1 		"/>
		<polygon class="st60" points="27,18.5 27.5,18.2 27.4,18.1 		"/>
	</g>
	<g>
		<polygon class="st61" points="4.5,4.9 4.5,5.6 4.9,5.2 		"/>
		<polygon class="st62" points="4.9,5.2 4.5,5.6 4.5,6.3 5.4,5.5 		"/>
		<polygon class="st63" points="5.4,5.5 4.5,6.3 4.5,7 5.8,5.7 		"/>
		<polygon class="st64" points="5.8,5.7 4.5,7 4.5,7.7 6.3,6 		"/>
		<polygon class="st65" points="6.3,6 4.5,7.7 4.5,8.4 6.7,6.2 		"/>
		<polygon class="st66" points="6.7,6.2 4.5,8.4 4.5,9.1 7.1,6.5 		"/>
		<polygon class="st67" points="7.1,6.5 4.5,9.1 4.5,9.8 7.6,6.7 		"/>
		<polygon class="st68" points="7.6,6.7 4.5,9.8 4.5,10.5 8,7 		"/>
		<polygon class="st69" points="8,7 4.5,10.5 4.5,11.2 8.5,7.2 		"/>
		<polygon class="st70" points="8.5,7.2 4.5,11.2 4.5,11.9 8.9,7.5 		"/>
		<polygon class="st71" points="8.9,7.5 4.5,11.9 4.5,12.6 9.4,7.8 		"/>
		<polygon class="st72" points="9.4,7.8 4.5,12.6 4.5,13.3 9.8,8 		"/>
		<polygon class="st73" points="9.8,8 4.5,13.3 4.5,14 10.2,8.3 		"/>
		<polygon class="st74" points="10.2,8.3 4.5,14 4.5,14.7 10.7,8.5 		"/>
		<polygon class="st75" points="10.7,8.5 4.5,14.7 4.5,15.4 11.1,8.8 		"/>
		<polygon class="st48" points="11.1,8.8 4.5,15.4 4.5,16.1 11.6,9 		"/>
		<polygon class="st76" points="11.6,9 4.5,16.1 4.5,16.8 12,9.3 		"/>
		<polygon class="st50" points="12.2,9.4 12,9.3 4.5,16.8 4.5,17.5 12.2,9.8 		"/>
		<polygon class="st77" points="12.2,9.8 4.5,17.5 4.5,18.2 12.2,10.5 		"/>
		<polygon class="st78" points="12.2,10.5 4.5,18.2 4.5,18.9 12.2,11.2 		"/>
		<polygon class="st79" points="12.2,11.2 4.5,18.9 4.5,19.6 12.2,11.9 		"/>
		<polygon class="st80" points="12.2,11.9 4.5,19.6 4.5,20.3 12.2,12.6 		"/>
		<polygon class="st81" points="12.2,12.6 4.5,20.3 4.5,21 12.2,13.3 		"/>
		<polygon class="st82" points="12.2,13.3 4.5,21 4.5,21.7 12.2,14 		"/>
		<polygon class="st83" points="12.2,14 4.5,21.7 4.5,22.4 12.2,14.7 		"/>
		<polygon class="st84" points="12.2,14.7 4.5,22.4 4.5,22.6 4.8,22.8 12.2,15.4 		"/>
		<polygon class="st57" points="12.2,15.4 4.8,22.8 5.2,23.1 12.2,16.1 		"/>
		<polygon class="st85" points="12.2,16.1 5.2,23.1 5.7,23.3 12.2,16.8 		"/>
		<polygon class="st59" points="12.2,16.8 5.7,23.3 6.1,23.6 12.2,17.5 		"/>
		<polygon class="st86" points="12.2,18.2 12.2,18.2 12.2,17.5 6.1,23.6 6.6,23.8 12.2,18.2 		"/>
		<polygon class="st60" points="12.2,18.2 12.2,18.2 6.6,23.8 7,24.1 12.6,18.5 		"/>
		<polygon class="st87" points="12.6,18.5 7,24.1 7.4,24.3 13,18.7 		"/>
		<polygon class="st88" points="13,18.7 7.4,24.3 7.9,24.6 13.5,19 		"/>
		<polygon class="st89" points="13.5,19 7.9,24.6 8.3,24.8 13.9,19.2 		"/>
		<polygon class="st90" points="13.9,19.2 8.3,24.8 8.8,25.1 14.4,19.5 		"/>
		<polygon class="st91" points="14.4,19.5 8.8,25.1 9.2,25.4 14.8,19.8 		"/>
		<polygon class="st92" points="14.8,19.8 9.2,25.4 9.7,25.6 15.3,20 		"/>
		<polygon class="st93" points="15.3,20 9.7,25.6 10.1,25.9 15.7,20.3 		"/>
		<polygon class="st94" points="15.7,20.3 10.1,25.9 10.5,26.1 16.1,20.5 		"/>
		<polygon class="st95" points="16.1,20.5 10.5,26.1 11,26.4 16.6,20.8 		"/>
		<polygon class="st96" points="16.6,20.8 11,26.4 11.4,26.6 17,21 		"/>
		<polygon class="st97" points="17,21 11.4,26.6 11.9,26.9 17.5,21.3 		"/>
		<polygon class="st98" points="17.5,21.3 11.9,26.9 12.3,27.1 17.9,21.5 		"/>
		<polygon class="st99" points="17.9,21.5 12.3,27.1 12.8,27.4 18.4,21.8 		"/>
		<polygon class="st100" points="18.4,21.8 12.8,27.4 13.2,27.7 18.8,22.1 		"/>
		<polygon class="st101" points="18.8,22.1 13.2,27.7 13.6,27.9 19.2,22.3 		"/>
		<polygon class="st102" points="19.2,22.3 13.6,27.9 14.1,28.2 19.7,22.6 		"/>
		<polygon class="st102" points="14.1,28.2 14.5,28.4 19.8,23.1 19.8,22.7 19.7,22.6 		"/>
		<polygon class="st103" points="15,28.7 19.8,23.8 19.8,23.1 14.5,28.4 		"/>
		<polygon class="st104" points="15.4,28.9 19.8,24.5 19.8,23.8 15,28.7 		"/>
		<polygon class="st105" points="15.9,29.2 19.8,25.2 19.8,24.5 15.4,28.9 		"/>
		<polygon class="st106" points="16.3,29.5 19.8,25.9 19.8,25.2 15.9,29.2 		"/>
		<polygon class="st107" points="16.7,29.7 19.8,26.6 19.8,25.9 16.3,29.5 		"/>
		<polygon class="st108" points="17.2,30 19.8,27.3 19.8,26.6 16.7,29.7 		"/>
		<polygon class="st109" points="17.6,30.2 19.8,28 19.8,27.3 17.2,30 		"/>
		<polygon class="st110" points="18.1,30.5 19.8,28.7 19.8,28 17.6,30.2 		"/>
		<polygon class="st110" points="18.5,30.7 19.8,29.4 19.8,28.7 18.1,30.5 		"/>
		<polygon class="st111" points="19,31 19.8,30.1 19.8,29.4 18.5,30.7 		"/>
		<polygon class="st112" points="19.4,31.2 19.8,30.8 19.8,30.1 19,31 		"/>
		<polygon class="st112" points="19.8,31.5 19.8,30.8 19.4,31.2 		"/>
	</g>
	<g>
		<polygon class="st1" points="4.5,4.9 4.6,5 5,4.6 		"/>
		<polygon class="st1" points="5,4.6 4.6,5 4.8,5.1 5.6,4.3 		"/>
		<polygon class="st1" points="5.6,4.3 4.8,5.1 4.9,5.2 6.2,4 		"/>
		<polygon class="st2" points="6.2,4 4.9,5.2 5.1,5.3 6.7,3.6 		"/>
		<polygon class="st3" points="6.7,3.6 5.1,5.3 5.2,5.4 7.3,3.3 		"/>
		<polygon class="st4" points="7.3,3.3 5.2,5.4 5.4,5.5 7.9,3 		"/>
		<polygon class="st5" points="7.9,3 5.4,5.5 5.5,5.5 8.4,2.7 		"/>
		<polygon class="st5" points="8.4,2.7 5.5,5.5 5.7,5.6 9,2.3 		"/>
		<polygon class="st6" points="9,2.3 5.7,5.6 5.8,5.7 9.5,2 		"/>
		<polygon class="st7" points="9.5,2 5.8,5.7 6,5.8 10.1,1.7 		"/>
		<polygon class="st8" points="10.1,1.7 6,5.8 6.1,5.9 10.7,1.4 		"/>
		<polygon class="st9" points="10.7,1.4 6.1,5.9 6.3,6 11.2,1 		"/>
		<polygon class="st9" points="11.2,1 6.3,6 6.4,6.1 11.8,0.7 		"/>
		<polygon class="st10" points="12.1,0.5 11.8,0.7 6.4,6.1 6.6,6.2 12.2,0.5 		"/>
		<polygon class="st11" points="12.2,0.5 6.6,6.2 6.7,6.2 12.3,0.6 		"/>
		<polygon class="st12" points="12.3,0.6 6.7,6.2 6.9,6.3 12.5,0.7 		"/>
		<polygon class="st12" points="12.5,0.7 6.9,6.3 7,6.4 12.6,0.8 		"/>
		<polygon class="st13" points="12.6,0.8 7,6.4 7.2,6.5 12.8,0.9 		"/>
		<polygon class="st14" points="12.8,0.9 7.2,6.5 7.3,6.6 12.9,1 		"/>
		<polygon class="st15" points="12.9,1 7.3,6.6 7.5,6.7 13.1,1 		"/>
		<polygon class="st16" points="13.1,1 7.5,6.7 7.6,6.8 13.2,1.1 		"/>
		<polygon class="st17" points="13.2,1.1 7.6,6.8 7.8,6.8 13.4,1.2 		"/>
		<polygon class="st18" points="13.4,1.2 7.8,6.8 7.9,6.9 13.5,1.3 		"/>
		<polygon class="st19" points="13.5,1.3 7.9,6.9 8.1,7 13.7,1.4 		"/>
		<polygon class="st20" points="13.7,1.4 8.1,7 8.2,7.1 13.8,1.5 		"/>
		<polygon class="st21" points="13.8,1.5 8.2,7.1 8.4,7.2 14,1.6 		"/>
		<polygon class="st22" points="14,1.6 8.4,7.2 8.5,7.3 14.1,1.7 		"/>
		<polygon class="st23" points="14.1,1.7 8.5,7.3 8.7,7.4 14.3,1.7 		"/>
		<polygon class="st24" points="14.3,1.7 8.7,7.4 8.8,7.5 14.4,1.8 		"/>
		<polygon class="st25" points="14.4,1.8 8.8,7.5 9,7.5 14.6,1.9 		"/>
		<polygon class="st26" points="14.6,1.9 9,7.5 9.1,7.6 14.7,2 		"/>
		<polygon class="st27" points="14.7,2 9.1,7.6 9.3,7.7 14.9,2.1 		"/>
		<polygon class="st28" points="14.9,2.1 9.3,7.7 9.4,7.8 15,2.2 		"/>
		<polygon class="st29" points="15,2.2 9.4,7.8 9.6,7.9 15.2,2.3 		"/>
		<polygon class="st30" points="15.2,2.3 9.6,7.9 9.7,8 15.3,2.3 		"/>
		<polygon class="st31" points="15.3,2.3 9.7,8 9.9,8.1 15.5,2.4 		"/>
		<polygon class="st32" points="15.5,2.4 9.9,8.1 10,8.1 15.6,2.5 		"/>
		<polygon class="st33" points="15.6,2.5 10,8.1 10.2,8.2 15.8,2.6 		"/>
		<polygon class="st34" points="15.8,2.6 10.2,8.2 10.3,8.3 15.9,2.7 		"/>
		<polygon class="st35" points="15.9,2.7 10.3,8.3 10.5,8.4 16.1,2.8 		"/>
		<polygon class="st36" points="16.1,2.8 10.5,8.4 10.6,8.5 16.2,2.9 		"/>
		<polygon class="st37" points="16.2,2.9 10.6,8.5 10.8,8.6 16.4,3 		"/>
		<polygon class="st38" points="16.4,3 10.8,8.6 10.9,8.7 16.5,3 		"/>
		<polygon class="st39" points="16.5,3 10.9,8.7 11.1,8.7 16.7,3.1 		"/>
		<polygon class="st40" points="16.7,3.1 11.1,8.7 11.2,8.8 16.8,3.2 		"/>
		<polygon class="st41" points="16.8,3.2 11.2,8.8 11.4,8.9 17,3.3 		"/>
		<polygon class="st42" points="17,3.3 11.4,8.9 11.5,9 17.1,3.4 		"/>
		<polygon class="st43" points="17.1,3.4 11.5,9 11.7,9.1 17.3,3.5 		"/>
		<polygon class="st44" points="17.3,3.5 11.7,9.1 11.8,9.2 17.4,3.6 		"/>
		<polygon class="st45" points="17.4,3.6 11.8,9.2 12,9.3 17.6,3.6 		"/>
		<polygon class="st46" points="17.6,3.6 12,9.3 12.1,9.4 17.7,3.7 		"/>
		<polygon class="st47" points="17.7,3.7 12.1,9.4 12.2,9.4 12.6,9.2 17.9,3.8 		"/>
		<polygon class="st48" points="17.9,3.8 12.6,9.2 13.1,8.8 18,3.9 		"/>
		<polygon class="st49" points="18,3.9 13.1,8.8 13.7,8.5 18.2,4 		"/>
		<polygon class="st50" points="18.2,4 13.7,8.5 14.2,8.2 18.3,4.1 		"/>
		<polygon class="st51" points="18.3,4.1 14.2,8.2 14.8,7.9 18.5,4.2 		"/>
		<polygon class="st52" points="18.5,4.2 14.8,7.9 15.4,7.5 18.6,4.2 		"/>
		<polygon class="st53" points="18.6,4.2 15.4,7.5 15.9,7.2 18.8,4.3 		"/>
		<polygon class="st54" points="18.8,4.3 15.9,7.2 16.5,6.9 18.9,4.4 		"/>
		<polygon class="st55" points="18.9,4.4 16.5,6.9 17,6.6 19.1,4.5 		"/>
		<polygon class="st56" points="19.1,4.5 17,6.6 17.6,6.2 19.2,4.6 		"/>
		<polygon class="st57" points="19.2,4.6 17.6,6.2 18.2,5.9 19.4,4.7 		"/>
		<polygon class="st58" points="19.4,4.7 18.2,5.9 18.7,5.6 19.5,4.8 		"/>
		<polygon class="st59" points="19.5,4.8 18.7,5.6 19.3,5.3 19.7,4.9 		"/>
		<polygon class="st60" points="19.3,5.3 19.8,4.9 19.7,4.9 		"/>
	</g>
	<polygon class="st113" points="27.8,18.7 27.3,17.8 19.8,22.1 13.2,18.2 20.1,14.2 19.6,13.3 12.7,17.4 12.7,9.7 20.1,5.4 
		19.6,4.5 12.2,8.8 4.7,4.5 4.2,5.4 11.7,9.7 11.7,17.4 4.7,13.3 4.2,14.2 11.7,18.5 11.7,27.1 12.7,27.1 12.7,19.1 19.3,22.9 
		19.3,31.5 20.3,31.5 20.3,22.9 	"/>
	<g>
		<path class="st114" d="M19.8,32c-0.1,0-0.2,0-0.3-0.1L4.2,23.1C4.1,23,4,22.8,4,22.6V4.9c0-0.2,0.1-0.3,0.2-0.4l7.7-4.4
			c0.2-0.1,0.3-0.1,0.5,0l7.7,4.4c0.2,0.1,0.3,0.3,0.3,0.4v8.6l7.4,4.3c0.2,0.1,0.3,0.3,0.3,0.4v8.8c0,0.2-0.1,0.3-0.3,0.4l-7.7,4.4
			C20,32,19.9,32,19.8,32z M5,22.3l14.9,8.6l7.2-4.2v-8.3l-7.4-4.3c-0.2-0.1-0.3-0.3-0.3-0.4V5.2l-7.2-4.2L5,5.2V22.3z"/>
	</g>
</g>
<g>
	<rect class="st115" width="32" height="32"/>
</g>
</svg>
